# MagicaVoxel @ Ephtracy

# group
o 

# material
mtllib Ducklet.mtl
usemtl palette

# normals
vn -1 0 0
vn 1 0 0
vn 0 0 1
vn 0 0 -1
vn 0 -1 0
vn 0 1 0

# texcoords
vt 0.0214844 0.5
vt 0.0683594 0.5
vt 0.958984 0.5
vt 0.994141 0.5

# verts
v -0.5 0 0.5
v -0.5 0 -0.5
v -0.5 0.1 0.7
v -0.5 0.1 0.6
v -0.5 0.2 0.2
v -0.5 0.2 -0.2
v -0.5 0.3 0.3
v -0.5 0.3 0.2
v -0.5 0.3 -0.2
v -0.5 0.3 -0.3
v -0.5 0.4 -5.96046e-008
v -0.5 0.4 -0.2
v -0.5 0.4 -0.3
v -0.5 0.5 0.7
v -0.5 0.5 0.6
v -0.5 0.5 0.1
v -0.5 0.5 -5.96046e-008
v -0.5 0.5 -0.2
v -0.5 0.6 0.1
v -0.5 0.6 -5.96046e-008
v -0.5 0.8 0.3
v -0.5 0.8 0.2
v -0.5 1 0.5
v -0.5 1 -0.5
v -0.4 0 0.7
v -0.4 0 0.5
v -0.4 0.1 0.7
v -0.4 0.1 0.6
v -0.4 0.2 0.6
v -0.4 0.2 0.5
v -0.4 1.2 -5.96046e-008
v -0.4 1.2 -0.1
v -0.4 1.3 -5.96046e-008
v -0.4 1.3 -0.1
v -0.3 0.1 -0.5
v -0.3 0.1 -0.6
v -0.3 0.2 -0.5
v -0.3 0.2 -0.6
v -0.3 1 0.2
v -0.3 1 -0.3
v -0.3 1.2 -5.96046e-008
v -0.3 1.2 -0.1
v -0.3 1.3 -5.96046e-008
v -0.3 1.3 -0.1
v -0.3 1.5 0.2
v -0.3 1.5 -0.3
v -0.2 0.1 -0.6
v -0.2 0.1 -0.8
v -0.2 0.2 -0.5
v -0.2 0.2 -0.6
v -0.2 0.2 -0.8
v -0.2 0.3 -0.5
v -0.2 0.3 -0.6
v -0.2 0.4 0.7
v -0.2 0.4 0.6
v -0.2 0.5 0.7
v -0.2 0.5 0.6
v -0.2 1.1 0.5
v -0.2 1.1 0.2
v -0.2 1.2 0.5
v -0.2 1.2 0.2
v -0.1 0.1 -0.8
v -0.1 0.1 -0.9
v -0.1 0.2 -0.6
v -0.1 0.2 -0.8
v -0.1 0.2 -0.9
v -0.1 0.3 -0.5
v -0.1 0.3 -0.6
v -0.1 0.3 -0.8
v -0.1 0.4 -0.5
v -0.1 0.4 -0.6
v -0.1 1.2 0.5
v -0.1 1.2 0.2
v -0.1 1.3 0.5
v -0.1 1.3 0.3
v -0.1 1.4 0.3
v -0.1 1.4 0.2
v 0.1 0.1 0.7
v 0.1 0.1 0.6
v 0.1 0.1 -0.8
v 0.1 0.1 -0.9
v 0.1 0.2 -0.8
v 0.1 0.2 -0.9
v 0.1 0.5 0.7
v 0.1 0.5 0.6
v 0.2 0 0.7
v 0.2 0 0.5
v 0.2 0.1 0.7
v 0.2 0.1 0.6
v 0.2 0.1 0.5
v 0.2 0.2 0.6
v 0.2 0.2 0.5
v 0.4 0.4 0.7
v 0.4 0.4 0.6
v 0.4 0.5 0.7
v 0.4 0.5 0.6
v -0.4 0.4 0.7
v -0.4 0.4 0.6
v -0.4 0.5 0.7
v -0.4 0.5 0.6
v -0.2 0 0.7
v -0.2 0 0.5
v -0.2 0.1 0.7
v -0.2 0.1 0.6
v -0.2 0.2 0.6
v -0.2 0.2 0.5
v -0.1 0.1 0.7
v -0.1 0.1 0.6
v -0.1 0.5 0.7
v -0.1 0.5 0.6
v 0 0.1 -0.8
v 0 0.1 -0.9
v 0 0.2 -0.8
v 0 0.2 -0.9
v 0.1 0.2 -0.6
v 0.1 0.2 -0.8
v 0.1 0.3 -0.5
v 0.1 0.3 -0.6
v 0.1 0.3 -0.8
v 0.1 0.4 -0.5
v 0.1 0.4 -0.6
v 0.1 1.2 0.5
v 0.1 1.2 0.2
v 0.1 1.3 0.5
v 0.1 1.3 0.3
v 0.1 1.4 0.3
v 0.1 1.4 0.2
v 0.2 0.1 -0.6
v 0.2 0.1 -0.9
v 0.2 0.2 -0.5
v 0.2 0.2 -0.6
v 0.2 0.2 -0.9
v 0.2 0.3 -0.5
v 0.2 0.3 -0.6
v 0.2 0.4 0.7
v 0.2 0.4 0.6
v 0.2 0.5 0.7
v 0.2 0.5 0.6
v 0.2 1.1 0.5
v 0.2 1.1 0.2
v 0.2 1.2 0.5
v 0.2 1.2 0.2
v 0.3 0.1 -0.5
v 0.3 0.1 -0.6
v 0.3 0.2 -0.5
v 0.3 0.2 -0.6
v 0.3 1 0.2
v 0.3 1 -0.3
v 0.3 1.2 -5.96046e-008
v 0.3 1.2 -0.1
v 0.3 1.3 -5.96046e-008
v 0.3 1.3 -0.1
v 0.3 1.5 0.2
v 0.3 1.5 -0.3
v 0.4 0 0.7
v 0.4 0 0.5
v 0.4 0.1 0.7
v 0.4 0.1 0.6
v 0.4 0.2 0.6
v 0.4 0.2 0.5
v 0.4 1.2 -5.96046e-008
v 0.4 1.2 -0.1
v 0.4 1.3 -5.96046e-008
v 0.4 1.3 -0.1
v 0.5 0 0.5
v 0.5 0 -0.5
v 0.5 0.1 0.7
v 0.5 0.1 0.6
v 0.5 0.2 0.2
v 0.5 0.2 -0.2
v 0.5 0.3 0.3
v 0.5 0.3 0.2
v 0.5 0.3 -0.2
v 0.5 0.3 -0.3
v 0.5 0.4 -5.96046e-008
v 0.5 0.4 -0.2
v 0.5 0.4 -0.3
v 0.5 0.5 0.7
v 0.5 0.5 0.6
v 0.5 0.5 0.1
v 0.5 0.5 -5.96046e-008
v 0.5 0.5 -0.2
v 0.5 0.6 0.1
v 0.5 0.6 -5.96046e-008
v 0.5 0.8 0.3
v 0.5 0.8 0.2
v 0.5 1 0.5
v 0.5 1 -0.5
v -0.5 0.1 0.7
v -0.5 0.5 0.7
v -0.4 0 0.7
v -0.4 0.1 0.7
v -0.4 0.4 0.7
v -0.4 0.5 0.7
v -0.2 0 0.7
v -0.2 0.1 0.7
v -0.2 0.4 0.7
v -0.2 0.5 0.7
v -0.1 0.1 0.7
v -0.1 0.5 0.7
v 0.1 0.1 0.7
v 0.1 0.5 0.7
v 0.2 0 0.7
v 0.2 0.1 0.7
v 0.2 0.4 0.7
v 0.2 0.5 0.7
v 0.4 0 0.7
v 0.4 0.1 0.7
v 0.4 0.4 0.7
v 0.4 0.5 0.7
v 0.5 0.1 0.7
v 0.5 0.5 0.7
v -0.5 0 0.5
v -0.5 1 0.5
v -0.4 0 0.5
v -0.4 0.2 0.5
v -0.4 0.3 0.5
v -0.2 0 0.5
v -0.2 0.2 0.5
v -0.2 0.3 0.5
v -0.2 1.1 0.5
v -0.2 1.2 0.5
v -0.1 0.4 0.5
v -0.1 0.5 0.5
v -0.1 0.7 0.5
v -0.1 0.8 0.5
v -0.1 1.2 0.5
v -0.1 1.3 0.5
v 0 0.6 0.5
v 0 0.7 0.5
v 0 0.8 0.5
v 0.1 0.1 0.5
v 0.1 0.2 0.5
v 0.1 0.4 0.5
v 0.1 0.5 0.5
v 0.1 0.6 0.5
v 0.1 1.2 0.5
v 0.1 1.3 0.5
v 0.2 0 0.5
v 0.2 0.1 0.5
v 0.2 0.2 0.5
v 0.2 0.5 0.5
v 0.2 0.7 0.5
v 0.2 1.1 0.5
v 0.2 1.2 0.5
v 0.4 0 0.5
v 0.4 0.2 0.5
v 0.5 0 0.5
v 0.5 1 0.5
v -0.1 1.3 0.3
v -0.1 1.4 0.3
v 0.1 1.3 0.3
v 0.1 1.4 0.3
v -0.3 1 0.2
v -0.3 1.5 0.2
v -0.2 1.1 0.2
v -0.2 1.2 0.2
v -0.1 1.2 0.2
v -0.1 1.4 0.2
v 0.1 1.2 0.2
v 0.1 1.4 0.2
v 0.2 1.1 0.2
v 0.2 1.2 0.2
v 0.3 1 0.2
v 0.3 1.5 0.2
v -0.4 1.2 -5.96046e-008
v -0.4 1.3 -5.96046e-008
v -0.3 1.2 -5.96046e-008
v -0.3 1.3 -5.96046e-008
v 0.3 1.2 -5.96046e-008
v 0.3 1.3 -5.96046e-008
v 0.4 1.2 -5.96046e-008
v 0.4 1.3 -5.96046e-008
v -0.5 0.1 0.6
v -0.5 0.5 0.6
v -0.4 0.1 0.6
v -0.4 0.2 0.6
v -0.4 0.4 0.6
v -0.4 0.5 0.6
v -0.2 0.1 0.6
v -0.2 0.2 0.6
v -0.2 0.4 0.6
v -0.2 0.5 0.6
v -0.1 0.1 0.6
v -0.1 0.5 0.6
v 0.1 0.1 0.6
v 0.1 0.5 0.6
v 0.2 0.1 0.6
v 0.2 0.2 0.6
v 0.2 0.4 0.6
v 0.2 0.5 0.6
v 0.4 0.1 0.6
v 0.4 0.2 0.6
v 0.4 0.4 0.6
v 0.4 0.5 0.6
v 0.5 0.1 0.6
v 0.5 0.5 0.6
v -0.4 1.2 -0.1
v -0.4 1.3 -0.1
v -0.3 1.2 -0.1
v -0.3 1.3 -0.1
v 0.3 1.2 -0.1
v 0.3 1.3 -0.1
v 0.4 1.2 -0.1
v 0.4 1.3 -0.1
v -0.3 1 -0.3
v -0.3 1.5 -0.3
v 0.3 1 -0.3
v 0.3 1.5 -0.3
v -0.5 0 -0.5
v -0.5 1 -0.5
v -0.3 0.1 -0.5
v -0.3 0.2 -0.5
v -0.2 0.2 -0.5
v -0.2 0.3 -0.5
v -0.1 0.3 -0.5
v -0.1 0.4 -0.5
v 0.1 0.3 -0.5
v 0.1 0.4 -0.5
v 0.2 0.2 -0.5
v 0.2 0.3 -0.5
v 0.3 0.1 -0.5
v 0.3 0.2 -0.5
v 0.5 0 -0.5
v 0.5 1 -0.5
v -0.3 0.1 -0.6
v -0.3 0.2 -0.6
v -0.2 0.1 -0.6
v -0.2 0.2 -0.6
v -0.2 0.3 -0.6
v -0.1 0.2 -0.6
v -0.1 0.3 -0.6
v -0.1 0.4 -0.6
v 0.1 0.2 -0.6
v 0.1 0.3 -0.6
v 0.1 0.4 -0.6
v 0.2 0.1 -0.6
v 0.2 0.2 -0.6
v 0.2 0.3 -0.6
v 0.3 0.1 -0.6
v 0.3 0.2 -0.6
v -0.2 0.1 -0.8
v -0.2 0.2 -0.8
v -0.1 0.1 -0.8
v -0.1 0.2 -0.8
v -0.1 0.3 -0.8
v 0 0.1 -0.8
v 0 0.2 -0.8
v 0.1 0.1 -0.8
v 0.1 0.2 -0.8
v 0.1 0.3 -0.8
v -0.1 0.1 -0.9
v -0.1 0.2 -0.9
v 0 0.1 -0.9
v 0 0.2 -0.9
v 0.1 0.1 -0.9
v 0.1 0.2 -0.9
v 0.2 0.1 -0.9
v 0.2 0.2 -0.9
v -0.4 0 0.7
v -0.2 0 0.7
v 0.2 0 0.7
v 0.4 0 0.7
v -0.5 0 0.5
v -0.4 0 0.5
v -0.2 0 0.5
v 0.2 0 0.5
v 0.4 0 0.5
v 0.5 0 0.5
v -0.5 0 -0.5
v 0.5 0 -0.5
v -0.5 0.1 0.7
v -0.4 0.1 0.7
v -0.2 0.1 0.7
v -0.1 0.1 0.7
v 0.1 0.1 0.7
v 0.2 0.1 0.7
v 0.4 0.1 0.7
v 0.5 0.1 0.7
v -0.5 0.1 0.6
v -0.4 0.1 0.6
v -0.2 0.1 0.6
v -0.1 0.1 0.6
v 0.1 0.1 0.6
v 0.2 0.1 0.6
v 0.4 0.1 0.6
v 0.5 0.1 0.6
v -0.3 0.1 -0.5
v 0.3 0.1 -0.5
v -0.3 0.1 -0.6
v -0.2 0.1 -0.6
v 0.2 0.1 -0.6
v 0.3 0.1 -0.6
v -0.2 0.1 -0.8
v -0.1 0.1 -0.8
v 0 0.1 -0.8
v 0.1 0.1 -0.8
v -0.1 0.1 -0.9
v 0 0.1 -0.9
v 0.1 0.1 -0.9
v 0.2 0.1 -0.9
v -0.2 1.1 0.5
v 0.2 1.1 0.5
v -0.2 1.1 0.2
v 0.2 1.1 0.2
v -0.4 1.2 -5.96046e-008
v -0.3 1.2 -5.96046e-008
v 0.3 1.2 -5.96046e-008
v 0.4 1.2 -5.96046e-008
v -0.4 1.2 -0.1
v -0.3 1.2 -0.1
v 0.3 1.2 -0.1
v 0.4 1.2 -0.1
v -0.4 0.2 0.6
v -0.2 0.2 0.6
v 0.2 0.2 0.6
v 0.4 0.2 0.6
v -0.4 0.2 0.5
v -0.2 0.2 0.5
v 0.2 0.2 0.5
v 0.4 0.2 0.5
v -0.3 0.2 -0.5
v -0.2 0.2 -0.5
v 0.2 0.2 -0.5
v 0.3 0.2 -0.5
v -0.3 0.2 -0.6
v -0.2 0.2 -0.6
v -0.1 0.2 -0.6
v 0.1 0.2 -0.6
v 0.2 0.2 -0.6
v 0.3 0.2 -0.6
v -0.2 0.2 -0.8
v -0.1 0.2 -0.8
v 0 0.2 -0.8
v 0.1 0.2 -0.8
v -0.1 0.2 -0.9
v 0 0.2 -0.9
v 0.1 0.2 -0.9
v 0.2 0.2 -0.9
v -0.2 0.3 -0.5
v -0.1 0.3 -0.5
v 0.1 0.3 -0.5
v 0.2 0.3 -0.5
v -0.2 0.3 -0.6
v -0.1 0.3 -0.6
v 0.1 0.3 -0.6
v 0.2 0.3 -0.6
v -0.1 0.3 -0.8
v 0.1 0.3 -0.8
v -0.4 0.4 0.7
v -0.2 0.4 0.7
v 0.2 0.4 0.7
v 0.4 0.4 0.7
v -0.4 0.4 0.6
v -0.2 0.4 0.6
v 0.2 0.4 0.6
v 0.4 0.4 0.6
v -0.1 0.4 -0.5
v 0.1 0.4 -0.5
v -0.1 0.4 -0.6
v 0.1 0.4 -0.6
v -0.5 0.5 0.7
v -0.4 0.5 0.7
v -0.2 0.5 0.7
v -0.1 0.5 0.7
v 0.1 0.5 0.7
v 0.2 0.5 0.7
v 0.4 0.5 0.7
v 0.5 0.5 0.7
v -0.5 0.5 0.6
v -0.4 0.5 0.6
v -0.2 0.5 0.6
v -0.1 0.5 0.6
v 0.1 0.5 0.6
v 0.2 0.5 0.6
v 0.4 0.5 0.6
v 0.5 0.5 0.6
v -0.5 1 0.5
v 0.5 1 0.5
v -0.3 1 0.2
v 0.3 1 0.2
v -0.3 1 -0.3
v 0.3 1 -0.3
v -0.5 1 -0.5
v 0.5 1 -0.5
v -0.2 1.2 0.5
v -0.1 1.2 0.5
v 0.1 1.2 0.5
v 0.2 1.2 0.5
v -0.2 1.2 0.2
v -0.1 1.2 0.2
v 0.1 1.2 0.2
v 0.2 1.2 0.2
v -0.1 1.3 0.5
v 0.1 1.3 0.5
v -0.1 1.3 0.3
v 0.1 1.3 0.3
v -0.4 1.3 -5.96046e-008
v -0.3 1.3 -5.96046e-008
v 0.3 1.3 -5.96046e-008
v 0.4 1.3 -5.96046e-008
v -0.4 1.3 -0.1
v -0.3 1.3 -0.1
v 0.3 1.3 -0.1
v 0.4 1.3 -0.1
v -0.1 1.4 0.3
v 0.1 1.4 0.3
v -0.1 1.4 0.2
v 0.1 1.4 0.2
v -0.3 1.5 0.2
v 0.3 1.5 0.2
v -0.3 1.5 -0.3
v 0.3 1.5 -0.3

# faces
f 5/1/1 2/1/1 1/1/1
f 6/1/1 2/1/1 5/1/1
f 7/1/1 5/1/1 1/1/1
f 8/4/1 6/4/1 5/4/1
f 8/1/1 5/1/1 7/1/1
f 9/1/1 2/1/1 6/1/1
f 9/4/1 6/4/1 8/4/1
f 10/1/1 2/1/1 9/1/1
f 11/1/1 9/1/1 8/1/1
f 12/4/1 10/4/1 9/4/1
f 12/1/1 9/1/1 11/1/1
f 13/1/1 2/1/1 10/1/1
f 13/4/1 10/4/1 12/4/1
f 14/2/1 4/2/1 3/2/1
f 15/2/1 4/2/1 14/2/1
f 16/1/1 11/1/1 8/1/1
f 17/4/1 12/4/1 11/4/1
f 17/1/1 11/1/1 16/1/1
f 18/1/1 13/1/1 12/1/1
f 18/4/1 12/4/1 17/4/1
f 19/1/1 16/1/1 8/1/1
f 19/4/1 17/4/1 16/4/1
f 20/1/1 18/1/1 17/1/1
f 20/4/1 17/4/1 19/4/1
f 21/4/1 8/4/1 7/4/1
f 21/1/1 7/1/1 1/1/1
f 22/1/1 20/1/1 19/1/1
f 22/4/1 8/4/1 21/4/1
f 22/1/1 19/1/1 8/1/1
f 23/1/1 21/1/1 1/1/1
f 23/1/1 22/1/1 21/1/1
f 24/1/1 2/1/1 13/1/1
f 24/1/1 22/1/1 23/1/1
f 24/1/1 18/1/1 20/1/1
f 24/1/1 20/1/1 22/1/1
f 24/1/1 13/1/1 18/1/1
f 27/2/1 26/2/1 25/2/1
f 28/2/1 26/2/1 27/2/1
f 29/2/1 26/2/1 28/2/1
f 30/2/1 26/2/1 29/2/1
f 33/4/1 32/4/1 31/4/1
f 34/4/1 32/4/1 33/4/1
f 37/1/1 36/1/1 35/1/1
f 38/1/1 36/1/1 37/1/1
f 41/1/1 40/1/1 39/1/1
f 42/1/1 40/1/1 41/1/1
f 43/1/1 41/1/1 39/1/1
f 44/1/1 40/1/1 42/1/1
f 45/1/1 43/1/1 39/1/1
f 45/1/1 44/1/1 43/1/1
f 46/1/1 40/1/1 44/1/1
f 46/1/1 44/1/1 45/1/1
f 50/1/1 48/1/1 47/1/1
f 51/1/1 48/1/1 50/1/1
f 52/1/1 50/1/1 49/1/1
f 53/1/1 50/1/1 52/1/1
f 56/2/1 55/2/1 54/2/1
f 57/2/1 55/2/1 56/2/1
f 60/2/1 59/2/1 58/2/1
f 61/2/1 59/2/1 60/2/1
f 65/1/1 63/1/1 62/1/1
f 66/1/1 63/1/1 65/1/1
f 68/1/1 65/1/1 64/1/1
f 69/1/1 65/1/1 68/1/1
f 70/1/1 68/1/1 67/1/1
f 71/1/1 68/1/1 70/1/1
f 74/2/1 73/2/1 72/2/1
f 75/2/1 73/2/1 74/2/1
f 76/2/1 73/2/1 75/2/1
f 77/2/1 73/2/1 76/2/1
f 82/1/1 81/1/1 80/1/1
f 83/1/1 81/1/1 82/1/1
f 84/2/1 79/2/1 78/2/1
f 85/2/1 79/2/1 84/2/1
f 88/2/1 87/2/1 86/2/1
f 89/2/1 87/2/1 88/2/1
f 90/2/1 87/2/1 89/2/1
f 91/2/1 90/2/1 89/2/1
f 92/2/1 90/2/1 91/2/1
f 95/2/1 94/2/1 93/2/1
f 96/2/1 94/2/1 95/2/1
f 97/2/2 98/2/2 99/2/2
f 99/2/2 98/2/2 100/2/2
f 101/2/2 102/2/2 103/2/2
f 103/2/2 102/2/2 104/2/2
f 104/2/2 102/2/2 105/2/2
f 105/2/2 102/2/2 106/2/2
f 107/2/2 108/2/2 109/2/2
f 109/2/2 108/2/2 110/2/2
f 111/1/2 112/1/2 113/1/2
f 113/1/2 112/1/2 114/1/2
f 115/1/2 116/1/2 118/1/2
f 118/1/2 116/1/2 119/1/2
f 117/1/2 118/1/2 120/1/2
f 120/1/2 118/1/2 121/1/2
f 122/2/2 123/2/2 124/2/2
f 124/2/2 123/2/2 125/2/2
f 125/2/2 123/2/2 126/2/2
f 126/2/2 123/2/2 127/2/2
f 128/1/2 129/1/2 131/1/2
f 131/1/2 129/1/2 132/1/2
f 130/1/2 131/1/2 133/1/2
f 133/1/2 131/1/2 134/1/2
f 135/2/2 136/2/2 137/2/2
f 137/2/2 136/2/2 138/2/2
f 139/2/2 140/2/2 141/2/2
f 141/2/2 140/2/2 142/2/2
f 143/1/2 144/1/2 145/1/2
f 145/1/2 144/1/2 146/1/2
f 147/1/2 148/1/2 149/1/2
f 149/1/2 148/1/2 150/1/2
f 147/1/2 149/1/2 151/1/2
f 150/1/2 148/1/2 152/1/2
f 147/1/2 151/1/2 153/1/2
f 151/1/2 152/1/2 153/1/2
f 152/1/2 148/1/2 154/1/2
f 153/1/2 152/1/2 154/1/2
f 155/2/2 156/2/2 157/2/2
f 157/2/2 156/2/2 158/2/2
f 158/2/2 156/2/2 159/2/2
f 159/2/2 156/2/2 160/2/2
f 161/4/2 162/4/2 163/4/2
f 163/4/2 162/4/2 164/4/2
f 165/1/2 166/1/2 169/1/2
f 169/1/2 166/1/2 170/1/2
f 165/1/2 169/1/2 171/1/2
f 169/4/2 170/4/2 172/4/2
f 171/1/2 169/1/2 172/1/2
f 170/1/2 166/1/2 173/1/2
f 172/4/2 170/4/2 173/4/2
f 173/1/2 166/1/2 174/1/2
f 172/1/2 173/1/2 175/1/2
f 173/4/2 174/4/2 176/4/2
f 175/1/2 173/1/2 176/1/2
f 174/1/2 166/1/2 177/1/2
f 176/4/2 174/4/2 177/4/2
f 167/2/2 168/2/2 178/2/2
f 178/2/2 168/2/2 179/2/2
f 172/1/2 175/1/2 180/1/2
f 175/4/2 176/4/2 181/4/2
f 180/1/2 175/1/2 181/1/2
f 176/1/2 177/1/2 182/1/2
f 181/4/2 176/4/2 182/4/2
f 172/1/2 180/1/2 183/1/2
f 180/4/2 181/4/2 183/4/2
f 181/1/2 182/1/2 184/1/2
f 183/4/2 181/4/2 184/4/2
f 171/4/2 172/4/2 185/4/2
f 165/1/2 171/1/2 185/1/2
f 183/1/2 184/1/2 186/1/2
f 185/4/2 172/4/2 186/4/2
f 172/1/2 183/1/2 186/1/2
f 165/1/2 185/1/2 187/1/2
f 185/1/2 186/1/2 187/1/2
f 177/1/2 166/1/2 188/1/2
f 187/1/2 186/1/2 188/1/2
f 184/1/2 182/1/2 188/1/2
f 186/1/2 184/1/2 188/1/2
f 182/1/2 177/1/2 188/1/2
f 192/2/3 190/2/3 189/2/3
f 193/2/3 190/2/3 192/2/3
f 194/2/3 190/2/3 193/2/3
f 195/2/3 192/2/3 191/2/3
f 195/2/3 193/2/3 192/2/3
f 196/2/3 193/2/3 195/2/3
f 197/2/3 193/2/3 196/2/3
f 199/2/3 198/2/3 197/2/3
f 199/2/3 197/2/3 196/2/3
f 200/2/3 198/2/3 199/2/3
f 204/2/3 202/2/3 201/2/3
f 205/2/3 202/2/3 204/2/3
f 206/2/3 202/2/3 205/2/3
f 207/2/3 204/2/3 203/2/3
f 207/2/3 205/2/3 204/2/3
f 208/2/3 205/2/3 207/2/3
f 209/2/3 205/2/3 208/2/3
f 211/2/3 210/2/3 209/2/3
f 211/2/3 209/2/3 208/2/3
f 212/2/3 210/2/3 211/2/3
f 215/1/3 214/1/3 213/1/3
f 216/1/3 214/1/3 215/1/3
f 217/1/3 214/1/3 216/1/3
f 219/3/3 217/3/3 216/3/3
f 220/1/3 214/1/3 217/1/3
f 220/3/3 217/3/3 219/3/3
f 223/1/3 219/1/3 218/1/3
f 223/1/3 220/1/3 219/1/3
f 223/1/3 214/1/3 220/1/3
f 224/1/3 214/1/3 223/1/3
f 225/1/3 214/1/3 224/1/3
f 226/1/3 214/1/3 225/1/3
f 227/2/3 222/2/3 221/2/3
f 229/1/3 225/1/3 224/1/3
f 230/4/3 226/4/3 225/4/3
f 230/1/3 225/1/3 229/1/3
f 231/1/3 214/1/3 226/1/3
f 231/4/3 226/4/3 230/4/3
f 232/1/3 223/1/3 218/1/3
f 233/1/3 223/1/3 232/1/3
f 234/4/3 224/4/3 223/4/3
f 234/1/3 223/1/3 233/1/3
f 235/1/3 229/1/3 224/1/3
f 235/4/3 224/4/3 234/4/3
f 236/4/3 230/4/3 229/4/3
f 236/1/3 229/1/3 235/1/3
f 237/2/3 228/2/3 227/2/3
f 237/2/3 227/2/3 221/2/3
f 238/2/3 228/2/3 237/2/3
f 239/1/3 232/1/3 218/1/3
f 240/3/3 233/3/3 232/3/3
f 240/1/3 232/1/3 239/1/3
f 241/1/3 235/1/3 234/1/3
f 241/3/3 233/3/3 240/3/3
f 241/1/3 234/1/3 233/1/3
f 242/4/3 236/4/3 235/4/3
f 242/1/3 235/1/3 241/1/3
f 243/4/3 230/4/3 236/4/3
f 243/4/3 236/4/3 242/4/3
f 243/1/3 231/1/3 230/1/3
f 244/2/3 237/2/3 221/2/3
f 245/2/3 237/2/3 244/2/3
f 247/1/3 242/1/3 241/1/3
f 247/1/3 243/1/3 242/1/3
f 248/1/3 247/1/3 246/1/3
f 249/1/3 214/1/3 231/1/3
f 249/1/3 247/1/3 248/1/3
f 249/1/3 231/1/3 243/1/3
f 249/1/3 243/1/3 247/1/3
f 252/2/3 251/2/3 250/2/3
f 253/2/3 251/2/3 252/2/3
f 256/1/3 255/1/3 254/1/3
f 257/1/3 255/1/3 256/1/3
f 258/1/3 255/1/3 257/1/3
f 259/1/3 255/1/3 258/1/3
f 261/1/3 255/1/3 259/1/3
f 262/1/3 256/1/3 254/1/3
f 263/1/3 261/1/3 260/1/3
f 264/1/3 262/1/3 254/1/3
f 264/1/3 263/1/3 262/1/3
f 265/1/3 261/1/3 263/1/3
f 265/1/3 263/1/3 264/1/3
f 265/1/3 255/1/3 261/1/3
f 268/4/3 267/4/3 266/4/3
f 269/4/3 267/4/3 268/4/3
f 272/4/3 271/4/3 270/4/3
f 273/4/3 271/4/3 272/4/3
f 274/2/4 275/2/4 276/2/4
f 276/2/4 275/2/4 277/2/4
f 277/2/4 275/2/4 278/2/4
f 278/2/4 275/2/4 279/2/4
f 277/2/4 278/2/4 281/2/4
f 281/2/4 278/2/4 282/2/4
f 280/2/4 281/2/4 284/2/4
f 282/2/4 283/2/4 284/2/4
f 281/2/4 282/2/4 284/2/4
f 284/2/4 283/2/4 285/2/4
f 286/2/4 287/2/4 288/2/4
f 288/2/4 287/2/4 289/2/4
f 289/2/4 287/2/4 290/2/4
f 290/2/4 287/2/4 291/2/4
f 289/2/4 290/2/4 293/2/4
f 293/2/4 290/2/4 294/2/4
f 292/2/4 293/2/4 296/2/4
f 294/2/4 295/2/4 296/2/4
f 293/2/4 294/2/4 296/2/4
f 296/2/4 295/2/4 297/2/4
f 298/4/4 299/4/4 300/4/4
f 300/4/4 299/4/4 301/4/4
f 302/4/4 303/4/4 304/4/4
f 304/4/4 303/4/4 305/4/4
f 306/1/4 307/1/4 308/1/4
f 308/1/4 307/1/4 309/1/4
f 310/1/4 311/1/4 312/1/4
f 312/1/4 311/1/4 313/1/4
f 313/1/4 311/1/4 314/1/4
f 314/1/4 311/1/4 315/1/4
f 315/1/4 311/1/4 316/1/4
f 316/1/4 311/1/4 317/1/4
f 317/1/4 311/1/4 319/1/4
f 318/1/4 319/1/4 321/1/4
f 310/1/4 312/1/4 322/1/4
f 320/1/4 321/1/4 323/1/4
f 310/1/4 322/1/4 324/1/4
f 322/1/4 323/1/4 324/1/4
f 323/1/4 321/1/4 325/1/4
f 324/1/4 323/1/4 325/1/4
f 319/1/4 311/1/4 325/1/4
f 321/1/4 319/1/4 325/1/4
f 326/1/4 327/1/4 328/1/4
f 328/1/4 327/1/4 329/1/4
f 329/1/4 330/1/4 331/1/4
f 331/1/4 330/1/4 332/1/4
f 332/1/4 333/1/4 335/1/4
f 335/1/4 333/1/4 336/1/4
f 334/1/4 335/1/4 338/1/4
f 338/1/4 335/1/4 339/1/4
f 337/1/4 338/1/4 340/1/4
f 340/1/4 338/1/4 341/1/4
f 342/1/4 343/1/4 344/1/4
f 344/1/4 343/1/4 345/1/4
f 345/1/4 346/1/4 348/1/4
f 347/1/4 348/1/4 349/1/4
f 348/1/4 346/1/4 350/1/4
f 349/1/4 348/1/4 350/1/4
f 350/1/4 346/1/4 351/1/4
f 352/1/4 353/1/4 354/1/4
f 354/1/4 353/1/4 355/1/4
f 356/1/4 357/1/4 358/1/4
f 358/1/4 357/1/4 359/1/4
f 365/2/5 361/2/5 360/2/5
f 366/2/5 361/2/5 365/2/5
f 367/2/5 363/2/5 362/2/5
f 368/2/5 363/2/5 367/2/5
f 370/1/5 366/1/5 365/1/5
f 370/1/5 369/1/5 368/1/5
f 370/1/5 368/1/5 367/1/5
f 370/1/5 367/1/5 366/1/5
f 370/1/5 365/1/5 364/1/5
f 371/1/5 369/1/5 370/1/5
f 380/2/5 373/2/5 372/2/5
f 381/2/5 373/2/5 380/2/5
f 382/2/5 375/2/5 374/2/5
f 383/2/5 375/2/5 382/2/5
f 384/2/5 377/2/5 376/2/5
f 385/2/5 377/2/5 384/2/5
f 386/2/5 379/2/5 378/2/5
f 387/2/5 379/2/5 386/2/5
f 390/1/5 389/1/5 388/1/5
f 391/1/5 389/1/5 390/1/5
f 392/1/5 389/1/5 391/1/5
f 393/1/5 389/1/5 392/1/5
f 394/1/5 392/1/5 391/1/5
f 395/1/5 392/1/5 394/1/5
f 396/1/5 392/1/5 395/1/5
f 397/1/5 392/1/5 396/1/5
f 398/1/5 396/1/5 395/1/5
f 399/1/5 396/1/5 398/1/5
f 400/1/5 392/1/5 397/1/5
f 401/1/5 392/1/5 400/1/5
f 404/2/5 403/2/5 402/2/5
f 405/2/5 403/2/5 404/2/5
f 410/4/5 407/4/5 406/4/5
f 411/4/5 407/4/5 410/4/5
f 412/4/5 409/4/5 408/4/5
f 413/4/5 409/4/5 412/4/5
f 414/2/6 415/2/6 418/2/6
f 418/2/6 415/2/6 419/2/6
f 416/2/6 417/2/6 420/2/6
f 420/2/6 417/2/6 421/2/6
f 422/1/6 423/1/6 426/1/6
f 426/1/6 423/1/6 427/1/6
f 424/1/6 425/1/6 430/1/6
f 430/1/6 425/1/6 431/1/6
f 427/1/6 428/1/6 432/1/6
f 432/1/6 428/1/6 433/1/6
f 429/1/6 430/1/6 435/1/6
f 433/1/6 434/1/6 436/1/6
f 436/1/6 434/1/6 437/1/6
f 435/1/6 430/1/6 438/1/6
f 438/1/6 430/1/6 439/1/6
f 440/1/6 441/1/6 444/1/6
f 444/1/6 441/1/6 445/1/6
f 442/1/6 443/1/6 446/1/6
f 446/1/6 443/1/6 447/1/6
f 445/1/6 446/1/6 448/1/6
f 448/1/6 446/1/6 449/1/6
f 450/2/6 451/2/6 454/2/6
f 454/2/6 451/2/6 455/2/6
f 452/2/6 453/2/6 456/2/6
f 456/2/6 453/2/6 457/2/6
f 458/1/6 459/1/6 460/1/6
f 460/1/6 459/1/6 461/1/6
f 462/2/6 463/2/6 470/2/6
f 470/2/6 463/2/6 471/2/6
f 464/2/6 465/2/6 472/2/6
f 472/2/6 465/2/6 473/2/6
f 466/2/6 467/2/6 474/2/6
f 474/2/6 467/2/6 475/2/6
f 468/2/6 469/2/6 476/2/6
f 476/2/6 469/2/6 477/2/6
f 478/1/6 479/1/6 480/1/6
f 480/1/6 479/1/6 481/1/6
f 478/1/6 480/1/6 482/1/6
f 481/1/6 479/1/6 483/1/6
f 478/1/6 482/1/6 484/1/6
f 482/1/6 483/1/6 484/1/6
f 483/1/6 479/1/6 485/1/6
f 484/1/6 483/1/6 485/1/6
f 486/2/6 487/2/6 490/2/6
f 490/2/6 487/2/6 491/2/6
f 488/2/6 489/2/6 492/2/6
f 492/2/6 489/2/6 493/2/6
f 494/2/6 495/2/6 496/2/6
f 496/2/6 495/2/6 497/2/6
f 498/4/6 499/4/6 502/4/6
f 502/4/6 499/4/6 503/4/6
f 500/4/6 501/4/6 504/4/6
f 504/4/6 501/4/6 505/4/6
f 506/2/6 507/2/6 508/2/6
f 508/2/6 507/2/6 509/2/6
f 510/1/6 511/1/6 512/1/6
f 512/1/6 511/1/6 513/1/6
