# MagicaVoxel @ Ephtracy

# group
o 

# material
mtllib Duck.mtl
usemtl palette

# normals
vn -1 0 0
vn 1 0 0
vn 0 0 1
vn 0 0 -1
vn 0 -1 0
vn 0 1 0

# texcoords
vt 0.0683594 0.5
vt 0.560547 0.5
vt 0.892578 0.5
vt 0.958984 0.5
vt 0.994141 0.5

# verts
v -0.7 0.3 0
v -0.7 0.3 -0.8
v -0.7 0.5 0
v -0.7 0.5 -0.8
v -0.6 0 0
v -0.6 0 -0.4
v -0.6 0.1 0
v -0.6 0.1 -0.4
v -0.6 0.2 0.1
v -0.6 0.2 -0.9
v -0.6 0.3 0
v -0.6 0.3 -0.8
v -0.6 0.5 0
v -0.6 0.5 -0.8
v -0.6 0.6 0.1
v -0.6 0.6 -0.9
v -0.5 0 -0.4
v -0.5 0 -0.5
v -0.5 0.1 -0.3
v -0.5 0.1 -0.4
v -0.5 0.2 0.3
v -0.5 0.2 0.1
v -0.5 0.2 -0.3
v -0.5 0.2 -0.5
v -0.5 0.2 -0.9
v -0.5 0.2 -1
v -0.5 0.4 0.3
v -0.5 0.4 0.2
v -0.5 0.6 0.1
v -0.5 0.6 -0.9
v -0.5 0.7 0.2
v -0.5 0.7 -1
v -0.4 1.2 0
v -0.4 1.2 -0.1
v -0.4 1.3 0
v -0.4 1.3 -0.1
v -0.3 0 0
v -0.3 0 -0.1
v -0.3 0.1 0
v -0.3 0.1 -0.1
v -0.3 0.2 -1
v -0.3 0.2 -1.4
v -0.3 0.3 0.4
v -0.3 0.3 0.3
v -0.3 0.3 -1
v -0.3 0.3 -1.4
v -0.3 0.4 0.3
v -0.3 0.4 0.2
v -0.3 0.5 0.4
v -0.3 0.5 0.3
v -0.3 0.7 0.3
v -0.3 0.7 0.2
v -0.3 0.7 -0.3
v -0.3 0.9 0.2
v -0.3 0.9 -0.3
v -0.3 1.2 0
v -0.3 1.2 -0.1
v -0.3 1.3 0
v -0.3 1.3 -0.1
v -0.3 1.5 0.2
v -0.3 1.5 -0.3
v -0.2 0.2 -1.4
v -0.2 0.2 -1.7
v -0.2 0.3 -1
v -0.2 0.3 -1.4
v -0.2 0.3 -1.7
v -0.2 0.4 -1
v -0.2 0.4 -1.4
v -0.2 0.5 0.4
v -0.2 0.5 0.3
v -0.2 0.6 0.4
v -0.2 0.6 0.3
v -0.2 1.1 0.5
v -0.2 1.1 0.2
v -0.2 1.2 0.5
v -0.2 1.2 0.2
v -0.1 0.3 -1.4
v -0.1 0.3 -1.5
v -0.1 0.4 -1
v -0.1 0.4 -1.2
v -0.1 0.4 -1.4
v -0.1 0.4 -1.5
v -0.1 0.5 -1
v -0.1 0.5 -1.2
v -0.1 1.2 0.5
v -0.1 1.2 0.2
v -0.1 1.3 0.5
v -0.1 1.3 0.3
v -0.1 1.4 0.3
v -0.1 1.4 0.2
v 0.1 0 0
v 0.1 0 -0.4
v 0.1 0.1 0
v 0.1 0.1 -0.4
v 0.2 0 -0.4
v 0.2 0 -0.5
v 0.2 0.1 -0.3
v 0.2 0.1 -0.4
v 0.2 0.2 -0.3
v 0.2 0.2 -0.5
v 0.4 0 0
v 0.4 0 -0.1
v 0.4 0.1 0
v 0.4 0.1 -0.1
v -0.5 0 0
v -0.5 0 -0.1
v -0.5 0.1 0
v -0.5 0.1 -0.1
v -0.3 0 -0.4
v -0.3 0 -0.5
v -0.3 0.1 -0.3
v -0.3 0.1 -0.4
v -0.3 0.2 -0.3
v -0.3 0.2 -0.5
v -0.2 0 0
v -0.2 0 -0.4
v -0.2 0.1 0
v -0.2 0.1 -0.4
v 0.1 0.3 -1.4
v 0.1 0.3 -1.5
v 0.1 0.4 -1
v 0.1 0.4 -1.2
v 0.1 0.4 -1.4
v 0.1 0.4 -1.5
v 0.1 0.5 -1
v 0.1 0.5 -1.2
v 0.1 1.2 0.5
v 0.1 1.2 0.2
v 0.1 1.3 0.5
v 0.1 1.3 0.3
v 0.1 1.4 0.3
v 0.1 1.4 0.2
v 0.2 0 0
v 0.2 0 -0.1
v 0.2 0.1 0
v 0.2 0.1 -0.1
v 0.2 0.2 -1.4
v 0.2 0.2 -1.7
v 0.2 0.3 -1
v 0.2 0.3 -1.4
v 0.2 0.3 -1.7
v 0.2 0.4 -1
v 0.2 0.4 -1.4
v 0.2 0.5 0.4
v 0.2 0.5 0.3
v 0.2 0.6 0.4
v 0.2 0.6 0.3
v 0.2 1.1 0.5
v 0.2 1.1 0.2
v 0.2 1.2 0.5
v 0.2 1.2 0.2
v 0.3 0.2 -1
v 0.3 0.2 -1.4
v 0.3 0.3 0.4
v 0.3 0.3 0.3
v 0.3 0.3 -1
v 0.3 0.3 -1.4
v 0.3 0.4 0.3
v 0.3 0.4 0.2
v 0.3 0.5 0.4
v 0.3 0.5 0.3
v 0.3 0.7 0.3
v 0.3 0.7 0.2
v 0.3 0.7 -0.3
v 0.3 0.9 0.2
v 0.3 0.9 -0.3
v 0.3 1.2 0
v 0.3 1.2 -0.1
v 0.3 1.3 0
v 0.3 1.3 -0.1
v 0.3 1.5 0.2
v 0.3 1.5 -0.3
v 0.4 0 -0.4
v 0.4 0 -0.5
v 0.4 0.1 -0.3
v 0.4 0.1 -0.4
v 0.4 0.2 -0.3
v 0.4 0.2 -0.5
v 0.4 1.2 0
v 0.4 1.2 -0.1
v 0.4 1.3 0
v 0.4 1.3 -0.1
v 0.5 0 0
v 0.5 0 -0.4
v 0.5 0.1 0
v 0.5 0.1 -0.4
v 0.5 0.2 0.3
v 0.5 0.2 0.1
v 0.5 0.2 -0.9
v 0.5 0.2 -1
v 0.5 0.4 0.3
v 0.5 0.4 0.2
v 0.5 0.6 0.1
v 0.5 0.6 -0.9
v 0.5 0.7 0.2
v 0.5 0.7 -1
v 0.6 0.2 0.1
v 0.6 0.2 -0.9
v 0.6 0.3 0
v 0.6 0.3 -0.8
v 0.6 0.5 0
v 0.6 0.5 -0.8
v 0.6 0.6 0.1
v 0.6 0.6 -0.9
v 0.7 0.3 0
v 0.7 0.3 -0.8
v 0.7 0.5 0
v 0.7 0.5 -0.8
v -0.2 1.1 0.5
v -0.2 1.2 0.5
v -0.1 1.2 0.5
v -0.1 1.3 0.5
v 0.1 1.2 0.5
v 0.1 1.3 0.5
v 0.2 1.1 0.5
v 0.2 1.2 0.5
v -0.3 0.3 0.4
v -0.3 0.5 0.4
v -0.2 0.5 0.4
v -0.2 0.6 0.4
v 0.2 0.5 0.4
v 0.2 0.6 0.4
v 0.3 0.3 0.4
v 0.3 0.5 0.4
v -0.5 0.2 0.3
v -0.5 0.4 0.3
v -0.3 0.3 0.3
v -0.3 0.4 0.3
v -0.3 0.5 0.3
v -0.3 0.7 0.3
v -0.2 0.5 0.3
v -0.2 0.6 0.3
v -0.1 1.3 0.3
v -0.1 1.4 0.3
v 0.1 1.3 0.3
v 0.1 1.4 0.3
v 0.2 0.5 0.3
v 0.2 0.6 0.3
v 0.3 0.3 0.3
v 0.3 0.4 0.3
v 0.3 0.5 0.3
v 0.3 0.7 0.3
v 0.5 0.2 0.3
v 0.5 0.4 0.3
v -0.5 0.4 0.2
v -0.5 0.7 0.2
v -0.3 0.4 0.2
v -0.3 0.7 0.2
v -0.3 0.9 0.2
v -0.3 1.5 0.2
v -0.2 1.1 0.2
v -0.2 1.2 0.2
v -0.1 1.2 0.2
v -0.1 1.4 0.2
v 0.1 1.2 0.2
v 0.1 1.4 0.2
v 0.2 1.1 0.2
v 0.2 1.2 0.2
v 0.3 0.4 0.2
v 0.3 0.7 0.2
v 0.3 0.9 0.2
v 0.3 1.5 0.2
v 0.5 0.4 0.2
v 0.5 0.7 0.2
v -0.6 0.2 0.1
v -0.6 0.6 0.1
v -0.5 0.2 0.1
v -0.5 0.6 0.1
v 0.5 0.2 0.1
v 0.5 0.6 0.1
v 0.6 0.2 0.1
v 0.6 0.6 0.1
v -0.7 0.3 0
v -0.7 0.5 0
v -0.6 0 0
v -0.6 0.1 0
v -0.6 0.3 0
v -0.6 0.5 0
v -0.5 0 0
v -0.5 0.1 0
v -0.4 1.2 0
v -0.4 1.3 0
v -0.3 0 0
v -0.3 0.1 0
v -0.3 1.2 0
v -0.3 1.3 0
v -0.2 0 0
v -0.2 0.1 0
v 0.1 0 0
v 0.1 0.1 0
v 0.2 0 0
v 0.2 0.1 0
v 0.3 1.2 0
v 0.3 1.3 0
v 0.4 0 0
v 0.4 0.1 0
v 0.4 1.2 0
v 0.4 1.3 0
v 0.5 0 0
v 0.5 0.1 0
v 0.6 0.3 0
v 0.6 0.5 0
v 0.7 0.3 0
v 0.7 0.5 0
v -0.5 0 -0.1
v -0.5 0.1 -0.1
v -0.3 0 -0.1
v -0.3 0.1 -0.1
v 0.2 0 -0.1
v 0.2 0.1 -0.1
v 0.4 0 -0.1
v 0.4 0.1 -0.1
v -0.5 0.1 -0.3
v -0.5 0.2 -0.3
v -0.3 0.1 -0.3
v -0.3 0.2 -0.3
v 0.2 0.1 -0.3
v 0.2 0.2 -0.3
v 0.4 0.1 -0.3
v 0.4 0.2 -0.3
v -0.4 1.2 -0.1
v -0.4 1.3 -0.1
v -0.3 1.2 -0.1
v -0.3 1.3 -0.1
v 0.3 1.2 -0.1
v 0.3 1.3 -0.1
v 0.4 1.2 -0.1
v 0.4 1.3 -0.1
v -0.3 0.7 -0.3
v -0.3 0.9 -0.3
v -0.3 1.5 -0.3
v 0.3 0.7 -0.3
v 0.3 0.9 -0.3
v 0.3 1.5 -0.3
v -0.6 0 -0.4
v -0.6 0.1 -0.4
v -0.5 0 -0.4
v -0.5 0.1 -0.4
v -0.3 0 -0.4
v -0.3 0.1 -0.4
v -0.2 0 -0.4
v -0.2 0.1 -0.4
v 0.1 0 -0.4
v 0.1 0.1 -0.4
v 0.2 0 -0.4
v 0.2 0.1 -0.4
v 0.4 0 -0.4
v 0.4 0.1 -0.4
v 0.5 0 -0.4
v 0.5 0.1 -0.4
v -0.5 0 -0.5
v -0.5 0.2 -0.5
v -0.3 0 -0.5
v -0.3 0.2 -0.5
v 0.2 0 -0.5
v 0.2 0.2 -0.5
v 0.4 0 -0.5
v 0.4 0.2 -0.5
v -0.7 0.3 -0.8
v -0.7 0.5 -0.8
v -0.6 0.3 -0.8
v -0.6 0.5 -0.8
v 0.6 0.3 -0.8
v 0.6 0.5 -0.8
v 0.7 0.3 -0.8
v 0.7 0.5 -0.8
v -0.6 0.2 -0.9
v -0.6 0.6 -0.9
v -0.5 0.2 -0.9
v -0.5 0.6 -0.9
v 0.5 0.2 -0.9
v 0.5 0.6 -0.9
v 0.6 0.2 -0.9
v 0.6 0.6 -0.9
v -0.5 0.2 -1
v -0.5 0.7 -1
v -0.3 0.2 -1
v -0.3 0.3 -1
v -0.2 0.3 -1
v -0.2 0.4 -1
v -0.1 0.4 -1
v -0.1 0.5 -1
v 0.1 0.4 -1
v 0.1 0.5 -1
v 0.2 0.3 -1
v 0.2 0.4 -1
v 0.3 0.2 -1
v 0.3 0.3 -1
v 0.5 0.2 -1
v 0.5 0.7 -1
v -0.1 0.4 -1.2
v -0.1 0.5 -1.2
v 0.1 0.4 -1.2
v 0.1 0.5 -1.2
v -0.3 0.2 -1.4
v -0.3 0.3 -1.4
v -0.2 0.2 -1.4
v -0.2 0.3 -1.4
v -0.2 0.4 -1.4
v -0.1 0.3 -1.4
v -0.1 0.4 -1.4
v 0.1 0.3 -1.4
v 0.1 0.4 -1.4
v 0.2 0.2 -1.4
v 0.2 0.3 -1.4
v 0.2 0.4 -1.4
v 0.3 0.2 -1.4
v 0.3 0.3 -1.4
v -0.1 0.3 -1.5
v -0.1 0.4 -1.5
v 0.1 0.3 -1.5
v 0.1 0.4 -1.5
v -0.2 0.2 -1.7
v -0.2 0.3 -1.7
v 0.2 0.2 -1.7
v 0.2 0.3 -1.7
v -0.6 0 0
v -0.5 0 0
v -0.3 0 0
v -0.2 0 0
v 0.1 0 0
v 0.2 0 0
v 0.4 0 0
v 0.5 0 0
v -0.5 0 -0.1
v -0.3 0 -0.1
v 0.2 0 -0.1
v 0.4 0 -0.1
v -0.6 0 -0.4
v -0.5 0 -0.4
v -0.3 0 -0.4
v -0.2 0 -0.4
v 0.1 0 -0.4
v 0.2 0 -0.4
v 0.4 0 -0.4
v 0.5 0 -0.4
v -0.5 0 -0.5
v -0.3 0 -0.5
v 0.2 0 -0.5
v 0.4 0 -0.5
v -0.5 0.2 0.3
v 0.5 0.2 0.3
v -0.6 0.2 0.1
v -0.5 0.2 0.1
v 0.5 0.2 0.1
v 0.6 0.2 0.1
v -0.5 0.2 -0.3
v -0.3 0.2 -0.3
v 0.2 0.2 -0.3
v 0.4 0.2 -0.3
v -0.5 0.2 -0.5
v -0.3 0.2 -0.5
v 0.2 0.2 -0.5
v 0.4 0.2 -0.5
v -0.6 0.2 -0.9
v -0.5 0.2 -0.9
v 0.5 0.2 -0.9
v 0.6 0.2 -0.9
v -0.5 0.2 -1
v -0.3 0.2 -1
v 0.3 0.2 -1
v 0.5 0.2 -1
v -0.3 0.2 -1.4
v -0.2 0.2 -1.4
v 0.2 0.2 -1.4
v 0.3 0.2 -1.4
v -0.2 0.2 -1.7
v 0.2 0.2 -1.7
v -0.3 0.3 0.4
v 0.3 0.3 0.4
v -0.3 0.3 0.3
v 0.3 0.3 0.3
v -0.7 0.3 0
v -0.6 0.3 0
v 0.6 0.3 0
v 0.7 0.3 0
v -0.7 0.3 -0.8
v -0.6 0.3 -0.8
v 0.6 0.3 -0.8
v 0.7 0.3 -0.8
v -0.2 1.1 0.5
v 0.2 1.1 0.5
v -0.2 1.1 0.2
v 0.2 1.1 0.2
v -0.4 1.2 0
v -0.3 1.2 0
v 0.3 1.2 0
v 0.4 1.2 0
v -0.4 1.2 -0.1
v -0.3 1.2 -0.1
v 0.3 1.2 -0.1
v 0.4 1.2 -0.1
v -0.6 0.1 0
v -0.5 0.1 0
v -0.3 0.1 0
v -0.2 0.1 0
v 0.1 0.1 0
v 0.2 0.1 0
v 0.4 0.1 0
v 0.5 0.1 0
v -0.5 0.1 -0.1
v -0.3 0.1 -0.1
v 0.2 0.1 -0.1
v 0.4 0.1 -0.1
v -0.5 0.1 -0.3
v -0.3 0.1 -0.3
v 0.2 0.1 -0.3
v 0.4 0.1 -0.3
v -0.6 0.1 -0.4
v -0.5 0.1 -0.4
v -0.3 0.1 -0.4
v -0.2 0.1 -0.4
v 0.1 0.1 -0.4
v 0.2 0.1 -0.4
v 0.4 0.1 -0.4
v 0.5 0.1 -0.4
v -0.3 0.3 -1
v -0.2 0.3 -1
v 0.2 0.3 -1
v 0.3 0.3 -1
v -0.3 0.3 -1.4
v -0.2 0.3 -1.4
v -0.1 0.3 -1.4
v 0.1 0.3 -1.4
v 0.2 0.3 -1.4
v 0.3 0.3 -1.4
v -0.1 0.3 -1.5
v 0.1 0.3 -1.5
v -0.2 0.3 -1.7
v 0.2 0.3 -1.7
v -0.5 0.4 0.3
v -0.3 0.4 0.3
v 0.3 0.4 0.3
v 0.5 0.4 0.3
v -0.5 0.4 0.2
v -0.3 0.4 0.2
v 0.3 0.4 0.2
v 0.5 0.4 0.2
v -0.2 0.4 -1
v -0.1 0.4 -1
v 0.1 0.4 -1
v 0.2 0.4 -1
v -0.1 0.4 -1.2
v 0.1 0.4 -1.2
v -0.2 0.4 -1.4
v -0.1 0.4 -1.4
v 0.1 0.4 -1.4
v 0.2 0.4 -1.4
v -0.1 0.4 -1.5
v 0.1 0.4 -1.5
v -0.3 0.5 0.4
v -0.2 0.5 0.4
v 0.2 0.5 0.4
v 0.3 0.5 0.4
v -0.3 0.5 0.3
v -0.2 0.5 0.3
v 0.2 0.5 0.3
v 0.3 0.5 0.3
v -0.7 0.5 0
v -0.6 0.5 0
v 0.6 0.5 0
v 0.7 0.5 0
v -0.7 0.5 -0.8
v -0.6 0.5 -0.8
v 0.6 0.5 -0.8
v 0.7 0.5 -0.8
v -0.1 0.5 -1
v 0.1 0.5 -1
v -0.1 0.5 -1.2
v 0.1 0.5 -1.2
v -0.2 0.6 0.4
v 0.2 0.6 0.4
v -0.2 0.6 0.3
v 0.2 0.6 0.3
v -0.6 0.6 0.1
v -0.5 0.6 0.1
v 0.5 0.6 0.1
v 0.6 0.6 0.1
v -0.6 0.6 -0.9
v -0.5 0.6 -0.9
v 0.5 0.6 -0.9
v 0.6 0.6 -0.9
v -0.3 0.7 0.3
v 0.3 0.7 0.3
v -0.5 0.7 0.2
v -0.3 0.7 0.2
v 0.3 0.7 0.2
v 0.5 0.7 0.2
v -0.3 0.7 -0.3
v 0.3 0.7 -0.3
v -0.5 0.7 -1
v 0.5 0.7 -1
v -0.2 1.2 0.5
v -0.1 1.2 0.5
v 0.1 1.2 0.5
v 0.2 1.2 0.5
v -0.2 1.2 0.2
v -0.1 1.2 0.2
v 0.1 1.2 0.2
v 0.2 1.2 0.2
v -0.1 1.3 0.5
v 0.1 1.3 0.5
v -0.1 1.3 0.3
v 0.1 1.3 0.3
v -0.4 1.3 0
v -0.3 1.3 0
v 0.3 1.3 0
v 0.4 1.3 0
v -0.4 1.3 -0.1
v -0.3 1.3 -0.1
v 0.3 1.3 -0.1
v 0.4 1.3 -0.1
v -0.1 1.4 0.3
v 0.1 1.4 0.3
v -0.1 1.4 0.2
v 0.1 1.4 0.2
v -0.3 1.5 0.2
v 0.3 1.5 0.2
v -0.3 1.5 -0.3
v 0.3 1.5 -0.3

# faces
f 3/2/1 2/2/1 1/2/1
f 4/2/1 2/2/1 3/2/1
f 7/1/1 6/1/1 5/1/1
f 8/1/1 6/1/1 7/1/1
f 11/2/1 10/2/1 9/2/1
f 12/2/1 10/2/1 11/2/1
f 13/2/1 11/2/1 9/2/1
f 14/2/1 10/2/1 12/2/1
f 15/2/1 13/2/1 9/2/1
f 15/2/1 14/2/1 13/2/1
f 16/2/1 10/2/1 14/2/1
f 16/2/1 14/2/1 15/2/1
f 20/1/1 18/1/1 17/1/1
f 23/1/1 20/1/1 19/1/1
f 24/1/1 18/1/1 20/1/1
f 24/1/1 20/1/1 23/1/1
f 27/2/1 22/2/1 21/2/1
f 28/2/1 22/2/1 27/2/1
f 29/2/1 22/2/1 28/2/1
f 30/2/1 26/2/1 25/2/1
f 31/2/1 29/2/1 28/2/1
f 31/2/1 30/2/1 29/2/1
f 32/2/1 26/2/1 30/2/1
f 32/2/1 30/2/1 31/2/1
f 35/5/1 34/5/1 33/5/1
f 36/5/1 34/5/1 35/5/1
f 39/1/1 38/1/1 37/1/1
f 40/1/1 38/1/1 39/1/1
f 45/2/1 42/2/1 41/2/1
f 46/2/1 42/2/1 45/2/1
f 47/2/1 44/2/1 43/2/1
f 49/2/1 47/2/1 43/2/1
f 49/2/1 48/2/1 47/2/1
f 50/2/1 48/2/1 49/2/1
f 51/2/1 48/2/1 50/2/1
f 52/2/1 48/2/1 51/2/1
f 54/4/1 53/4/1 52/4/1
f 55/4/1 53/4/1 54/4/1
f 56/3/1 55/3/1 54/3/1
f 57/3/1 55/3/1 56/3/1
f 58/3/1 56/3/1 54/3/1
f 59/3/1 55/3/1 57/3/1
f 60/3/1 58/3/1 54/3/1
f 60/3/1 59/3/1 58/3/1
f 61/3/1 55/3/1 59/3/1
f 61/3/1 59/3/1 60/3/1
f 65/2/1 63/2/1 62/2/1
f 66/2/1 63/2/1 65/2/1
f 67/2/1 65/2/1 64/2/1
f 68/2/1 65/2/1 67/2/1
f 71/2/1 70/2/1 69/2/1
f 72/2/1 70/2/1 71/2/1
f 75/1/1 74/1/1 73/1/1
f 76/1/1 74/1/1 75/1/1
f 81/2/1 78/2/1 77/2/1
f 82/2/1 78/2/1 81/2/1
f 83/2/1 80/2/1 79/2/1
f 84/2/1 80/2/1 83/2/1
f 87/1/1 86/1/1 85/1/1
f 88/1/1 86/1/1 87/1/1
f 89/1/1 86/1/1 88/1/1
f 90/1/1 86/1/1 89/1/1
f 93/1/1 92/1/1 91/1/1
f 94/1/1 92/1/1 93/1/1
f 98/1/1 96/1/1 95/1/1
f 99/1/1 98/1/1 97/1/1
f 100/1/1 96/1/1 98/1/1
f 100/1/1 98/1/1 99/1/1
f 103/1/1 102/1/1 101/1/1
f 104/1/1 102/1/1 103/1/1
f 105/1/2 106/1/2 107/1/2
f 107/1/2 106/1/2 108/1/2
f 109/1/2 110/1/2 112/1/2
f 111/1/2 112/1/2 113/1/2
f 112/1/2 110/1/2 114/1/2
f 113/1/2 112/1/2 114/1/2
f 115/1/2 116/1/2 117/1/2
f 117/1/2 116/1/2 118/1/2
f 119/2/2 120/2/2 123/2/2
f 123/2/2 120/2/2 124/2/2
f 121/2/2 122/2/2 125/2/2
f 125/2/2 122/2/2 126/2/2
f 127/1/2 128/1/2 129/1/2
f 129/1/2 128/1/2 130/1/2
f 130/1/2 128/1/2 131/1/2
f 131/1/2 128/1/2 132/1/2
f 133/1/2 134/1/2 135/1/2
f 135/1/2 134/1/2 136/1/2
f 137/2/2 138/2/2 140/2/2
f 140/2/2 138/2/2 141/2/2
f 139/2/2 140/2/2 142/2/2
f 142/2/2 140/2/2 143/2/2
f 144/2/2 145/2/2 146/2/2
f 146/2/2 145/2/2 147/2/2
f 148/1/2 149/1/2 150/1/2
f 150/1/2 149/1/2 151/1/2
f 152/2/2 153/2/2 156/2/2
f 156/2/2 153/2/2 157/2/2
f 154/2/2 155/2/2 158/2/2
f 154/2/2 158/2/2 160/2/2
f 158/2/2 159/2/2 160/2/2
f 160/2/2 159/2/2 161/2/2
f 161/2/2 159/2/2 162/2/2
f 162/2/2 159/2/2 163/2/2
f 163/4/2 164/4/2 165/4/2
f 165/4/2 164/4/2 166/4/2
f 165/3/2 166/3/2 167/3/2
f 167/3/2 166/3/2 168/3/2
f 165/3/2 167/3/2 169/3/2
f 168/3/2 166/3/2 170/3/2
f 165/3/2 169/3/2 171/3/2
f 169/3/2 170/3/2 171/3/2
f 170/3/2 166/3/2 172/3/2
f 171/3/2 170/3/2 172/3/2
f 173/1/2 174/1/2 176/1/2
f 175/1/2 176/1/2 177/1/2
f 176/1/2 174/1/2 178/1/2
f 177/1/2 176/1/2 178/1/2
f 179/5/2 180/5/2 181/5/2
f 181/5/2 180/5/2 182/5/2
f 183/1/2 184/1/2 185/1/2
f 185/1/2 184/1/2 186/1/2
f 187/2/2 188/2/2 191/2/2
f 191/2/2 188/2/2 192/2/2
f 192/2/2 188/2/2 193/2/2
f 189/2/2 190/2/2 194/2/2
f 192/2/2 193/2/2 195/2/2
f 193/2/2 194/2/2 195/2/2
f 194/2/2 190/2/2 196/2/2
f 195/2/2 194/2/2 196/2/2
f 197/2/2 198/2/2 199/2/2
f 199/2/2 198/2/2 200/2/2
f 197/2/2 199/2/2 201/2/2
f 200/2/2 198/2/2 202/2/2
f 197/2/2 201/2/2 203/2/2
f 201/2/2 202/2/2 203/2/2
f 202/2/2 198/2/2 204/2/2
f 203/2/2 202/2/2 204/2/2
f 205/2/2 206/2/2 207/2/2
f 207/2/2 206/2/2 208/2/2
f 211/1/3 210/1/3 209/1/3
f 213/1/3 211/1/3 209/1/3
f 213/1/3 212/1/3 211/1/3
f 214/1/3 212/1/3 213/1/3
f 215/1/3 213/1/3 209/1/3
f 216/1/3 213/1/3 215/1/3
f 219/2/3 218/2/3 217/2/3
f 221/2/3 219/2/3 217/2/3
f 221/2/3 220/2/3 219/2/3
f 222/2/3 220/2/3 221/2/3
f 223/2/3 221/2/3 217/2/3
f 224/2/3 221/2/3 223/2/3
f 227/2/3 226/2/3 225/2/3
f 228/2/3 226/2/3 227/2/3
f 231/2/3 230/2/3 229/2/3
f 232/2/3 230/2/3 231/2/3
f 235/1/3 234/1/3 233/1/3
f 236/1/3 234/1/3 235/1/3
f 238/2/3 230/2/3 232/2/3
f 239/2/3 227/2/3 225/2/3
f 241/2/3 238/2/3 237/2/3
f 242/2/3 230/2/3 238/2/3
f 242/2/3 238/2/3 241/2/3
f 243/2/3 240/2/3 239/2/3
f 243/2/3 239/2/3 225/2/3
f 244/2/3 240/2/3 243/2/3
f 247/2/3 246/2/3 245/2/3
f 248/2/3 246/2/3 247/2/3
f 251/3/3 250/3/3 249/3/3
f 252/3/3 250/3/3 251/3/3
f 253/3/3 250/3/3 252/3/3
f 254/3/3 250/3/3 253/3/3
f 256/3/3 250/3/3 254/3/3
f 257/3/3 251/3/3 249/3/3
f 258/3/3 256/3/3 255/3/3
f 260/4/3 249/4/3 248/4/3
f 261/3/3 258/3/3 257/3/3
f 261/3/3 257/3/3 249/3/3
f 261/4/3 249/4/3 260/4/3
f 262/3/3 250/3/3 256/3/3
f 262/3/3 258/3/3 261/3/3
f 262/3/3 256/3/3 258/3/3
f 263/2/3 260/2/3 259/2/3
f 264/2/3 260/2/3 263/2/3
f 267/2/3 266/2/3 265/2/3
f 268/2/3 266/2/3 267/2/3
f 271/2/3 270/2/3 269/2/3
f 272/2/3 270/2/3 271/2/3
f 277/2/3 274/2/3 273/2/3
f 278/2/3 274/2/3 277/2/3
f 279/1/3 276/1/3 275/1/3
f 280/1/3 276/1/3 279/1/3
f 285/5/3 282/5/3 281/5/3
f 286/5/3 282/5/3 285/5/3
f 287/1/3 284/1/3 283/1/3
f 288/1/3 284/1/3 287/1/3
f 291/1/3 290/1/3 289/1/3
f 292/1/3 290/1/3 291/1/3
f 297/5/3 294/5/3 293/5/3
f 298/5/3 294/5/3 297/5/3
f 299/1/3 296/1/3 295/1/3
f 300/1/3 296/1/3 299/1/3
f 303/2/3 302/2/3 301/2/3
f 304/2/3 302/2/3 303/2/3
f 307/1/3 306/1/3 305/1/3
f 308/1/3 306/1/3 307/1/3
f 311/1/3 310/1/3 309/1/3
f 312/1/3 310/1/3 311/1/3
f 315/1/3 314/1/3 313/1/3
f 316/1/3 314/1/3 315/1/3
f 319/1/3 318/1/3 317/1/3
f 320/1/3 318/1/3 319/1/3
f 321/5/4 322/5/4 323/5/4
f 323/5/4 322/5/4 324/5/4
f 325/5/4 326/5/4 327/5/4
f 327/5/4 326/5/4 328/5/4
f 329/4/4 330/4/4 332/4/4
f 330/3/4 331/3/4 333/3/4
f 332/4/4 330/4/4 333/4/4
f 333/3/4 331/3/4 334/3/4
f 335/1/4 336/1/4 337/1/4
f 337/1/4 336/1/4 338/1/4
f 339/1/4 340/1/4 341/1/4
f 341/1/4 340/1/4 342/1/4
f 343/1/4 344/1/4 345/1/4
f 345/1/4 344/1/4 346/1/4
f 347/1/4 348/1/4 349/1/4
f 349/1/4 348/1/4 350/1/4
f 351/1/4 352/1/4 353/1/4
f 353/1/4 352/1/4 354/1/4
f 355/1/4 356/1/4 357/1/4
f 357/1/4 356/1/4 358/1/4
f 359/2/4 360/2/4 361/2/4
f 361/2/4 360/2/4 362/2/4
f 363/2/4 364/2/4 365/2/4
f 365/2/4 364/2/4 366/2/4
f 367/2/4 368/2/4 369/2/4
f 369/2/4 368/2/4 370/2/4
f 371/2/4 372/2/4 373/2/4
f 373/2/4 372/2/4 374/2/4
f 375/2/4 376/2/4 377/2/4
f 377/2/4 376/2/4 378/2/4
f 378/2/4 376/2/4 379/2/4
f 379/2/4 376/2/4 380/2/4
f 380/2/4 376/2/4 381/2/4
f 381/2/4 376/2/4 382/2/4
f 382/2/4 376/2/4 384/2/4
f 383/2/4 384/2/4 386/2/4
f 385/2/4 386/2/4 388/2/4
f 387/2/4 388/2/4 389/2/4
f 384/2/4 376/2/4 390/2/4
f 389/2/4 388/2/4 390/2/4
f 386/2/4 384/2/4 390/2/4
f 388/2/4 386/2/4 390/2/4
f 391/2/4 392/2/4 393/2/4
f 393/2/4 392/2/4 394/2/4
f 395/2/4 396/2/4 397/2/4
f 397/2/4 396/2/4 398/2/4
f 398/2/4 399/2/4 400/2/4
f 400/2/4 399/2/4 401/2/4
f 402/2/4 403/2/4 405/2/4
f 405/2/4 403/2/4 406/2/4
f 404/2/4 405/2/4 407/2/4
f 407/2/4 405/2/4 408/2/4
f 409/2/4 410/2/4 411/2/4
f 411/2/4 410/2/4 412/2/4
f 413/2/4 414/2/4 415/2/4
f 415/2/4 414/2/4 416/2/4
f 425/1/5 418/1/5 417/1/5
f 426/1/5 420/1/5 419/1/5
f 427/1/5 422/1/5 421/1/5
f 428/1/5 424/1/5 423/1/5
f 429/1/5 425/1/5 417/1/5
f 429/1/5 426/1/5 425/1/5
f 430/1/5 426/1/5 429/1/5
f 431/1/5 420/1/5 426/1/5
f 431/1/5 426/1/5 430/1/5
f 432/1/5 420/1/5 431/1/5
f 433/1/5 427/1/5 421/1/5
f 433/1/5 428/1/5 427/1/5
f 434/1/5 428/1/5 433/1/5
f 435/1/5 424/1/5 428/1/5
f 435/1/5 428/1/5 434/1/5
f 436/1/5 424/1/5 435/1/5
f 437/1/5 431/1/5 430/1/5
f 438/1/5 431/1/5 437/1/5
f 439/1/5 435/1/5 434/1/5
f 440/1/5 435/1/5 439/1/5
f 444/2/5 442/2/5 441/2/5
f 445/2/5 442/2/5 444/2/5
f 447/2/5 444/2/5 443/2/5
f 447/2/5 446/2/5 445/2/5
f 447/2/5 445/2/5 444/2/5
f 448/2/5 446/2/5 447/2/5
f 449/2/5 446/2/5 448/2/5
f 450/2/5 446/2/5 449/2/5
f 451/2/5 447/2/5 443/2/5
f 452/2/5 449/2/5 448/2/5
f 453/2/5 449/2/5 452/2/5
f 454/2/5 446/2/5 450/2/5
f 455/2/5 453/2/5 452/2/5
f 455/2/5 454/2/5 453/2/5
f 455/2/5 451/2/5 443/2/5
f 455/2/5 452/2/5 451/2/5
f 456/2/5 454/2/5 455/2/5
f 457/2/5 446/2/5 454/2/5
f 457/2/5 454/2/5 456/2/5
f 458/2/5 446/2/5 457/2/5
f 459/2/5 457/2/5 456/2/5
f 460/2/5 457/2/5 459/2/5
f 461/2/5 457/2/5 460/2/5
f 462/2/5 457/2/5 461/2/5
f 463/2/5 461/2/5 460/2/5
f 464/2/5 461/2/5 463/2/5
f 465/2/5 461/2/5 464/2/5
f 466/2/5 461/2/5 465/2/5
f 467/2/5 465/2/5 464/2/5
f 468/2/5 465/2/5 467/2/5
f 471/2/5 470/2/5 469/2/5
f 472/2/5 470/2/5 471/2/5
f 477/2/5 474/2/5 473/2/5
f 478/2/5 474/2/5 477/2/5
f 479/2/5 476/2/5 475/2/5
f 480/2/5 476/2/5 479/2/5
f 483/1/5 482/1/5 481/1/5
f 484/1/5 482/1/5 483/1/5
f 489/5/5 486/5/5 485/5/5
f 490/5/5 486/5/5 489/5/5
f 491/5/5 488/5/5 487/5/5
f 492/5/5 488/5/5 491/5/5
f 493/1/6 494/1/6 501/1/6
f 495/1/6 496/1/6 502/1/6
f 497/1/6 498/1/6 503/1/6
f 499/1/6 500/1/6 504/1/6
f 493/1/6 501/1/6 505/1/6
f 501/1/6 502/1/6 505/1/6
f 502/1/6 496/1/6 506/1/6
f 505/1/6 502/1/6 506/1/6
f 497/1/6 503/1/6 507/1/6
f 503/1/6 504/1/6 507/1/6
f 504/1/6 500/1/6 508/1/6
f 507/1/6 504/1/6 508/1/6
f 493/1/6 505/1/6 509/1/6
f 509/1/6 505/1/6 510/1/6
f 506/1/6 496/1/6 511/1/6
f 511/1/6 496/1/6 512/1/6
f 497/1/6 507/1/6 513/1/6
f 513/1/6 507/1/6 514/1/6
f 508/1/6 500/1/6 515/1/6
f 515/1/6 500/1/6 516/1/6
f 517/2/6 518/2/6 521/2/6
f 521/2/6 518/2/6 522/2/6
f 519/2/6 520/2/6 525/2/6
f 525/2/6 520/2/6 526/2/6
f 522/2/6 523/2/6 527/2/6
f 524/2/6 525/2/6 528/2/6
f 522/2/6 527/2/6 529/2/6
f 527/2/6 528/2/6 529/2/6
f 528/2/6 525/2/6 530/2/6
f 529/2/6 528/2/6 530/2/6
f 531/2/6 532/2/6 535/2/6
f 535/2/6 532/2/6 536/2/6
f 533/2/6 534/2/6 537/2/6
f 537/2/6 534/2/6 538/2/6
f 539/2/6 540/2/6 543/2/6
f 541/2/6 542/2/6 544/2/6
f 539/2/6 543/2/6 545/2/6
f 543/2/6 544/2/6 545/2/6
f 545/2/6 544/2/6 546/2/6
f 544/2/6 542/2/6 547/2/6
f 546/2/6 544/2/6 547/2/6
f 547/2/6 542/2/6 548/2/6
f 546/2/6 547/2/6 549/2/6
f 549/2/6 547/2/6 550/2/6
f 551/2/6 552/2/6 555/2/6
f 555/2/6 552/2/6 556/2/6
f 553/2/6 554/2/6 557/2/6
f 557/2/6 554/2/6 558/2/6
f 559/2/6 560/2/6 563/2/6
f 563/2/6 560/2/6 564/2/6
f 561/2/6 562/2/6 565/2/6
f 565/2/6 562/2/6 566/2/6
f 567/2/6 568/2/6 569/2/6
f 569/2/6 568/2/6 570/2/6
f 571/2/6 572/2/6 573/2/6
f 573/2/6 572/2/6 574/2/6
f 575/2/6 576/2/6 579/2/6
f 579/2/6 576/2/6 580/2/6
f 577/2/6 578/2/6 581/2/6
f 581/2/6 578/2/6 582/2/6
f 583/2/6 584/2/6 586/2/6
f 586/2/6 584/2/6 587/2/6
f 585/2/6 586/2/6 589/2/6
f 587/2/6 588/2/6 590/2/6
f 585/2/6 589/2/6 591/2/6
f 589/2/6 590/2/6 591/2/6
f 590/2/6 588/2/6 592/2/6
f 591/2/6 590/2/6 592/2/6
f 593/1/6 594/1/6 597/1/6
f 597/1/6 594/1/6 598/1/6
f 595/1/6 596/1/6 599/1/6
f 599/1/6 596/1/6 600/1/6
f 601/1/6 602/1/6 603/1/6
f 603/1/6 602/1/6 604/1/6
f 605/5/6 606/5/6 609/5/6
f 609/5/6 606/5/6 610/5/6
f 607/5/6 608/5/6 611/5/6
f 611/5/6 608/5/6 612/5/6
f 613/1/6 614/1/6 615/1/6
f 615/1/6 614/1/6 616/1/6
f 617/3/6 618/3/6 619/3/6
f 619/3/6 618/3/6 620/3/6
