# MagicaVoxel @ Ephtracy

# group
o 

# material
mtllib Bed.mtl
usemtl palette

# normals
vn -1 0 0
vn 1 0 0
vn 0 0 1
vn 0 0 -1
vn 0 -1 0
vn 0 1 0

# texcoords
vt 0.537109 0.5
vt 0.591797 0.5
vt 0.927734 0.5
vt 0.958984 0.5
vt 0.962891 0.5

# verts
v -1.1 0.1 1
v -1.1 0.1 -2
v -1.1 0.3 1
v -1.1 0.3 -1.9
v -1.1 1.3 -1.9
v -1.1 1.3 -2
v -1 0 1
v -1 0 -2
v -1 0.1 1
v -1 0.1 -2
v -1 0.3 1
v -1 0.3 -0.9
v -1 0.3 -1.4
v -1 0.3 -1.9
v -1 0.6 1
v -1 0.6 -0.9
v -1 0.6 -1.4
v -1 0.6 -1.8
v -1 0.6 -1.9
v -1 0.7 -0.9
v -1 0.7 -1.4
v -1 1 -1.8
v -1 1 -1.9
v -0.9 0.6 -1.7
v -0.9 0.6 -1.8
v -0.9 0.9 -1.7
v -0.9 0.9 -1.8
v 0.1 0 1
v 0.1 0 0.9
v 0.1 0.3 1
v 0.1 0.3 0.9
v 0.1 0.6 -1.8
v 0.1 0.6 -1.9
v 0.1 1 -1.8
v 0.1 1 -1.9
v 0.2 0.6 -1.7
v 0.2 0.6 -1.8
v 0.2 0.9 -1.7
v 0.2 0.9 -1.8
v -0.2 0.6 -1.7
v -0.2 0.6 -1.8
v -0.2 0.9 -1.7
v -0.2 0.9 -1.8
v -0.1 0 1
v -0.1 0 0.9
v -0.1 0.3 1
v -0.1 0.3 0.9
v -0.1 0.6 -1.8
v -0.1 0.6 -1.9
v -0.1 1 -1.8
v -0.1 1 -1.9
v 0.9 0.6 -1.7
v 0.9 0.6 -1.8
v 0.9 0.9 -1.7
v 0.9 0.9 -1.8
v 1 0 1
v 1 0 -2
v 1 0.1 1
v 1 0.1 -2
v 1 0.3 1
v 1 0.3 -0.9
v 1 0.3 -1.4
v 1 0.3 -1.9
v 1 0.6 1
v 1 0.6 -0.9
v 1 0.6 -1.4
v 1 0.6 -1.8
v 1 0.6 -1.9
v 1 0.7 -0.9
v 1 0.7 -1.4
v 1 1 -1.8
v 1 1 -1.9
v 1.1 0.1 1
v 1.1 0.1 -2
v 1.1 0.3 1
v 1.1 0.3 -1.9
v 1.1 1.3 -1.9
v 1.1 1.3 -2
v -1.1 0.1 1
v -1.1 0.3 1
v -1 0 1
v -1 0.1 1
v -1 0.3 1
v -1 0.6 1
v -0.1 0 1
v -0.1 0.3 1
v 0.1 0 1
v 0.1 0.3 1
v 1 0 1
v 1 0.1 1
v 1 0.3 1
v 1 0.6 1
v 1.1 0.1 1
v 1.1 0.3 1
v -0.1 0 0.9
v -0.1 0.3 0.9
v 0.1 0 0.9
v 0.1 0.3 0.9
v -1 0.6 -0.9
v -1 0.7 -0.9
v 1 0.6 -0.9
v 1 0.7 -0.9
v -0.9 0.6 -1.7
v -0.9 0.9 -1.7
v -0.2 0.6 -1.7
v -0.2 0.9 -1.7
v 0.2 0.6 -1.7
v 0.2 0.9 -1.7
v 0.9 0.6 -1.7
v 0.9 0.9 -1.7
v -1 0.6 -1.8
v -1 1 -1.8
v -0.9 0.6 -1.8
v -0.9 0.9 -1.8
v -0.2 0.6 -1.8
v -0.2 0.9 -1.8
v -0.1 0.6 -1.8
v -0.1 1 -1.8
v 0.1 0.6 -1.8
v 0.1 1 -1.8
v 0.2 0.6 -1.8
v 0.2 0.9 -1.8
v 0.9 0.6 -1.8
v 0.9 0.9 -1.8
v 1 0.6 -1.8
v 1 1 -1.8
v -1.1 0.3 -1.9
v -1.1 1.3 -1.9
v -1 0.3 -1.9
v -1 0.6 -1.9
v -1 1 -1.9
v -0.1 0.6 -1.9
v -0.1 1 -1.9
v 0.1 0.6 -1.9
v 0.1 1 -1.9
v 1 0.3 -1.9
v 1 0.6 -1.9
v 1 1 -1.9
v 1.1 0.3 -1.9
v 1.1 1.3 -1.9
v -1 0.6 -1.4
v -1 0.7 -1.4
v 1 0.6 -1.4
v 1 0.7 -1.4
v -1.1 0.1 -2
v -1.1 1.3 -2
v -1 0 -2
v -1 0.1 -2
v 1 0 -2
v 1 0.1 -2
v 1.1 0.1 -2
v 1.1 1.3 -2
v -1 0 1
v -0.1 0 1
v 0.1 0 1
v 1 0 1
v -0.1 0 0.9
v 0.1 0 0.9
v -1 0 -2
v 1 0 -2
v -1.1 0.1 1
v -1 0.1 1
v 1 0.1 1
v 1.1 0.1 1
v -1.1 0.1 -2
v -1 0.1 -2
v 1 0.1 -2
v 1.1 0.1 -2
v -0.1 0.3 1
v 0.1 0.3 1
v -0.1 0.3 0.9
v 0.1 0.3 0.9
v -1.1 0.3 1
v -1 0.3 1
v 1 0.3 1
v 1.1 0.3 1
v -1 0.3 -0.9
v 1 0.3 -0.9
v -1 0.3 -1.4
v 1 0.3 -1.4
v -1.1 0.3 -1.9
v -1 0.3 -1.9
v 1 0.3 -1.9
v 1.1 0.3 -1.9
v -1 0.6 1
v 1 0.6 1
v -1 0.6 -0.9
v 1 0.6 -0.9
v -1 0.6 -1.4
v 1 0.6 -1.4
v -0.9 0.6 -1.7
v -0.2 0.6 -1.7
v 0.2 0.6 -1.7
v 0.9 0.6 -1.7
v -1 0.6 -1.8
v -0.9 0.6 -1.8
v -0.2 0.6 -1.8
v -0.1 0.6 -1.8
v 0.1 0.6 -1.8
v 0.2 0.6 -1.8
v 0.9 0.6 -1.8
v 1 0.6 -1.8
v -0.1 0.6 -1.9
v 0.1 0.6 -1.9
v -1 0.7 -0.9
v 1 0.7 -0.9
v -1 0.7 -1.4
v 1 0.7 -1.4
v -0.9 0.9 -1.7
v -0.2 0.9 -1.7
v 0.2 0.9 -1.7
v 0.9 0.9 -1.7
v -0.9 0.9 -1.8
v -0.2 0.9 -1.8
v 0.2 0.9 -1.8
v 0.9 0.9 -1.8
v -1 1 -1.8
v -0.1 1 -1.8
v 0.1 1 -1.8
v 1 1 -1.8
v -1 1 -1.9
v -0.1 1 -1.9
v 0.1 1 -1.9
v 1 1 -1.9
v -1.1 1.3 -1.9
v 1.1 1.3 -1.9
v -1.1 1.3 -2
v 1.1 1.3 -2

# faces
f 3/1/1 2/1/1 1/1/1
f 4/1/1 2/1/1 3/1/1
f 5/1/1 2/1/1 4/1/1
f 6/1/1 2/1/1 5/1/1
f 9/1/1 8/1/1 7/1/1
f 10/1/1 8/1/1 9/1/1
f 15/3/1 12/3/1 11/3/1
f 16/2/1 13/2/1 12/2/1
f 16/3/1 12/3/1 15/3/1
f 17/4/1 14/4/1 13/4/1
f 17/2/1 13/2/1 16/2/1
f 18/4/1 14/4/1 17/4/1
f 19/4/1 14/4/1 18/4/1
f 20/2/1 17/2/1 16/2/1
f 21/2/1 17/2/1 20/2/1
f 22/5/1 19/5/1 18/5/1
f 23/5/1 19/5/1 22/5/1
f 26/5/1 25/5/1 24/5/1
f 27/5/1 25/5/1 26/5/1
f 30/1/1 29/1/1 28/1/1
f 31/1/1 29/1/1 30/1/1
f 34/5/1 33/5/1 32/5/1
f 35/5/1 33/5/1 34/5/1
f 38/5/1 37/5/1 36/5/1
f 39/5/1 37/5/1 38/5/1
f 40/5/2 41/5/2 42/5/2
f 42/5/2 41/5/2 43/5/2
f 44/1/2 45/1/2 46/1/2
f 46/1/2 45/1/2 47/1/2
f 48/5/2 49/5/2 50/5/2
f 50/5/2 49/5/2 51/5/2
f 52/5/2 53/5/2 54/5/2
f 54/5/2 53/5/2 55/5/2
f 56/1/2 57/1/2 58/1/2
f 58/1/2 57/1/2 59/1/2
f 60/3/2 61/3/2 64/3/2
f 61/2/2 62/2/2 65/2/2
f 64/3/2 61/3/2 65/3/2
f 62/4/2 63/4/2 66/4/2
f 65/2/2 62/2/2 66/2/2
f 66/4/2 63/4/2 67/4/2
f 67/4/2 63/4/2 68/4/2
f 65/2/2 66/2/2 69/2/2
f 69/2/2 66/2/2 70/2/2
f 67/5/2 68/5/2 71/5/2
f 71/5/2 68/5/2 72/5/2
f 73/1/2 74/1/2 75/1/2
f 75/1/2 74/1/2 76/1/2
f 76/1/2 74/1/2 77/1/2
f 77/1/2 74/1/2 78/1/2
f 82/1/3 80/1/3 79/1/3
f 83/1/3 80/1/3 82/1/3
f 85/1/3 82/1/3 81/1/3
f 85/1/3 83/1/3 82/1/3
f 86/3/3 84/3/3 83/3/3
f 86/1/3 83/1/3 85/1/3
f 88/3/3 84/3/3 86/3/3
f 89/1/3 88/1/3 87/1/3
f 90/1/3 88/1/3 89/1/3
f 91/3/3 84/3/3 88/3/3
f 91/1/3 88/1/3 90/1/3
f 92/3/3 84/3/3 91/3/3
f 93/1/3 91/1/3 90/1/3
f 94/1/3 91/1/3 93/1/3
f 97/1/3 96/1/3 95/1/3
f 98/1/3 96/1/3 97/1/3
f 101/2/3 100/2/3 99/2/3
f 102/2/3 100/2/3 101/2/3
f 105/5/3 104/5/3 103/5/3
f 106/5/3 104/5/3 105/5/3
f 109/5/3 108/5/3 107/5/3
f 110/5/3 108/5/3 109/5/3
f 113/5/3 112/5/3 111/5/3
f 114/5/3 112/5/3 113/5/3
f 116/5/3 112/5/3 114/5/3
f 117/5/3 116/5/3 115/5/3
f 118/5/3 112/5/3 116/5/3
f 118/5/3 116/5/3 117/5/3
f 121/5/3 120/5/3 119/5/3
f 122/5/3 120/5/3 121/5/3
f 124/5/3 120/5/3 122/5/3
f 125/5/3 124/5/3 123/5/3
f 126/5/3 120/5/3 124/5/3
f 126/5/3 124/5/3 125/5/3
f 129/1/3 128/1/3 127/1/3
f 130/1/3 128/1/3 129/1/3
f 131/1/3 128/1/3 130/1/3
f 133/1/3 128/1/3 131/1/3
f 134/1/3 133/1/3 132/1/3
f 135/1/3 128/1/3 133/1/3
f 135/1/3 133/1/3 134/1/3
f 138/1/3 128/1/3 135/1/3
f 139/1/3 137/1/3 136/1/3
f 139/1/3 138/1/3 137/1/3
f 140/1/3 128/1/3 138/1/3
f 140/1/3 138/1/3 139/1/3
f 141/2/4 142/2/4 143/2/4
f 143/2/4 142/2/4 144/2/4
f 145/1/4 146/1/4 148/1/4
f 147/1/4 148/1/4 149/1/4
f 148/1/4 146/1/4 150/1/4
f 149/1/4 148/1/4 150/1/4
f 150/1/4 146/1/4 151/1/4
f 151/1/4 146/1/4 152/1/4
f 157/1/5 154/1/5 153/1/5
f 158/1/5 156/1/5 155/1/5
f 159/1/5 157/1/5 153/1/5
f 159/1/5 158/1/5 157/1/5
f 160/1/5 156/1/5 158/1/5
f 160/1/5 158/1/5 159/1/5
f 165/1/5 162/1/5 161/1/5
f 166/1/5 162/1/5 165/1/5
f 167/1/5 164/1/5 163/1/5
f 168/1/5 164/1/5 167/1/5
f 171/3/5 170/3/5 169/3/5
f 172/3/5 170/3/5 171/3/5
f 173/1/6 174/1/6 177/1/6
f 175/1/6 176/1/6 178/1/6
f 173/1/6 177/1/6 179/1/6
f 178/1/6 176/1/6 180/1/6
f 173/1/6 179/1/6 181/1/6
f 181/1/6 179/1/6 182/1/6
f 180/1/6 176/1/6 183/1/6
f 183/1/6 176/1/6 184/1/6
f 185/3/6 186/3/6 187/3/6
f 187/3/6 186/3/6 188/3/6
f 189/4/6 190/4/6 191/4/6
f 191/4/6 190/4/6 192/4/6
f 192/4/6 190/4/6 193/4/6
f 193/4/6 190/4/6 194/4/6
f 189/4/6 191/4/6 195/4/6
f 195/4/6 191/4/6 196/4/6
f 192/4/6 193/4/6 197/4/6
f 197/4/6 193/4/6 198/4/6
f 198/4/6 193/4/6 199/4/6
f 199/4/6 193/4/6 200/4/6
f 194/4/6 190/4/6 201/4/6
f 201/4/6 190/4/6 202/4/6
f 198/4/6 199/4/6 203/4/6
f 203/4/6 199/4/6 204/4/6
f 205/2/6 206/2/6 207/2/6
f 207/2/6 206/2/6 208/2/6
f 209/5/6 210/5/6 213/5/6
f 213/5/6 210/5/6 214/5/6
f 211/5/6 212/5/6 215/5/6
f 215/5/6 212/5/6 216/5/6
f 217/5/6 218/5/6 221/5/6
f 221/5/6 218/5/6 222/5/6
f 219/5/6 220/5/6 223/5/6
f 223/5/6 220/5/6 224/5/6
f 225/1/6 226/1/6 227/1/6
f 227/1/6 226/1/6 228/1/6
