# MagicaVoxel @ Ephtracy

# group
o 

# material
mtllib BedTable.mtl
usemtl palette

# normals
vn -1 0 0
vn 1 0 0
vn 0 0 1
vn 0 0 -1
vn 0 -1 0
vn 0 1 0

# texcoords
vt 0.373047 0.5
vt 0.958984 0.5
vt 0.982422 0.5
vt 0.990234 0.5
vt 0.994141 0.5

# verts
v -1 0 2.23517e-008
v -1 0 -0.1
v -1 0 -1.9
v -1 0 -2
v -1 0.3 -0.1
v -1 0.3 -1.9
v -1 0.4 -0.1
v -1 0.4 -1.9
v -1 0.9 -0.1
v -1 0.9 -1.9
v -1 1.1 -0.1
v -1 1.1 -1.9
v -1 1.6 -0.1
v -1 1.6 -1.9
v -1 2 2.23517e-008
v -1 2 -2
v -1 2.1 -1.2
v -1 2.1 -1.5
v -1 2.2 -1.2
v -1 2.2 -1.4
v -1 2.4 -1.5
v -1 2.4 -1.6
v -1 2.5 -1.4
v -1 2.5 -1.6
v -0.8 1.7 2.23517e-008
v -0.8 1.7 -0.1
v -0.8 1.8 2.23517e-008
v -0.8 1.8 -0.1
v -0.8 2.3 -1.5
v -0.8 2.3 -1.6
v -0.8 2.4 -1.5
v -0.8 2.4 -1.6
v -0.7 2 -1
v -0.7 2 -1.6
v -0.7 2.1 -1.2
v -0.7 2.1 -1.3
v -0.7 2.2 -1
v -0.7 2.2 -1.1
v -0.7 2.2 -1.2
v -0.7 2.2 -1.3
v -0.7 2.3 -1.1
v -0.7 2.3 -1.5
v -0.7 2.3 -1.6
v -0.2 2.3 -1.5
v -0.2 2.3 -1.6
v -0.2 2.4 -1.5
v -0.2 2.4 -1.6
v 0.3 2 -0.2
v 0.3 2 -0.8
v 0.3 2.1 -0.2
v 0.3 2.1 -0.8
v 0.4 2.2 -1.9
v 0.4 2.2 -2
v 0.4 2.3 -1.9
v 0.4 2.3 -2
v 0.9 0 2.23517e-008
v 0.9 0 -0.1
v 0.9 0 -1.9
v 0.9 0 -2
v 0.9 0.3 2.23517e-008
v 0.9 0.3 -0.1
v 0.9 0.3 -1.9
v 0.9 0.3 -2
v 0.9 0.4 2.23517e-008
v 0.9 0.4 -0.1
v 0.9 0.4 -1.9
v 0.9 0.4 -2
v 0.9 0.9 2.23517e-008
v 0.9 0.9 -0.1
v 0.9 0.9 -1.9
v 0.9 0.9 -2
v 0.9 1 -0.1
v 0.9 1 -1.9
v 0.9 1.1 2.23517e-008
v 0.9 1.1 -0.1
v 0.9 1.1 -1.9
v 0.9 1.1 -2
v 0.9 1.6 2.23517e-008
v 0.9 1.6 -0.1
v 0.9 1.6 -1.9
v 0.9 1.6 -2
v 0.9 1.7 2.23517e-008
v 0.9 1.7 -0.1
v 0.9 1.7 -1.9
v 0.9 1.9 2.23517e-008
v 0.9 1.9 -0.1
v -0.9 0 2.23517e-008
v -0.9 0 -0.1
v -0.9 0 -1.9
v -0.9 0 -2
v -0.9 0.3 2.23517e-008
v -0.9 0.3 -0.1
v -0.9 0.3 -1.9
v -0.9 0.3 -2
v -0.9 0.4 2.23517e-008
v -0.9 0.4 -0.1
v -0.9 0.4 -1.9
v -0.9 0.4 -2
v -0.9 0.9 2.23517e-008
v -0.9 0.9 -0.1
v -0.9 0.9 -1.9
v -0.9 0.9 -2
v -0.9 1 -0.1
v -0.9 1 -1.9
v -0.9 1.1 2.23517e-008
v -0.9 1.1 -0.1
v -0.9 1.1 -1.9
v -0.9 1.1 -2
v -0.9 1.6 2.23517e-008
v -0.9 1.6 -0.1
v -0.9 1.6 -1.9
v -0.9 1.6 -2
v -0.9 1.7 2.23517e-008
v -0.9 1.7 -0.1
v -0.9 1.7 -1.9
v -0.9 1.9 2.23517e-008
v -0.9 1.9 -0.1
v -0.9 2.1 -1.3
v -0.9 2.1 -1.5
v -0.9 2.2 -1.3
v -0.9 2.2 -1.4
v -0.9 2.4 -1.5
v -0.9 2.5 -1.4
v -0.9 2.5 -1.5
v -0.7 2.3 -1.5
v -0.7 2.3 -1.6
v -0.7 2.4 -1.5
v -0.7 2.4 -1.6
v -0.2 2 -1
v -0.2 2 -1.6
v -0.2 2.2 -1
v -0.2 2.2 -1.1
v -0.2 2.3 -1.1
v -0.2 2.3 -1.5
v -0.2 2.3 -1.6
v -0.0999999 2.3 -1.5
v -0.0999999 2.3 -1.6
v -0.0999999 2.5 -1.5
v -0.0999999 2.5 -1.6
v 0.5 2 -0.2
v 0.5 2 -0.8
v 0.5 2.1 -0.2
v 0.5 2.1 -0.8
v 0.6 2.2 -1.9
v 0.6 2.2 -2
v 0.6 2.3 -1.9
v 0.6 2.3 -2
v 0.8 1.7 2.23517e-008
v 0.8 1.7 -0.1
v 0.8 1.8 2.23517e-008
v 0.8 1.8 -0.1
v 1 0 2.23517e-008
v 1 0 -0.1
v 1 0 -1.9
v 1 0 -2
v 1 0.3 -0.1
v 1 0.3 -1.9
v 1 0.4 -0.1
v 1 0.4 -1.9
v 1 0.9 -0.1
v 1 0.9 -1.9
v 1 1.1 -0.1
v 1 1.1 -1.9
v 1 1.6 -0.1
v 1 1.6 -1.9
v 1 2 2.23517e-008
v 1 2 -2
v -1 0 2.23517e-008
v -1 2 2.23517e-008
v -0.9 0 2.23517e-008
v -0.9 0.3 2.23517e-008
v -0.9 0.4 2.23517e-008
v -0.9 0.9 2.23517e-008
v -0.9 1.1 2.23517e-008
v -0.9 1.6 2.23517e-008
v -0.9 1.7 2.23517e-008
v -0.9 1.9 2.23517e-008
v -0.8 1.7 2.23517e-008
v -0.8 1.8 2.23517e-008
v 0.8 1.7 2.23517e-008
v 0.8 1.8 2.23517e-008
v 0.9 0 2.23517e-008
v 0.9 0.3 2.23517e-008
v 0.9 0.4 2.23517e-008
v 0.9 0.9 2.23517e-008
v 0.9 1.1 2.23517e-008
v 0.9 1.6 2.23517e-008
v 0.9 1.7 2.23517e-008
v 0.9 1.9 2.23517e-008
v 1 0 2.23517e-008
v 1 2 2.23517e-008
v -0.9 1.7 -0.1
v -0.9 1.9 -0.1
v -0.8 1.7 -0.1
v -0.8 1.8 -0.1
v 0.8 1.7 -0.1
v 0.8 1.8 -0.1
v 0.9 1.7 -0.1
v 0.9 1.9 -0.1
v 0.3 2 -0.2
v 0.3 2.1 -0.2
v 0.5 2 -0.2
v 0.5 2.1 -0.2
v -0.7 2 -1
v -0.7 2.2 -1
v -0.6 2.1 -1
v -0.6 2.2 -1
v -0.3 2.1 -1
v -0.3 2.2 -1
v -0.2 2 -1
v -0.2 2.2 -1
v -0.7 2.2 -1.1
v -0.7 2.3 -1.1
v -0.6 2.2 -1.1
v -0.6 2.3 -1.1
v -0.5 2.2 -1.1
v -0.5 2.3 -1.1
v -0.4 2.2 -1.1
v -0.4 2.3 -1.1
v -0.3 2.2 -1.1
v -0.3 2.3 -1.1
v -0.2 2.2 -1.1
v -0.2 2.3 -1.1
v -1 2.1 -1.2
v -1 2.2 -1.2
v -0.7 2.1 -1.2
v -0.7 2.2 -1.2
v -1 2.2 -1.4
v -1 2.5 -1.4
v -0.9 2.2 -1.4
v -0.9 2.5 -1.4
v -0.9 2.4 -1.5
v -0.9 2.5 -1.5
v -0.8 2.3 -1.5
v -0.8 2.4 -1.5
v -0.8 2.5 -1.5
v -0.7 2.3 -1.5
v -0.7 2.4 -1.5
v -0.2 2.3 -1.5
v -0.2 2.4 -1.5
v -0.0999999 2.3 -1.5
v -0.0999999 2.5 -1.5
v -1 0 -1.9
v -1 0.3 -1.9
v -1 0.4 -1.9
v -1 0.9 -1.9
v -1 1.1 -1.9
v -1 1.6 -1.9
v -0.9 0 -1.9
v -0.9 0.3 -1.9
v -0.9 0.4 -1.9
v -0.9 0.9 -1.9
v -0.9 1 -1.9
v -0.9 1.1 -1.9
v -0.9 1.6 -1.9
v -0.9 1.7 -1.9
v 0.4 2.2 -1.9
v 0.4 2.3 -1.9
v 0.6 2.2 -1.9
v 0.6 2.3 -1.9
v 0.9 0 -1.9
v 0.9 0.3 -1.9
v 0.9 0.4 -1.9
v 0.9 0.9 -1.9
v 0.9 1 -1.9
v 0.9 1.1 -1.9
v 0.9 1.6 -1.9
v 0.9 1.7 -1.9
v 1 0 -1.9
v 1 0.3 -1.9
v 1 0.4 -1.9
v 1 0.9 -1.9
v 1 1.1 -1.9
v 1 1.6 -1.9
v -1 0 -0.1
v -1 0.3 -0.1
v -1 0.4 -0.1
v -1 0.9 -0.1
v -1 1.1 -0.1
v -1 1.6 -0.1
v -0.9 0 -0.1
v -0.9 0.3 -0.1
v -0.9 0.4 -0.1
v -0.9 0.9 -0.1
v -0.9 1 -0.1
v -0.9 1.1 -0.1
v -0.9 1.6 -0.1
v -0.9 1.7 -0.1
v 0.9 0 -0.1
v 0.9 0.3 -0.1
v 0.9 0.4 -0.1
v 0.9 0.9 -0.1
v 0.9 1 -0.1
v 0.9 1.1 -0.1
v 0.9 1.6 -0.1
v 0.9 1.7 -0.1
v 1 0 -0.1
v 1 0.3 -0.1
v 1 0.4 -0.1
v 1 0.9 -0.1
v 1 1.1 -0.1
v 1 1.6 -0.1
v 0.3 2 -0.8
v 0.3 2.1 -0.8
v 0.5 2 -0.8
v 0.5 2.1 -0.8
v -0.9 2.1 -1.3
v -0.9 2.2 -1.3
v -0.7 2.1 -1.3
v -0.7 2.2 -1.3
v -1 2.1 -1.5
v -1 2.4 -1.5
v -0.9 2.1 -1.5
v -0.9 2.4 -1.5
v -1 2.4 -1.6
v -1 2.5 -1.6
v -0.8 2.3 -1.6
v -0.8 2.4 -1.6
v -0.8 2.5 -1.6
v -0.7 2 -1.6
v -0.7 2.3 -1.6
v -0.7 2.4 -1.6
v -0.2 2 -1.6
v -0.2 2.3 -1.6
v -0.2 2.4 -1.6
v -0.0999999 2.3 -1.6
v -0.0999999 2.5 -1.6
v -1 0 -2
v -1 2 -2
v -0.9 0 -2
v -0.9 0.3 -2
v -0.9 0.4 -2
v -0.9 0.9 -2
v -0.9 1.1 -2
v -0.9 1.6 -2
v 0.4 2.2 -2
v 0.4 2.3 -2
v 0.6 2.2 -2
v 0.6 2.3 -2
v 0.9 0 -2
v 0.9 0.3 -2
v 0.9 0.4 -2
v 0.9 0.9 -2
v 0.9 1.1 -2
v 0.9 1.6 -2
v 1 0 -2
v 1 2 -2
v -1 0 2.23517e-008
v -0.9 0 2.23517e-008
v 0.9 0 2.23517e-008
v 1 0 2.23517e-008
v -1 0 -0.1
v -0.9 0 -0.1
v 0.9 0 -0.1
v 1 0 -0.1
v -1 0 -1.9
v -0.9 0 -1.9
v 0.9 0 -1.9
v 1 0 -1.9
v -1 0 -2
v -0.9 0 -2
v 0.9 0 -2
v 1 0 -2
v -0.9 0.3 2.23517e-008
v 0.9 0.3 2.23517e-008
v -1 0.3 -0.1
v -0.9 0.3 -0.1
v 0.9 0.3 -0.1
v 1 0.3 -0.1
v -1 0.3 -1.9
v -0.9 0.3 -1.9
v 0.9 0.3 -1.9
v 1 0.3 -1.9
v -0.9 0.3 -2
v 0.9 0.3 -2
v -0.9 0.9 2.23517e-008
v 0.9 0.9 2.23517e-008
v -1 0.9 -0.1
v -0.9 0.9 -0.1
v 0.9 0.9 -0.1
v 1 0.9 -0.1
v -1 0.9 -1.9
v -0.9 0.9 -1.9
v 0.9 0.9 -1.9
v 1 0.9 -1.9
v -0.9 0.9 -2
v 0.9 0.9 -2
v -0.9 1 -0.1
v 0.9 1 -0.1
v -0.9 1 -1.9
v 0.9 1 -1.9
v -0.9 1.6 2.23517e-008
v 0.9 1.6 2.23517e-008
v -1 1.6 -0.1
v -0.9 1.6 -0.1
v 0.9 1.6 -0.1
v 1 1.6 -0.1
v -1 1.6 -1.9
v -0.9 1.6 -1.9
v 0.9 1.6 -1.9
v 1 1.6 -1.9
v -0.9 1.6 -2
v 0.9 1.6 -2
v -0.9 1.7 -0.1
v 0.9 1.7 -0.1
v -0.9 1.7 -1.9
v 0.9 1.7 -1.9
v -0.9 1.9 2.23517e-008
v 0.9 1.9 2.23517e-008
v -0.9 1.9 -0.1
v 0.9 1.9 -0.1
v -1 2.1 -1.2
v -0.7 2.1 -1.2
v -0.9 2.1 -1.3
v -0.7 2.1 -1.3
v -1 2.1 -1.5
v -0.9 2.1 -1.5
v 0.4 2.2 -1.9
v 0.6 2.2 -1.9
v 0.4 2.2 -2
v 0.6 2.2 -2
v -0.8 2.3 -1.5
v -0.7 2.3 -1.5
v -0.2 2.3 -1.5
v -0.0999999 2.3 -1.5
v -0.8 2.3 -1.6
v -0.7 2.3 -1.6
v -0.2 2.3 -1.6
v -0.0999999 2.3 -1.6
v -1 2.4 -1.5
v -0.9 2.4 -1.5
v -0.8 2.4 -1.5
v -0.7 2.4 -1.5
v -0.2 2.4 -1.5
v -1 2.4 -1.6
v -0.8 2.4 -1.6
v -0.7 2.4 -1.6
v -0.2 2.4 -1.6
v -0.9 0.4 2.23517e-008
v 0.9 0.4 2.23517e-008
v -1 0.4 -0.1
v -0.9 0.4 -0.1
v 0.9 0.4 -0.1
v 1 0.4 -0.1
v -1 0.4 -1.9
v -0.9 0.4 -1.9
v 0.9 0.4 -1.9
v 1 0.4 -1.9
v -0.9 0.4 -2
v 0.9 0.4 -2
v -0.9 1.1 2.23517e-008
v 0.9 1.1 2.23517e-008
v -1 1.1 -0.1
v -0.9 1.1 -0.1
v 0.9 1.1 -0.1
v 1 1.1 -0.1
v -1 1.1 -1.9
v -0.9 1.1 -1.9
v 0.9 1.1 -1.9
v 1 1.1 -1.9
v -0.9 1.1 -2
v 0.9 1.1 -2
v -0.9 1.7 2.23517e-008
v -0.8 1.7 2.23517e-008
v 0.8 1.7 2.23517e-008
v 0.9 1.7 2.23517e-008
v -0.9 1.7 -0.1
v -0.8 1.7 -0.1
v 0.8 1.7 -0.1
v 0.9 1.7 -0.1
v -0.8 1.8 2.23517e-008
v 0.8 1.8 2.23517e-008
v -0.8 1.8 -0.1
v 0.8 1.8 -0.1
v -1 2 2.23517e-008
v 1 2 2.23517e-008
v 0.3 2 -0.2
v 0.5 2 -0.2
v 0.3 2 -0.8
v 0.5 2 -0.8
v -0.7 2 -1
v -0.2 2 -1
v -0.7 2 -1.6
v -0.2 2 -1.6
v -1 2 -2
v 1 2 -2
v 0.3 2.1 -0.2
v 0.5 2.1 -0.2
v 0.3 2.1 -0.8
v 0.5 2.1 -0.8
v -0.7 2.2 -1
v -0.6 2.2 -1
v -0.3 2.2 -1
v -0.2 2.2 -1
v -0.7 2.2 -1.1
v -0.6 2.2 -1.1
v -0.5 2.2 -1.1
v -0.4 2.2 -1.1
v -0.3 2.2 -1.1
v -0.2 2.2 -1.1
v -1 2.2 -1.2
v -0.7 2.2 -1.2
v -0.9 2.2 -1.3
v -0.7 2.2 -1.3
v -1 2.2 -1.4
v -0.9 2.2 -1.4
v -0.7 2.3 -1.1
v -0.6 2.3 -1.1
v -0.5 2.3 -1.1
v -0.4 2.3 -1.1
v -0.3 2.3 -1.1
v -0.2 2.3 -1.1
v -0.6 2.3 -1.2
v -0.5 2.3 -1.2
v -0.4 2.3 -1.2
v -0.3 2.3 -1.2
v -0.6 2.3 -1.3
v -0.5 2.3 -1.3
v -0.4 2.3 -1.3
v -0.3 2.3 -1.3
v -0.6 2.3 -1.4
v -0.5 2.3 -1.4
v -0.4 2.3 -1.4
v -0.3 2.3 -1.4
v -0.7 2.3 -1.5
v -0.2 2.3 -1.5
v -0.7 2.3 -1.6
v -0.2 2.3 -1.6
v 0.4 2.3 -1.9
v 0.6 2.3 -1.9
v 0.4 2.3 -2
v 0.6 2.3 -2
v -1 2.5 -1.4
v -0.9 2.5 -1.4
v -0.9 2.5 -1.5
v -0.8 2.5 -1.5
v -0.0999999 2.5 -1.5
v -1 2.5 -1.6
v -0.8 2.5 -1.6
v -0.0999999 2.5 -1.6

# faces
f 5/1/1 2/1/1 1/1/1
f 6/1/1 4/1/1 3/1/1
f 7/1/1 5/1/1 1/1/1
f 7/1/1 6/1/1 5/1/1
f 8/1/1 4/1/1 6/1/1
f 8/1/1 6/1/1 7/1/1
f 9/1/1 7/1/1 1/1/1
f 10/1/1 4/1/1 8/1/1
f 11/1/1 9/1/1 1/1/1
f 11/1/1 10/1/1 9/1/1
f 12/1/1 4/1/1 10/1/1
f 12/1/1 10/1/1 11/1/1
f 13/1/1 11/1/1 1/1/1
f 14/1/1 4/1/1 12/1/1
f 15/1/1 13/1/1 1/1/1
f 15/1/1 14/1/1 13/1/1
f 16/1/1 4/1/1 14/1/1
f 16/1/1 14/1/1 15/1/1
f 19/3/1 18/3/1 17/3/1
f 20/3/1 18/3/1 19/3/1
f 21/3/1 18/3/1 20/3/1
f 23/3/1 21/3/1 20/3/1
f 23/3/1 22/3/1 21/3/1
f 24/3/1 22/3/1 23/3/1
f 27/1/1 26/1/1 25/1/1
f 28/1/1 26/1/1 27/1/1
f 31/5/1 30/5/1 29/5/1
f 32/5/1 30/5/1 31/5/1
f 35/5/1 34/5/1 33/5/1
f 36/5/1 34/5/1 35/5/1
f 37/5/1 35/5/1 33/5/1
f 38/5/1 35/5/1 37/5/1
f 39/5/1 35/5/1 38/5/1
f 40/5/1 34/5/1 36/5/1
f 41/5/1 39/5/1 38/5/1
f 41/5/1 40/5/1 39/5/1
f 42/5/1 34/5/1 40/5/1
f 42/5/1 40/5/1 41/5/1
f 43/5/1 34/5/1 42/5/1
f 46/5/1 45/5/1 44/5/1
f 47/5/1 45/5/1 46/5/1
f 50/4/1 49/4/1 48/4/1
f 51/4/1 49/4/1 50/4/1
f 54/5/1 53/5/1 52/5/1
f 55/5/1 53/5/1 54/5/1
f 60/1/1 57/1/1 56/1/1
f 61/1/1 57/1/1 60/1/1
f 62/1/1 59/1/1 58/1/1
f 63/1/1 59/1/1 62/1/1
f 68/1/1 65/1/1 64/1/1
f 69/1/1 65/1/1 68/1/1
f 70/1/1 67/1/1 66/1/1
f 71/1/1 67/1/1 70/1/1
f 72/1/1 70/1/1 69/1/1
f 73/1/1 70/1/1 72/1/1
f 78/1/1 75/1/1 74/1/1
f 79/1/1 75/1/1 78/1/1
f 80/1/1 77/1/1 76/1/1
f 81/1/1 77/1/1 80/1/1
f 83/1/1 80/1/1 79/1/1
f 84/1/1 80/1/1 83/1/1
f 85/1/1 83/1/1 82/1/1
f 86/1/1 83/1/1 85/1/1
f 87/1/2 88/1/2 91/1/2
f 91/1/2 88/1/2 92/1/2
f 89/1/2 90/1/2 93/1/2
f 93/1/2 90/1/2 94/1/2
f 95/1/2 96/1/2 99/1/2
f 99/1/2 96/1/2 100/1/2
f 97/1/2 98/1/2 101/1/2
f 101/1/2 98/1/2 102/1/2
f 100/1/2 101/1/2 103/1/2
f 103/1/2 101/1/2 104/1/2
f 105/1/2 106/1/2 109/1/2
f 109/1/2 106/1/2 110/1/2
f 107/1/2 108/1/2 111/1/2
f 111/1/2 108/1/2 112/1/2
f 110/1/2 111/1/2 114/1/2
f 114/1/2 111/1/2 115/1/2
f 113/1/2 114/1/2 116/1/2
f 116/1/2 114/1/2 117/1/2
f 118/3/2 119/3/2 120/3/2
f 120/3/2 119/3/2 121/3/2
f 121/3/2 119/3/2 122/3/2
f 121/3/2 122/3/2 123/3/2
f 123/3/2 122/3/2 124/3/2
f 125/5/2 126/5/2 127/5/2
f 127/5/2 126/5/2 128/5/2
f 129/5/2 130/5/2 131/5/2
f 131/5/2 130/5/2 132/5/2
f 132/5/2 130/5/2 133/5/2
f 133/5/2 130/5/2 134/5/2
f 134/5/2 130/5/2 135/5/2
f 136/5/2 137/5/2 138/5/2
f 138/5/2 137/5/2 139/5/2
f 140/4/2 141/4/2 142/4/2
f 142/4/2 141/4/2 143/4/2
f 144/5/2 145/5/2 146/5/2
f 146/5/2 145/5/2 147/5/2
f 148/1/2 149/1/2 150/1/2
f 150/1/2 149/1/2 151/1/2
f 152/1/2 153/1/2 156/1/2
f 154/1/2 155/1/2 157/1/2
f 152/1/2 156/1/2 158/1/2
f 156/1/2 157/1/2 158/1/2
f 157/1/2 155/1/2 159/1/2
f 158/1/2 157/1/2 159/1/2
f 152/1/2 158/1/2 160/1/2
f 159/1/2 155/1/2 161/1/2
f 152/1/2 160/1/2 162/1/2
f 160/1/2 161/1/2 162/1/2
f 161/1/2 155/1/2 163/1/2
f 162/1/2 161/1/2 163/1/2
f 152/1/2 162/1/2 164/1/2
f 163/1/2 155/1/2 165/1/2
f 152/1/2 164/1/2 166/1/2
f 164/1/2 165/1/2 166/1/2
f 165/1/2 155/1/2 167/1/2
f 166/1/2 165/1/2 167/1/2
f 170/1/3 169/1/3 168/1/3
f 171/1/3 169/1/3 170/1/3
f 172/1/3 169/1/3 171/1/3
f 173/1/3 169/1/3 172/1/3
f 174/1/3 169/1/3 173/1/3
f 175/1/3 169/1/3 174/1/3
f 176/1/3 169/1/3 175/1/3
f 177/1/3 169/1/3 176/1/3
f 178/1/3 176/1/3 175/1/3
f 180/1/3 178/1/3 175/1/3
f 180/1/3 179/1/3 178/1/3
f 181/1/3 179/1/3 180/1/3
f 183/1/3 172/1/3 171/1/3
f 184/1/3 172/1/3 183/1/3
f 185/1/3 174/1/3 173/1/3
f 186/1/3 174/1/3 185/1/3
f 187/1/3 180/1/3 175/1/3
f 188/1/3 180/1/3 187/1/3
f 189/1/3 169/1/3 177/1/3
f 190/1/3 188/1/3 187/1/3
f 190/1/3 189/1/3 188/1/3
f 190/1/3 187/1/3 186/1/3
f 190/1/3 184/1/3 183/1/3
f 190/1/3 186/1/3 185/1/3
f 190/1/3 185/1/3 184/1/3
f 190/1/3 183/1/3 182/1/3
f 191/1/3 169/1/3 189/1/3
f 191/1/3 189/1/3 190/1/3
f 194/1/3 193/1/3 192/1/3
f 195/1/3 193/1/3 194/1/3
f 197/1/3 193/1/3 195/1/3
f 198/1/3 197/1/3 196/1/3
f 199/1/3 193/1/3 197/1/3
f 199/1/3 197/1/3 198/1/3
f 202/4/3 201/4/3 200/4/3
f 203/4/3 201/4/3 202/4/3
f 206/5/3 205/5/3 204/5/3
f 207/5/3 205/5/3 206/5/3
f 208/5/3 206/5/3 204/5/3
f 208/2/3 207/2/3 206/2/3
f 209/2/3 207/2/3 208/2/3
f 210/5/3 208/5/3 204/5/3
f 210/5/3 209/5/3 208/5/3
f 211/5/3 209/5/3 210/5/3
f 214/5/3 213/5/3 212/5/3
f 215/5/3 213/5/3 214/5/3
f 216/3/3 215/3/3 214/3/3
f 217/3/3 215/3/3 216/3/3
f 218/2/3 217/2/3 216/2/3
f 219/2/3 217/2/3 218/2/3
f 220/3/3 219/3/3 218/3/3
f 221/3/3 219/3/3 220/3/3
f 222/5/3 221/5/3 220/5/3
f 223/5/3 221/5/3 222/5/3
f 226/3/3 225/3/3 224/3/3
f 227/3/3 225/3/3 226/3/3
f 230/3/3 229/3/3 228/3/3
f 231/3/3 229/3/3 230/3/3
f 235/3/3 233/3/3 232/3/3
f 236/3/3 233/3/3 235/3/3
f 237/5/3 235/5/3 234/5/3
f 237/5/3 236/5/3 235/5/3
f 238/5/3 236/5/3 237/5/3
f 240/5/3 236/5/3 238/5/3
f 241/5/3 240/5/3 239/5/3
f 242/5/3 236/5/3 240/5/3
f 242/5/3 240/5/3 241/5/3
f 249/1/3 244/1/3 243/1/3
f 250/1/3 244/1/3 249/1/3
f 251/1/3 246/1/3 245/1/3
f 252/1/3 246/1/3 251/1/3
f 254/1/3 248/1/3 247/1/3
f 255/1/3 248/1/3 254/1/3
f 259/5/3 258/5/3 257/5/3
f 260/5/3 258/5/3 259/5/3
f 264/1/3 253/1/3 252/1/3
f 265/1/3 253/1/3 264/1/3
f 267/1/3 256/1/3 255/1/3
f 268/1/3 256/1/3 267/1/3
f 269/1/3 262/1/3 261/1/3
f 270/1/3 262/1/3 269/1/3
f 271/1/3 264/1/3 263/1/3
f 272/1/3 264/1/3 271/1/3
f 273/1/3 267/1/3 266/1/3
f 274/1/3 267/1/3 273/1/3
f 275/1/4 276/1/4 281/1/4
f 281/1/4 276/1/4 282/1/4
f 277/1/4 278/1/4 283/1/4
f 283/1/4 278/1/4 284/1/4
f 279/1/4 280/1/4 286/1/4
f 286/1/4 280/1/4 287/1/4
f 284/1/4 285/1/4 292/1/4
f 292/1/4 285/1/4 293/1/4
f 287/1/4 288/1/4 295/1/4
f 295/1/4 288/1/4 296/1/4
f 289/1/4 290/1/4 297/1/4
f 297/1/4 290/1/4 298/1/4
f 291/1/4 292/1/4 299/1/4
f 299/1/4 292/1/4 300/1/4
f 294/1/4 295/1/4 301/1/4
f 301/1/4 295/1/4 302/1/4
f 303/4/4 304/4/4 305/4/4
f 305/4/4 304/4/4 306/4/4
f 307/3/4 308/3/4 309/3/4
f 309/3/4 308/3/4 310/3/4
f 311/3/4 312/3/4 313/3/4
f 313/3/4 312/3/4 314/3/4
f 315/3/4 316/3/4 318/3/4
f 318/3/4 316/3/4 319/3/4
f 317/5/4 318/5/4 321/5/4
f 318/5/4 319/5/4 321/5/4
f 321/5/4 319/5/4 322/5/4
f 320/5/4 321/5/4 323/5/4
f 323/5/4 321/5/4 324/5/4
f 322/5/4 319/5/4 325/5/4
f 324/5/4 325/5/4 326/5/4
f 325/5/4 319/5/4 327/5/4
f 326/5/4 325/5/4 327/5/4
f 328/1/4 329/1/4 330/1/4
f 330/1/4 329/1/4 331/1/4
f 331/1/4 329/1/4 332/1/4
f 332/1/4 329/1/4 333/1/4
f 333/1/4 329/1/4 334/1/4
f 334/1/4 329/1/4 335/1/4
f 336/5/4 337/5/4 338/5/4
f 338/5/4 337/5/4 339/5/4
f 331/1/4 332/1/4 341/1/4
f 341/1/4 332/1/4 342/1/4
f 333/1/4 334/1/4 343/1/4
f 343/1/4 334/1/4 344/1/4
f 335/1/4 329/1/4 345/1/4
f 343/1/4 344/1/4 346/1/4
f 344/1/4 345/1/4 346/1/4
f 341/1/4 342/1/4 346/1/4
f 340/1/4 341/1/4 346/1/4
f 342/1/4 343/1/4 346/1/4
f 345/1/4 329/1/4 347/1/4
f 346/1/4 345/1/4 347/1/4
f 352/1/5 349/1/5 348/1/5
f 353/1/5 349/1/5 352/1/5
f 354/1/5 351/1/5 350/1/5
f 355/1/5 351/1/5 354/1/5
f 360/1/5 357/1/5 356/1/5
f 361/1/5 357/1/5 360/1/5
f 362/1/5 359/1/5 358/1/5
f 363/1/5 359/1/5 362/1/5
f 367/1/5 365/1/5 364/1/5
f 368/1/5 365/1/5 367/1/5
f 370/1/5 367/1/5 366/1/5
f 370/1/5 369/1/5 368/1/5
f 370/1/5 368/1/5 367/1/5
f 371/1/5 369/1/5 370/1/5
f 372/1/5 369/1/5 371/1/5
f 373/1/5 369/1/5 372/1/5
f 374/1/5 372/1/5 371/1/5
f 375/1/5 372/1/5 374/1/5
f 379/1/5 377/1/5 376/1/5
f 380/1/5 377/1/5 379/1/5
f 382/1/5 379/1/5 378/1/5
f 383/1/5 379/1/5 382/1/5
f 384/1/5 381/1/5 380/1/5
f 385/1/5 381/1/5 384/1/5
f 386/1/5 384/1/5 383/1/5
f 387/1/5 384/1/5 386/1/5
f 390/1/5 389/1/5 388/1/5
f 391/1/5 389/1/5 390/1/5
f 395/1/5 393/1/5 392/1/5
f 396/1/5 393/1/5 395/1/5
f 398/1/5 395/1/5 394/1/5
f 399/1/5 395/1/5 398/1/5
f 400/1/5 397/1/5 396/1/5
f 401/1/5 397/1/5 400/1/5
f 402/1/5 400/1/5 399/1/5
f 403/1/5 400/1/5 402/1/5
f 406/1/5 405/1/5 404/1/5
f 407/1/5 405/1/5 406/1/5
f 410/1/5 409/1/5 408/1/5
f 411/1/5 409/1/5 410/1/5
f 414/3/5 413/3/5 412/3/5
f 415/3/5 413/3/5 414/3/5
f 416/3/5 414/3/5 412/3/5
f 417/3/5 414/3/5 416/3/5
f 420/5/5 419/5/5 418/5/5
f 421/5/5 419/5/5 420/5/5
f 426/5/5 423/5/5 422/5/5
f 427/5/5 423/5/5 426/5/5
f 428/5/5 425/5/5 424/5/5
f 429/5/5 425/5/5 428/5/5
f 435/3/5 431/3/5 430/3/5
f 435/3/5 432/3/5 431/3/5
f 436/3/5 432/3/5 435/3/5
f 437/5/5 434/5/5 433/5/5
f 438/5/5 434/5/5 437/5/5
f 439/1/6 440/1/6 442/1/6
f 442/1/6 440/1/6 443/1/6
f 441/1/6 442/1/6 445/1/6
f 443/1/6 444/1/6 445/1/6
f 442/1/6 443/1/6 445/1/6
f 445/1/6 444/1/6 446/1/6
f 446/1/6 444/1/6 447/1/6
f 447/1/6 444/1/6 448/1/6
f 446/1/6 447/1/6 449/1/6
f 449/1/6 447/1/6 450/1/6
f 451/1/6 452/1/6 454/1/6
f 454/1/6 452/1/6 455/1/6
f 453/1/6 454/1/6 457/1/6
f 455/1/6 456/1/6 457/1/6
f 454/1/6 455/1/6 457/1/6
f 457/1/6 456/1/6 458/1/6
f 458/1/6 456/1/6 459/1/6
f 459/1/6 456/1/6 460/1/6
f 458/1/6 459/1/6 461/1/6
f 461/1/6 459/1/6 462/1/6
f 463/1/6 464/1/6 467/1/6
f 467/1/6 464/1/6 468/1/6
f 465/1/6 466/1/6 469/1/6
f 469/1/6 466/1/6 470/1/6
f 471/1/6 472/1/6 473/1/6
f 473/1/6 472/1/6 474/1/6
f 475/1/6 476/1/6 477/1/6
f 477/1/6 476/1/6 478/1/6
f 475/1/6 477/1/6 479/1/6
f 478/1/6 476/1/6 480/1/6
f 475/1/6 479/1/6 481/1/6
f 479/1/6 480/1/6 481/1/6
f 481/1/6 480/1/6 482/1/6
f 475/1/6 481/1/6 483/1/6
f 482/1/6 480/1/6 484/1/6
f 475/1/6 483/1/6 485/1/6
f 483/1/6 484/1/6 485/1/6
f 480/1/6 476/1/6 486/1/6
f 485/1/6 484/1/6 486/1/6
f 484/1/6 480/1/6 486/1/6
f 487/4/6 488/4/6 489/4/6
f 489/4/6 488/4/6 490/4/6
f 491/5/6 492/5/6 495/5/6
f 492/2/6 493/2/6 496/2/6
f 495/5/6 492/5/6 496/5/6
f 496/2/6 493/2/6 497/2/6
f 497/2/6 493/2/6 498/2/6
f 493/5/6 494/5/6 499/5/6
f 498/2/6 493/2/6 499/2/6
f 499/5/6 494/5/6 500/5/6
f 501/3/6 502/3/6 503/3/6
f 503/3/6 502/3/6 504/3/6
f 501/3/6 503/3/6 505/3/6
f 505/3/6 503/3/6 506/3/6
f 507/5/6 508/5/6 513/5/6
f 508/3/6 509/3/6 513/3/6
f 509/2/6 510/2/6 514/2/6
f 513/3/6 509/3/6 514/3/6
f 510/3/6 511/3/6 515/3/6
f 514/2/6 510/2/6 515/2/6
f 511/5/6 512/5/6 516/5/6
f 515/3/6 511/3/6 516/3/6
f 514/2/6 515/2/6 517/2/6
f 513/2/6 514/2/6 517/2/6
f 515/2/6 516/2/6 517/2/6
f 507/5/6 513/5/6 517/5/6
f 517/2/6 516/2/6 518/2/6
f 518/2/6 516/2/6 519/2/6
f 516/5/6 512/5/6 520/5/6
f 519/2/6 516/2/6 520/2/6
f 507/5/6 517/5/6 521/5/6
f 517/3/6 518/3/6 521/3/6
f 518/2/6 519/2/6 522/2/6
f 521/3/6 518/3/6 522/3/6
f 519/3/6 520/3/6 523/3/6
f 522/2/6 519/2/6 523/2/6
f 520/5/6 512/5/6 524/5/6
f 523/3/6 520/3/6 524/3/6
f 507/5/6 521/5/6 525/5/6
f 522/5/6 523/5/6 525/5/6
f 523/5/6 524/5/6 525/5/6
f 521/5/6 522/5/6 525/5/6
f 524/5/6 512/5/6 526/5/6
f 525/5/6 524/5/6 526/5/6
f 525/5/6 526/5/6 527/5/6
f 527/5/6 526/5/6 528/5/6
f 529/5/6 530/5/6 531/5/6
f 531/5/6 530/5/6 532/5/6
f 533/3/6 534/3/6 535/3/6
f 533/3/6 535/3/6 538/3/6
f 535/3/6 536/3/6 538/3/6
f 536/5/6 537/5/6 539/5/6
f 538/3/6 536/3/6 539/3/6
f 539/5/6 537/5/6 540/5/6
