# MagicaVoxel @ Ephtracy

# group
o 

# material
mtllib Curtains.mtl
usemtl palette

# normals
vn -1 0 0
vn 1 0 0
vn 0 0 1
vn 0 0 -1
vn 0 -1 0
vn 0 1 0

# texcoords
vt 0.396484 0.5
vt 0.591797 0.5
vt 0.841797 0.5
vt 0.986328 0.5

# verts
v -1.9 3.8 -1.8
v -1.9 3.8 -1.9
v -1.9 3.9 -1.8
v -1.9 3.9 -1.9
v -1.8 0 -1.7
v -1.8 0 -1.9
v -1.8 3.8 -1.8
v -1.8 3.8 -1.9
v -1.8 3.8 -2
v -1.8 3.9 -1.7
v -1.8 3.9 -1.8
v -1.8 3.9 -1.9
v -1.8 3.9 -2
v -1.6 0 -1.7
v -1.6 0 -1.8
v -1.6 3.7 -1.7
v -1.6 3.7 -1.8
v -1.6 3.8 -1.7
v -1.6 3.8 -1.8
v -1.6 3.9 -1.7
v -1.6 3.9 -1.8
v -1.4 0 -1.7
v -1.4 0 -1.8
v -1.4 3.7 -1.7
v -1.4 3.7 -1.8
v -1.4 3.8 -1.7
v -1.4 3.8 -1.8
v -1.4 3.9 -1.7
v -1.4 3.9 -1.8
v -1.2 0 -1.7
v -1.2 0 -1.8
v -1.2 3.7 -1.7
v -1.2 3.7 -1.8
v -1.2 3.8 -1.7
v -1.2 3.8 -1.8
v -1.2 3.9 -1.7
v -1.2 3.9 -1.8
v -1 0 -1.7
v -1 0 -1.8
v -1 3.7 -1.7
v -1 3.7 -1.8
v -1 3.8 -1.7
v -1 3.8 -1.8
v -1 3.9 -1.7
v -1 3.9 -1.8
v -0.8 0 -1.7
v -0.8 0 -1.8
v -0.8 3.7 -1.7
v -0.8 3.7 -1.8
v -0.8 3.8 -1.7
v -0.8 3.8 -1.8
v -0.8 3.9 -1.7
v -0.8 3.9 -1.8
v -0.7 1.5 -1.9
v -0.7 1.5 -2
v -0.7 1.6 -1.9
v -0.7 1.6 -2
v -0.7 3.4 -1.9
v -0.7 3.4 -2
v -0.7 3.5 -1.9
v -0.7 3.5 -2
v 0.7 0 -1.7
v 0.7 0 -1.9
v 0.7 1.5 -1.9
v 0.7 1.6 -1.9
v 0.7 3.4 -1.9
v 0.7 3.5 -1.9
v 0.7 3.8 -1.8
v 0.7 3.8 -1.9
v 0.7 3.9 -1.7
v 0.7 3.9 -1.8
v 0.9 0 -1.7
v 0.9 0 -1.8
v 0.9 3.7 -1.7
v 0.9 3.7 -1.8
v 0.9 3.8 -1.7
v 0.9 3.8 -1.8
v 0.9 3.9 -1.7
v 0.9 3.9 -1.8
v 1.1 0 -1.7
v 1.1 0 -1.8
v 1.1 3.7 -1.7
v 1.1 3.7 -1.8
v 1.1 3.8 -1.7
v 1.1 3.8 -1.8
v 1.1 3.9 -1.7
v 1.1 3.9 -1.8
v 1.3 0 -1.7
v 1.3 0 -1.8
v 1.3 3.7 -1.7
v 1.3 3.7 -1.8
v 1.3 3.8 -1.7
v 1.3 3.8 -1.8
v 1.3 3.9 -1.7
v 1.3 3.9 -1.8
v 1.5 0 -1.7
v 1.5 0 -1.8
v 1.5 3.7 -1.7
v 1.5 3.7 -1.8
v 1.5 3.8 -1.7
v 1.5 3.8 -1.8
v 1.5 3.9 -1.7
v 1.5 3.9 -1.8
v 1.7 0 -1.7
v 1.7 0 -1.8
v 1.7 3.7 -1.7
v 1.7 3.7 -1.8
v 1.7 3.8 -1.7
v 1.7 3.8 -1.8
v 1.7 3.8 -1.9
v 1.7 3.8 -2
v 1.7 3.9 -1.7
v 1.7 3.9 -1.8
v 1.7 3.9 -1.9
v 1.7 3.9 -2
v -1.7 0 -1.7
v -1.7 0 -1.8
v -1.7 3.7 -1.7
v -1.7 3.7 -1.8
v -1.7 3.8 -1.7
v -1.7 3.8 -1.8
v -1.7 3.8 -1.9
v -1.7 3.8 -2
v -1.7 3.9 -1.7
v -1.7 3.9 -1.8
v -1.7 3.9 -1.9
v -1.7 3.9 -2
v -1.5 0 -1.7
v -1.5 0 -1.8
v -1.5 3.7 -1.7
v -1.5 3.7 -1.8
v -1.5 3.8 -1.7
v -1.5 3.8 -1.8
v -1.5 3.9 -1.7
v -1.5 3.9 -1.8
v -1.3 0 -1.7
v -1.3 0 -1.8
v -1.3 3.7 -1.7
v -1.3 3.7 -1.8
v -1.3 3.8 -1.7
v -1.3 3.8 -1.8
v -1.3 3.9 -1.7
v -1.3 3.9 -1.8
v -1.1 0 -1.7
v -1.1 0 -1.8
v -1.1 3.7 -1.7
v -1.1 3.7 -1.8
v -1.1 3.8 -1.7
v -1.1 3.8 -1.8
v -1.1 3.9 -1.7
v -1.1 3.9 -1.8
v -0.9 0 -1.7
v -0.9 0 -1.8
v -0.9 3.7 -1.7
v -0.9 3.7 -1.8
v -0.9 3.8 -1.7
v -0.9 3.8 -1.8
v -0.9 3.9 -1.7
v -0.9 3.9 -1.8
v -0.7 0 -1.7
v -0.7 0 -1.9
v -0.7 1.5 -1.9
v -0.7 1.6 -1.9
v -0.7 3.4 -1.9
v -0.7 3.5 -1.9
v -0.7 3.8 -1.8
v -0.7 3.8 -1.9
v -0.7 3.9 -1.7
v -0.7 3.9 -1.8
v 0.7 1.5 -1.9
v 0.7 1.5 -2
v 0.7 1.6 -1.9
v 0.7 1.6 -2
v 0.7 3.4 -1.9
v 0.7 3.4 -2
v 0.7 3.5 -1.9
v 0.7 3.5 -2
v 0.8 0 -1.7
v 0.8 0 -1.8
v 0.8 3.7 -1.7
v 0.8 3.7 -1.8
v 0.8 3.8 -1.7
v 0.8 3.8 -1.8
v 0.8 3.9 -1.7
v 0.8 3.9 -1.8
v 1 0 -1.7
v 1 0 -1.8
v 1 3.7 -1.7
v 1 3.7 -1.8
v 1 3.8 -1.7
v 1 3.8 -1.8
v 1 3.9 -1.7
v 1 3.9 -1.8
v 1.2 0 -1.7
v 1.2 0 -1.8
v 1.2 3.7 -1.7
v 1.2 3.7 -1.8
v 1.2 3.8 -1.7
v 1.2 3.8 -1.8
v 1.2 3.9 -1.7
v 1.2 3.9 -1.8
v 1.4 0 -1.7
v 1.4 0 -1.8
v 1.4 3.7 -1.7
v 1.4 3.7 -1.8
v 1.4 3.8 -1.7
v 1.4 3.8 -1.8
v 1.4 3.9 -1.7
v 1.4 3.9 -1.8
v 1.6 0 -1.7
v 1.6 0 -1.8
v 1.6 3.7 -1.7
v 1.6 3.7 -1.8
v 1.6 3.8 -1.7
v 1.6 3.8 -1.8
v 1.6 3.9 -1.7
v 1.6 3.9 -1.8
v 1.8 0 -1.7
v 1.8 0 -1.9
v 1.8 3.8 -1.8
v 1.8 3.8 -1.9
v 1.8 3.8 -2
v 1.8 3.9 -1.7
v 1.8 3.9 -1.8
v 1.8 3.9 -1.9
v 1.8 3.9 -2
v 1.9 3.8 -1.8
v 1.9 3.8 -1.9
v 1.9 3.9 -1.8
v 1.9 3.9 -1.9
v -1.8 0 -1.7
v -1.8 3.9 -1.7
v -1.7 0 -1.7
v -1.7 3.7 -1.7
v -1.7 3.8 -1.7
v -1.7 3.9 -1.7
v -1.6 0 -1.7
v -1.6 3.7 -1.7
v -1.6 3.8 -1.7
v -1.6 3.9 -1.7
v -1.5 0 -1.7
v -1.5 3.7 -1.7
v -1.5 3.8 -1.7
v -1.5 3.9 -1.7
v -1.4 0 -1.7
v -1.4 3.7 -1.7
v -1.4 3.8 -1.7
v -1.4 3.9 -1.7
v -1.3 0 -1.7
v -1.3 3.7 -1.7
v -1.3 3.8 -1.7
v -1.3 3.9 -1.7
v -1.2 0 -1.7
v -1.2 3.7 -1.7
v -1.2 3.8 -1.7
v -1.2 3.9 -1.7
v -1.1 0 -1.7
v -1.1 3.7 -1.7
v -1.1 3.8 -1.7
v -1.1 3.9 -1.7
v -1 0 -1.7
v -1 3.7 -1.7
v -1 3.8 -1.7
v -1 3.9 -1.7
v -0.9 0 -1.7
v -0.9 3.7 -1.7
v -0.9 3.8 -1.7
v -0.9 3.9 -1.7
v -0.8 0 -1.7
v -0.8 3.7 -1.7
v -0.8 3.8 -1.7
v -0.8 3.9 -1.7
v -0.7 0 -1.7
v -0.7 3.9 -1.7
v 0.7 0 -1.7
v 0.7 3.9 -1.7
v 0.8 0 -1.7
v 0.8 3.7 -1.7
v 0.8 3.8 -1.7
v 0.8 3.9 -1.7
v 0.9 0 -1.7
v 0.9 3.7 -1.7
v 0.9 3.8 -1.7
v 0.9 3.9 -1.7
v 1 0 -1.7
v 1 3.7 -1.7
v 1 3.8 -1.7
v 1 3.9 -1.7
v 1.1 0 -1.7
v 1.1 3.7 -1.7
v 1.1 3.8 -1.7
v 1.1 3.9 -1.7
v 1.2 0 -1.7
v 1.2 3.7 -1.7
v 1.2 3.8 -1.7
v 1.2 3.9 -1.7
v 1.3 0 -1.7
v 1.3 3.7 -1.7
v 1.3 3.8 -1.7
v 1.3 3.9 -1.7
v 1.4 0 -1.7
v 1.4 3.7 -1.7
v 1.4 3.8 -1.7
v 1.4 3.9 -1.7
v 1.5 0 -1.7
v 1.5 3.7 -1.7
v 1.5 3.8 -1.7
v 1.5 3.9 -1.7
v 1.6 0 -1.7
v 1.6 3.7 -1.7
v 1.6 3.8 -1.7
v 1.6 3.9 -1.7
v 1.7 0 -1.7
v 1.7 3.7 -1.7
v 1.7 3.8 -1.7
v 1.7 3.9 -1.7
v 1.8 0 -1.7
v 1.8 3.9 -1.7
v -1.9 3.8 -1.8
v -1.9 3.9 -1.8
v -1.8 3.8 -1.8
v -1.8 3.9 -1.8
v -1.7 0 -1.8
v -1.7 3.7 -1.8
v -1.7 3.8 -1.8
v -1.7 3.9 -1.8
v -1.6 0 -1.8
v -1.6 3.7 -1.8
v -1.6 3.8 -1.8
v -1.6 3.9 -1.8
v -1.5 0 -1.8
v -1.5 3.7 -1.8
v -1.5 3.8 -1.8
v -1.5 3.9 -1.8
v -1.4 0 -1.8
v -1.4 3.7 -1.8
v -1.4 3.8 -1.8
v -1.4 3.9 -1.8
v -1.3 0 -1.8
v -1.3 3.7 -1.8
v -1.3 3.8 -1.8
v -1.3 3.9 -1.8
v -1.2 0 -1.8
v -1.2 3.7 -1.8
v -1.2 3.8 -1.8
v -1.2 3.9 -1.8
v -1.1 0 -1.8
v -1.1 3.7 -1.8
v -1.1 3.8 -1.8
v -1.1 3.9 -1.8
v -1 0 -1.8
v -1 3.7 -1.8
v -1 3.8 -1.8
v -1 3.9 -1.8
v -0.9 0 -1.8
v -0.9 3.7 -1.8
v -0.9 3.8 -1.8
v -0.9 3.9 -1.8
v -0.8 0 -1.8
v -0.8 3.7 -1.8
v -0.8 3.8 -1.8
v -0.8 3.9 -1.8
v -0.7 3.8 -1.8
v -0.7 3.9 -1.8
v 0.7 3.8 -1.8
v 0.7 3.9 -1.8
v 0.8 0 -1.8
v 0.8 3.7 -1.8
v 0.8 3.8 -1.8
v 0.8 3.9 -1.8
v 0.9 0 -1.8
v 0.9 3.7 -1.8
v 0.9 3.8 -1.8
v 0.9 3.9 -1.8
v 1 0 -1.8
v 1 3.7 -1.8
v 1 3.8 -1.8
v 1 3.9 -1.8
v 1.1 0 -1.8
v 1.1 3.7 -1.8
v 1.1 3.8 -1.8
v 1.1 3.9 -1.8
v 1.2 0 -1.8
v 1.2 3.7 -1.8
v 1.2 3.8 -1.8
v 1.2 3.9 -1.8
v 1.3 0 -1.8
v 1.3 3.7 -1.8
v 1.3 3.8 -1.8
v 1.3 3.9 -1.8
v 1.4 0 -1.8
v 1.4 3.7 -1.8
v 1.4 3.8 -1.8
v 1.4 3.9 -1.8
v 1.5 0 -1.8
v 1.5 3.7 -1.8
v 1.5 3.8 -1.8
v 1.5 3.9 -1.8
v 1.6 0 -1.8
v 1.6 3.7 -1.8
v 1.6 3.8 -1.8
v 1.6 3.9 -1.8
v 1.7 0 -1.8
v 1.7 3.7 -1.8
v 1.7 3.8 -1.8
v 1.7 3.9 -1.8
v 1.8 3.8 -1.8
v 1.8 3.9 -1.8
v 1.9 3.8 -1.8
v 1.9 3.9 -1.8
v -0.7 1.5 -1.9
v -0.7 1.6 -1.9
v -0.7 3.4 -1.9
v -0.7 3.5 -1.9
v -0.1 1.6 -1.9
v -0.1 3.4 -1.9
v 0.1 1.6 -1.9
v 0.1 3.4 -1.9
v 0.7 1.5 -1.9
v 0.7 1.6 -1.9
v 0.7 3.4 -1.9
v 0.7 3.5 -1.9
v -1.9 3.8 -1.9
v -1.9 3.9 -1.9
v -1.8 0 -1.9
v -1.8 3.8 -1.9
v -1.8 3.9 -1.9
v -1.7 3.8 -1.9
v -1.7 3.9 -1.9
v -0.7 0 -1.9
v -0.7 1.5 -1.9
v -0.7 1.6 -1.9
v -0.7 3.4 -1.9
v -0.7 3.5 -1.9
v -0.7 3.8 -1.9
v 0.7 0 -1.9
v 0.7 1.5 -1.9
v 0.7 1.6 -1.9
v 0.7 3.4 -1.9
v 0.7 3.5 -1.9
v 0.7 3.8 -1.9
v 1.7 3.8 -1.9
v 1.7 3.9 -1.9
v 1.8 0 -1.9
v 1.8 3.8 -1.9
v 1.8 3.9 -1.9
v 1.9 3.8 -1.9
v 1.9 3.9 -1.9
v -1.8 3.8 -2
v -1.8 3.9 -2
v -1.7 3.8 -2
v -1.7 3.9 -2
v -0.7 1.5 -2
v -0.7 1.6 -2
v -0.7 3.4 -2
v -0.7 3.5 -2
v -0.1 1.6 -2
v -0.1 3.4 -2
v 0.1 1.6 -2
v 0.1 3.4 -2
v 0.7 1.5 -2
v 0.7 1.6 -2
v 0.7 3.4 -2
v 0.7 3.5 -2
v 1.7 3.8 -2
v 1.7 3.9 -2
v 1.8 3.8 -2
v 1.8 3.9 -2
v -1.8 0 -1.7
v -1.7 0 -1.7
v -1.6 0 -1.7
v -1.5 0 -1.7
v -1.4 0 -1.7
v -1.3 0 -1.7
v -1.2 0 -1.7
v -1.1 0 -1.7
v -1 0 -1.7
v -0.9 0 -1.7
v -0.8 0 -1.7
v -0.7 0 -1.7
v 0.7 0 -1.7
v 0.8 0 -1.7
v 0.9 0 -1.7
v 1 0 -1.7
v 1.1 0 -1.7
v 1.2 0 -1.7
v 1.3 0 -1.7
v 1.4 0 -1.7
v 1.5 0 -1.7
v 1.6 0 -1.7
v 1.7 0 -1.7
v 1.8 0 -1.7
v -1.7 0 -1.8
v -1.6 0 -1.8
v -1.5 0 -1.8
v -1.4 0 -1.8
v -1.3 0 -1.8
v -1.2 0 -1.8
v -1.1 0 -1.8
v -1 0 -1.8
v -0.9 0 -1.8
v -0.8 0 -1.8
v 0.8 0 -1.8
v 0.9 0 -1.8
v 1 0 -1.8
v 1.1 0 -1.8
v 1.2 0 -1.8
v 1.3 0 -1.8
v 1.4 0 -1.8
v 1.5 0 -1.8
v 1.6 0 -1.8
v 1.7 0 -1.8
v -1.8 0 -1.9
v -0.7 0 -1.9
v 0.7 0 -1.9
v 1.8 0 -1.9
v -0.7 1.5 -1.9
v 0.7 1.5 -1.9
v -0.7 1.5 -2
v 0.7 1.5 -2
v -1.7 3.7 -1.7
v -1.6 3.7 -1.7
v -1.5 3.7 -1.7
v -1.4 3.7 -1.7
v -1.3 3.7 -1.7
v -1.2 3.7 -1.7
v -1.1 3.7 -1.7
v -1 3.7 -1.7
v -0.9 3.7 -1.7
v -0.8 3.7 -1.7
v 0.8 3.7 -1.7
v 0.9 3.7 -1.7
v 1 3.7 -1.7
v 1.1 3.7 -1.7
v 1.2 3.7 -1.7
v 1.3 3.7 -1.7
v 1.4 3.7 -1.7
v 1.5 3.7 -1.7
v 1.6 3.7 -1.7
v 1.7 3.7 -1.7
v -1.7 3.7 -1.8
v -1.6 3.7 -1.8
v -1.5 3.7 -1.8
v -1.4 3.7 -1.8
v -1.3 3.7 -1.8
v -1.2 3.7 -1.8
v -1.1 3.7 -1.8
v -1 3.7 -1.8
v -0.9 3.7 -1.8
v -0.8 3.7 -1.8
v 0.8 3.7 -1.8
v 0.9 3.7 -1.8
v 1 3.7 -1.8
v 1.1 3.7 -1.8
v 1.2 3.7 -1.8
v 1.3 3.7 -1.8
v 1.4 3.7 -1.8
v 1.5 3.7 -1.8
v 1.6 3.7 -1.8
v 1.7 3.7 -1.8
v -1.9 3.8 -1.8
v -1.8 3.8 -1.8
v -0.7 3.8 -1.8
v 0.7 3.8 -1.8
v 1.8 3.8 -1.8
v 1.9 3.8 -1.8
v -1.9 3.8 -1.9
v -1.8 3.8 -1.9
v -1.7 3.8 -1.9
v -0.7 3.8 -1.9
v 0.7 3.8 -1.9
v 1.7 3.8 -1.9
v 1.8 3.8 -1.9
v 1.9 3.8 -1.9
v -1.8 3.8 -2
v -1.7 3.8 -2
v 1.7 3.8 -2
v 1.8 3.8 -2
v -0.7 3.5 -1.9
v 0.7 3.5 -1.9
v -0.7 3.5 -2
v 0.7 3.5 -2
v -1.7 3.8 -1.7
v -1.6 3.8 -1.7
v -1.5 3.8 -1.7
v -1.4 3.8 -1.7
v -1.3 3.8 -1.7
v -1.2 3.8 -1.7
v -1.1 3.8 -1.7
v -1 3.8 -1.7
v -0.9 3.8 -1.7
v -0.8 3.8 -1.7
v 0.8 3.8 -1.7
v 0.9 3.8 -1.7
v 1 3.8 -1.7
v 1.1 3.8 -1.7
v 1.2 3.8 -1.7
v 1.3 3.8 -1.7
v 1.4 3.8 -1.7
v 1.5 3.8 -1.7
v 1.6 3.8 -1.7
v 1.7 3.8 -1.7
v -1.7 3.8 -1.8
v -1.6 3.8 -1.8
v -1.5 3.8 -1.8
v -1.4 3.8 -1.8
v -1.3 3.8 -1.8
v -1.2 3.8 -1.8
v -1.1 3.8 -1.8
v -1 3.8 -1.8
v -0.9 3.8 -1.8
v -0.8 3.8 -1.8
v 0.8 3.8 -1.8
v 0.9 3.8 -1.8
v 1 3.8 -1.8
v 1.1 3.8 -1.8
v 1.2 3.8 -1.8
v 1.3 3.8 -1.8
v 1.4 3.8 -1.8
v 1.5 3.8 -1.8
v 1.6 3.8 -1.8
v 1.7 3.8 -1.8
v -1.8 3.9 -1.7
v -1.7 3.9 -1.7
v -1.6 3.9 -1.7
v -1.5 3.9 -1.7
v -1.4 3.9 -1.7
v -1.3 3.9 -1.7
v -1.2 3.9 -1.7
v -1.1 3.9 -1.7
v -1 3.9 -1.7
v -0.9 3.9 -1.7
v -0.8 3.9 -1.7
v -0.7 3.9 -1.7
v 0.7 3.9 -1.7
v 0.8 3.9 -1.7
v 0.9 3.9 -1.7
v 1 3.9 -1.7
v 1.1 3.9 -1.7
v 1.2 3.9 -1.7
v 1.3 3.9 -1.7
v 1.4 3.9 -1.7
v 1.5 3.9 -1.7
v 1.6 3.9 -1.7
v 1.7 3.9 -1.7
v 1.8 3.9 -1.7
v -1.9 3.9 -1.8
v -1.8 3.9 -1.8
v -1.7 3.9 -1.8
v -1.6 3.9 -1.8
v -1.5 3.9 -1.8
v -1.4 3.9 -1.8
v -1.3 3.9 -1.8
v -1.2 3.9 -1.8
v -1.1 3.9 -1.8
v -1 3.9 -1.8
v -0.9 3.9 -1.8
v -0.8 3.9 -1.8
v -0.7 3.9 -1.8
v 0.7 3.9 -1.8
v 0.8 3.9 -1.8
v 0.9 3.9 -1.8
v 1 3.9 -1.8
v 1.1 3.9 -1.8
v 1.2 3.9 -1.8
v 1.3 3.9 -1.8
v 1.4 3.9 -1.8
v 1.5 3.9 -1.8
v 1.6 3.9 -1.8
v 1.7 3.9 -1.8
v 1.8 3.9 -1.8
v 1.9 3.9 -1.8
v -1.9 3.9 -1.9
v -1.8 3.9 -1.9
v -1.7 3.9 -1.9
v 1.7 3.9 -1.9
v 1.8 3.9 -1.9
v 1.9 3.9 -1.9
v -1.8 3.9 -2
v -1.7 3.9 -2
v 1.7 3.9 -2
v 1.8 3.9 -2

# faces
f 3/4/1 2/4/1 1/4/1
f 4/4/1 2/4/1 3/4/1
f 7/3/1 6/3/1 5/3/1
f 8/3/1 6/3/1 7/3/1
f 10/3/1 7/3/1 5/3/1
f 11/3/1 7/3/1 10/3/1
f 12/4/1 9/4/1 8/4/1
f 13/4/1 9/4/1 12/4/1
f 16/3/1 15/3/1 14/3/1
f 17/3/1 15/3/1 16/3/1
f 20/3/1 19/3/1 18/3/1
f 21/3/1 19/3/1 20/3/1
f 24/3/1 23/3/1 22/3/1
f 25/3/1 23/3/1 24/3/1
f 28/3/1 27/3/1 26/3/1
f 29/3/1 27/3/1 28/3/1
f 32/3/1 31/3/1 30/3/1
f 33/3/1 31/3/1 32/3/1
f 36/3/1 35/3/1 34/3/1
f 37/3/1 35/3/1 36/3/1
f 40/3/1 39/3/1 38/3/1
f 41/3/1 39/3/1 40/3/1
f 44/3/1 43/3/1 42/3/1
f 45/3/1 43/3/1 44/3/1
f 48/3/1 47/3/1 46/3/1
f 49/3/1 47/3/1 48/3/1
f 52/3/1 51/3/1 50/3/1
f 53/3/1 51/3/1 52/3/1
f 56/1/1 55/1/1 54/1/1
f 57/1/1 55/1/1 56/1/1
f 58/2/1 57/2/1 56/2/1
f 59/2/1 57/2/1 58/2/1
f 60/1/1 59/1/1 58/1/1
f 61/1/1 59/1/1 60/1/1
f 64/3/1 63/3/1 62/3/1
f 65/3/1 64/3/1 62/3/1
f 66/3/1 65/3/1 62/3/1
f 67/3/1 66/3/1 62/3/1
f 68/3/1 67/3/1 62/3/1
f 69/3/1 67/3/1 68/3/1
f 70/3/1 68/3/1 62/3/1
f 71/3/1 68/3/1 70/3/1
f 74/3/1 73/3/1 72/3/1
f 75/3/1 73/3/1 74/3/1
f 78/3/1 77/3/1 76/3/1
f 79/3/1 77/3/1 78/3/1
f 82/3/1 81/3/1 80/3/1
f 83/3/1 81/3/1 82/3/1
f 86/3/1 85/3/1 84/3/1
f 87/3/1 85/3/1 86/3/1
f 90/3/1 89/3/1 88/3/1
f 91/3/1 89/3/1 90/3/1
f 94/3/1 93/3/1 92/3/1
f 95/3/1 93/3/1 94/3/1
f 98/3/1 97/3/1 96/3/1
f 99/3/1 97/3/1 98/3/1
f 102/3/1 101/3/1 100/3/1
f 103/3/1 101/3/1 102/3/1
f 106/3/1 105/3/1 104/3/1
f 107/3/1 105/3/1 106/3/1
f 112/3/1 109/3/1 108/3/1
f 113/3/1 109/3/1 112/3/1
f 114/4/1 111/4/1 110/4/1
f 115/4/1 111/4/1 114/4/1
f 116/3/2 117/3/2 118/3/2
f 118/3/2 117/3/2 119/3/2
f 120/3/2 121/3/2 124/3/2
f 124/3/2 121/3/2 125/3/2
f 122/4/2 123/4/2 126/4/2
f 126/4/2 123/4/2 127/4/2
f 128/3/2 129/3/2 130/3/2
f 130/3/2 129/3/2 131/3/2
f 132/3/2 133/3/2 134/3/2
f 134/3/2 133/3/2 135/3/2
f 136/3/2 137/3/2 138/3/2
f 138/3/2 137/3/2 139/3/2
f 140/3/2 141/3/2 142/3/2
f 142/3/2 141/3/2 143/3/2
f 144/3/2 145/3/2 146/3/2
f 146/3/2 145/3/2 147/3/2
f 148/3/2 149/3/2 150/3/2
f 150/3/2 149/3/2 151/3/2
f 152/3/2 153/3/2 154/3/2
f 154/3/2 153/3/2 155/3/2
f 156/3/2 157/3/2 158/3/2
f 158/3/2 157/3/2 159/3/2
f 160/3/2 161/3/2 162/3/2
f 160/3/2 162/3/2 163/3/2
f 160/3/2 163/3/2 164/3/2
f 160/3/2 164/3/2 165/3/2
f 160/3/2 165/3/2 166/3/2
f 166/3/2 165/3/2 167/3/2
f 160/3/2 166/3/2 168/3/2
f 168/3/2 166/3/2 169/3/2
f 170/1/2 171/1/2 172/1/2
f 172/1/2 171/1/2 173/1/2
f 172/2/2 173/2/2 174/2/2
f 174/2/2 173/2/2 175/2/2
f 174/1/2 175/1/2 176/1/2
f 176/1/2 175/1/2 177/1/2
f 178/3/2 179/3/2 180/3/2
f 180/3/2 179/3/2 181/3/2
f 182/3/2 183/3/2 184/3/2
f 184/3/2 183/3/2 185/3/2
f 186/3/2 187/3/2 188/3/2
f 188/3/2 187/3/2 189/3/2
f 190/3/2 191/3/2 192/3/2
f 192/3/2 191/3/2 193/3/2
f 194/3/2 195/3/2 196/3/2
f 196/3/2 195/3/2 197/3/2
f 198/3/2 199/3/2 200/3/2
f 200/3/2 199/3/2 201/3/2
f 202/3/2 203/3/2 204/3/2
f 204/3/2 203/3/2 205/3/2
f 206/3/2 207/3/2 208/3/2
f 208/3/2 207/3/2 209/3/2
f 210/3/2 211/3/2 212/3/2
f 212/3/2 211/3/2 213/3/2
f 214/3/2 215/3/2 216/3/2
f 216/3/2 215/3/2 217/3/2
f 218/3/2 219/3/2 220/3/2
f 220/3/2 219/3/2 221/3/2
f 218/3/2 220/3/2 223/3/2
f 223/3/2 220/3/2 224/3/2
f 221/4/2 222/4/2 225/4/2
f 225/4/2 222/4/2 226/4/2
f 227/4/2 228/4/2 229/4/2
f 229/4/2 228/4/2 230/4/2
f 233/3/3 232/3/3 231/3/3
f 234/3/3 232/3/3 233/3/3
f 235/3/3 232/3/3 234/3/3
f 236/3/3 232/3/3 235/3/3
f 238/3/3 235/3/3 234/3/3
f 239/3/3 235/3/3 238/3/3
f 241/3/3 238/3/3 237/3/3
f 241/3/3 240/3/3 239/3/3
f 241/3/3 239/3/3 238/3/3
f 242/3/3 240/3/3 241/3/3
f 243/3/3 240/3/3 242/3/3
f 244/3/3 240/3/3 243/3/3
f 246/3/3 243/3/3 242/3/3
f 247/3/3 243/3/3 246/3/3
f 249/3/3 246/3/3 245/3/3
f 249/3/3 248/3/3 247/3/3
f 249/3/3 247/3/3 246/3/3
f 250/3/3 248/3/3 249/3/3
f 251/3/3 248/3/3 250/3/3
f 252/3/3 248/3/3 251/3/3
f 254/3/3 251/3/3 250/3/3
f 255/3/3 251/3/3 254/3/3
f 257/3/3 254/3/3 253/3/3
f 257/3/3 256/3/3 255/3/3
f 257/3/3 255/3/3 254/3/3
f 258/3/3 256/3/3 257/3/3
f 259/3/3 256/3/3 258/3/3
f 260/3/3 256/3/3 259/3/3
f 262/3/3 259/3/3 258/3/3
f 263/3/3 259/3/3 262/3/3
f 265/3/3 262/3/3 261/3/3
f 265/3/3 264/3/3 263/3/3
f 265/3/3 263/3/3 262/3/3
f 266/3/3 264/3/3 265/3/3
f 267/3/3 264/3/3 266/3/3
f 268/3/3 264/3/3 267/3/3
f 270/3/3 267/3/3 266/3/3
f 271/3/3 267/3/3 270/3/3
f 273/3/3 270/3/3 269/3/3
f 273/3/3 272/3/3 271/3/3
f 273/3/3 271/3/3 270/3/3
f 274/3/3 272/3/3 273/3/3
f 277/3/3 276/3/3 275/3/3
f 278/3/3 276/3/3 277/3/3
f 279/3/3 276/3/3 278/3/3
f 280/3/3 276/3/3 279/3/3
f 282/3/3 279/3/3 278/3/3
f 283/3/3 279/3/3 282/3/3
f 285/3/3 282/3/3 281/3/3
f 285/3/3 284/3/3 283/3/3
f 285/3/3 283/3/3 282/3/3
f 286/3/3 284/3/3 285/3/3
f 287/3/3 284/3/3 286/3/3
f 288/3/3 284/3/3 287/3/3
f 290/3/3 287/3/3 286/3/3
f 291/3/3 287/3/3 290/3/3
f 293/3/3 290/3/3 289/3/3
f 293/3/3 292/3/3 291/3/3
f 293/3/3 291/3/3 290/3/3
f 294/3/3 292/3/3 293/3/3
f 295/3/3 292/3/3 294/3/3
f 296/3/3 292/3/3 295/3/3
f 298/3/3 295/3/3 294/3/3
f 299/3/3 295/3/3 298/3/3
f 301/3/3 298/3/3 297/3/3
f 301/3/3 300/3/3 299/3/3
f 301/3/3 299/3/3 298/3/3
f 302/3/3 300/3/3 301/3/3
f 303/3/3 300/3/3 302/3/3
f 304/3/3 300/3/3 303/3/3
f 306/3/3 303/3/3 302/3/3
f 307/3/3 303/3/3 306/3/3
f 309/3/3 306/3/3 305/3/3
f 309/3/3 308/3/3 307/3/3
f 309/3/3 307/3/3 306/3/3
f 310/3/3 308/3/3 309/3/3
f 311/3/3 308/3/3 310/3/3
f 312/3/3 308/3/3 311/3/3
f 314/3/3 311/3/3 310/3/3
f 315/3/3 311/3/3 314/3/3
f 317/3/3 314/3/3 313/3/3
f 317/3/3 316/3/3 315/3/3
f 317/3/3 315/3/3 314/3/3
f 318/3/3 316/3/3 317/3/3
f 321/4/3 320/4/3 319/4/3
f 322/4/3 320/4/3 321/4/3
f 327/3/3 324/3/3 323/3/3
f 328/3/3 324/3/3 327/3/3
f 329/4/3 326/4/3 325/4/3
f 330/4/3 326/4/3 329/4/3
f 335/3/3 332/3/3 331/3/3
f 336/3/3 332/3/3 335/3/3
f 337/4/3 334/4/3 333/4/3
f 338/4/3 334/4/3 337/4/3
f 343/3/3 340/3/3 339/3/3
f 344/3/3 340/3/3 343/3/3
f 345/4/3 342/4/3 341/4/3
f 346/4/3 342/4/3 345/4/3
f 351/3/3 348/3/3 347/3/3
f 352/3/3 348/3/3 351/3/3
f 353/4/3 350/4/3 349/4/3
f 354/4/3 350/4/3 353/4/3
f 359/3/3 356/3/3 355/3/3
f 360/3/3 356/3/3 359/3/3
f 361/4/3 358/4/3 357/4/3
f 362/4/3 358/4/3 361/4/3
f 365/4/3 364/4/3 363/4/3
f 366/4/3 364/4/3 365/4/3
f 371/3/3 368/3/3 367/3/3
f 372/3/3 368/3/3 371/3/3
f 373/4/3 370/4/3 369/4/3
f 374/4/3 370/4/3 373/4/3
f 379/3/3 376/3/3 375/3/3
f 380/3/3 376/3/3 379/3/3
f 381/4/3 378/4/3 377/4/3
f 382/4/3 378/4/3 381/4/3
f 387/3/3 384/3/3 383/3/3
f 388/3/3 384/3/3 387/3/3
f 389/4/3 386/4/3 385/4/3
f 390/4/3 386/4/3 389/4/3
f 395/3/3 392/3/3 391/3/3
f 396/3/3 392/3/3 395/3/3
f 397/4/3 394/4/3 393/4/3
f 398/4/3 394/4/3 397/4/3
f 403/3/3 400/3/3 399/3/3
f 404/3/3 400/3/3 403/3/3
f 405/4/3 402/4/3 401/4/3
f 406/4/3 402/4/3 405/4/3
f 409/4/3 408/4/3 407/4/3
f 410/4/3 408/4/3 409/4/3
f 415/1/3 412/1/3 411/1/3
f 415/2/3 413/2/3 412/2/3
f 416/1/3 414/1/3 413/1/3
f 416/2/3 413/2/3 415/2/3
f 417/1/3 415/1/3 411/1/3
f 417/1/3 416/1/3 415/1/3
f 418/1/3 414/1/3 416/1/3
f 418/1/3 416/1/3 417/1/3
f 419/1/3 417/1/3 411/1/3
f 420/2/3 418/2/3 417/2/3
f 420/1/3 417/1/3 419/1/3
f 421/1/3 414/1/3 418/1/3
f 421/2/3 418/2/3 420/2/3
f 422/1/3 414/1/3 421/1/3
f 423/4/4 424/4/4 426/4/4
f 426/4/4 424/4/4 427/4/4
f 425/3/4 426/3/4 428/3/4
f 425/3/4 428/3/4 430/3/4
f 430/3/4 428/3/4 431/3/4
f 431/3/4 428/3/4 432/3/4
f 432/3/4 428/3/4 433/3/4
f 433/3/4 428/3/4 434/3/4
f 428/4/4 429/4/4 435/4/4
f 434/3/4 428/3/4 435/3/4
f 435/4/4 429/4/4 441/4/4
f 439/3/4 440/3/4 442/3/4
f 440/3/4 441/3/4 442/3/4
f 441/4/4 429/4/4 442/4/4
f 436/3/4 437/3/4 442/3/4
f 438/3/4 439/3/4 442/3/4
f 437/3/4 438/3/4 442/3/4
f 442/4/4 429/4/4 443/4/4
f 436/3/4 442/3/4 444/3/4
f 444/3/4 442/3/4 445/3/4
f 445/4/4 446/4/4 447/4/4
f 447/4/4 446/4/4 448/4/4
f 449/4/4 450/4/4 451/4/4
f 451/4/4 450/4/4 452/4/4
f 453/1/4 454/1/4 457/1/4
f 454/2/4 455/2/4 457/2/4
f 455/1/4 456/1/4 458/1/4
f 457/2/4 455/2/4 458/2/4
f 453/1/4 457/1/4 459/1/4
f 457/1/4 458/1/4 459/1/4
f 458/1/4 456/1/4 460/1/4
f 459/1/4 458/1/4 460/1/4
f 453/1/4 459/1/4 461/1/4
f 459/2/4 460/2/4 462/2/4
f 461/1/4 459/1/4 462/1/4
f 460/1/4 456/1/4 463/1/4
f 462/2/4 460/2/4 463/2/4
f 463/1/4 456/1/4 464/1/4
f 465/4/4 466/4/4 467/4/4
f 467/4/4 466/4/4 468/4/4
f 493/3/5 470/3/5 469/3/5
f 494/3/5 472/3/5 471/3/5
f 495/3/5 472/3/5 494/3/5
f 496/3/5 474/3/5 473/3/5
f 497/3/5 474/3/5 496/3/5
f 498/3/5 476/3/5 475/3/5
f 499/3/5 476/3/5 498/3/5
f 500/3/5 478/3/5 477/3/5
f 501/3/5 478/3/5 500/3/5
f 502/3/5 480/3/5 479/3/5
f 503/3/5 482/3/5 481/3/5
f 504/3/5 484/3/5 483/3/5
f 505/3/5 484/3/5 504/3/5
f 506/3/5 486/3/5 485/3/5
f 507/3/5 486/3/5 506/3/5
f 508/3/5 488/3/5 487/3/5
f 509/3/5 488/3/5 508/3/5
f 510/3/5 490/3/5 489/3/5
f 511/3/5 490/3/5 510/3/5
f 512/3/5 492/3/5 491/3/5
f 513/3/5 493/3/5 469/3/5
f 513/3/5 495/3/5 494/3/5
f 513/3/5 497/3/5 496/3/5
f 513/3/5 499/3/5 498/3/5
f 513/3/5 501/3/5 500/3/5
f 513/3/5 502/3/5 501/3/5
f 513/3/5 494/3/5 493/3/5
f 513/3/5 496/3/5 495/3/5
f 513/3/5 498/3/5 497/3/5
f 513/3/5 500/3/5 499/3/5
f 514/3/5 480/3/5 502/3/5
f 514/3/5 502/3/5 513/3/5
f 515/3/5 511/3/5 510/3/5
f 515/3/5 512/3/5 511/3/5
f 515/3/5 510/3/5 509/3/5
f 515/3/5 508/3/5 507/3/5
f 515/3/5 503/3/5 481/3/5
f 515/3/5 504/3/5 503/3/5
f 515/3/5 505/3/5 504/3/5
f 515/3/5 507/3/5 506/3/5
f 515/3/5 509/3/5 508/3/5
f 515/3/5 506/3/5 505/3/5
f 516/3/5 492/3/5 512/3/5
f 516/3/5 512/3/5 515/3/5
f 519/1/5 518/1/5 517/1/5
f 520/1/5 518/1/5 519/1/5
f 541/3/5 522/3/5 521/3/5
f 542/3/5 522/3/5 541/3/5
f 543/3/5 524/3/5 523/3/5
f 544/3/5 524/3/5 543/3/5
f 545/3/5 526/3/5 525/3/5
f 546/3/5 526/3/5 545/3/5
f 547/3/5 528/3/5 527/3/5
f 548/3/5 528/3/5 547/3/5
f 549/3/5 530/3/5 529/3/5
f 550/3/5 530/3/5 549/3/5
f 551/3/5 532/3/5 531/3/5
f 552/3/5 532/3/5 551/3/5
f 553/3/5 534/3/5 533/3/5
f 554/3/5 534/3/5 553/3/5
f 555/3/5 536/3/5 535/3/5
f 556/3/5 536/3/5 555/3/5
f 557/3/5 538/3/5 537/3/5
f 558/3/5 538/3/5 557/3/5
f 559/3/5 540/3/5 539/3/5
f 560/3/5 540/3/5 559/3/5
f 567/4/5 562/4/5 561/4/5
f 568/4/5 562/4/5 567/4/5
f 570/4/5 564/4/5 563/4/5
f 571/4/5 564/4/5 570/4/5
f 573/4/5 566/4/5 565/4/5
f 574/4/5 566/4/5 573/4/5
f 575/4/5 569/4/5 568/4/5
f 576/4/5 569/4/5 575/4/5
f 577/4/5 573/4/5 572/4/5
f 578/4/5 573/4/5 577/4/5
f 579/1/6 580/1/6 581/1/6
f 581/1/6 580/1/6 582/1/6
f 583/3/6 584/3/6 603/3/6
f 603/3/6 584/3/6 604/3/6
f 585/3/6 586/3/6 605/3/6
f 605/3/6 586/3/6 606/3/6
f 587/3/6 588/3/6 607/3/6
f 607/3/6 588/3/6 608/3/6
f 589/3/6 590/3/6 609/3/6
f 609/3/6 590/3/6 610/3/6
f 591/3/6 592/3/6 611/3/6
f 611/3/6 592/3/6 612/3/6
f 593/3/6 594/3/6 613/3/6
f 613/3/6 594/3/6 614/3/6
f 595/3/6 596/3/6 615/3/6
f 615/3/6 596/3/6 616/3/6
f 597/3/6 598/3/6 617/3/6
f 617/3/6 598/3/6 618/3/6
f 599/3/6 600/3/6 619/3/6
f 619/3/6 600/3/6 620/3/6
f 601/3/6 602/3/6 621/3/6
f 621/3/6 602/3/6 622/3/6
f 623/3/6 624/3/6 648/3/6
f 648/3/6 624/3/6 649/3/6
f 625/3/6 626/3/6 650/3/6
f 650/3/6 626/3/6 651/3/6
f 627/3/6 628/3/6 652/3/6
f 652/3/6 628/3/6 653/3/6
f 629/3/6 630/3/6 654/3/6
f 654/3/6 630/3/6 655/3/6
f 631/3/6 632/3/6 656/3/6
f 656/3/6 632/3/6 657/3/6
f 633/3/6 634/3/6 658/3/6
f 658/3/6 634/3/6 659/3/6
f 635/3/6 636/3/6 660/3/6
f 660/3/6 636/3/6 661/3/6
f 637/3/6 638/3/6 662/3/6
f 662/3/6 638/3/6 663/3/6
f 639/3/6 640/3/6 664/3/6
f 664/3/6 640/3/6 665/3/6
f 641/3/6 642/3/6 666/3/6
f 666/3/6 642/3/6 667/3/6
f 643/3/6 644/3/6 668/3/6
f 668/3/6 644/3/6 669/3/6
f 645/3/6 646/3/6 670/3/6
f 670/3/6 646/3/6 671/3/6
f 668/4/6 669/4/6 673/4/6
f 671/4/6 672/4/6 673/4/6
f 670/4/6 671/4/6 673/4/6
f 669/4/6 670/4/6 673/4/6
f 648/4/6 649/4/6 673/4/6
f 667/4/6 668/4/6 673/4/6
f 650/4/6 651/4/6 673/4/6
f 665/4/6 666/4/6 673/4/6
f 652/4/6 653/4/6 673/4/6
f 663/4/6 664/4/6 673/4/6
f 654/4/6 655/4/6 673/4/6
f 661/4/6 662/4/6 673/4/6
f 656/4/6 657/4/6 673/4/6
f 659/4/6 660/4/6 673/4/6
f 658/4/6 659/4/6 673/4/6
f 657/4/6 658/4/6 673/4/6
f 660/4/6 661/4/6 673/4/6
f 655/4/6 656/4/6 673/4/6
f 662/4/6 663/4/6 673/4/6
f 653/4/6 654/4/6 673/4/6
f 664/4/6 665/4/6 673/4/6
f 651/4/6 652/4/6 673/4/6
f 666/4/6 667/4/6 673/4/6
f 649/4/6 650/4/6 673/4/6
f 647/4/6 648/4/6 673/4/6
f 673/4/6 672/4/6 674/4/6
f 674/4/6 672/4/6 675/4/6
f 675/4/6 672/4/6 676/4/6
f 676/4/6 672/4/6 677/4/6
f 677/4/6 672/4/6 678/4/6
f 674/4/6 675/4/6 679/4/6
f 679/4/6 675/4/6 680/4/6
f 676/4/6 677/4/6 681/4/6
f 681/4/6 677/4/6 682/4/6
