# MagicaVoxel @ Ephtracy

# group
o 

# material
mtllib ItaliaMagnet.mtl
usemtl palette

# normals
vn -1 0 0
vn 1 0 0
vn 0 0 1
vn 0 0 -1
vn 0 -1 0
vn 0 1 0

# texcoords
vt 0.841797 0.5
vt 0.880859 0.5
vt 0.919922 0.5
vt 0.958984 0.5
vt 0.994141 0.5

# verts
v -1.5 0.8 -1.8
v -1.5 0.8 -1.9
v -1.5 2.2 -1.8
v -1.5 2.2 -1.9
v -1.4 1 -1.9
v -1.4 1 -2
v -1.4 2 -1.9
v -1.4 2 -2
v 1.4 1 -1.9
v 1.4 1 -2
v 1.4 2 -1.9
v 1.4 2 -2
v 1.5 0.8 -1.8
v 1.5 0.8 -1.9
v 1.5 2.2 -1.8
v 1.5 2.2 -1.9
v -1.5 0.8 -1.8
v -1.5 2.2 -1.8
v -1.3 1 -1.8
v -1.3 2 -1.8
v -1.2 1 -1.8
v -1.2 2 -1.8
v -1.1 1.9 -1.8
v -1.1 2 -1.8
v -0.9 1 -1.8
v -0.9 1.9 -1.8
v -0.8 1 -1.8
v -0.8 1.9 -1.8
v -0.6 1.9 -1.8
v -0.6 2 -1.8
v -0.5 1 -1.8
v -0.5 2 -1.8
v -0.4 1 -1.8
v -0.4 1.5 -1.8
v -0.4 1.6 -1.8
v -0.4 1.9 -1.8
v -0.1 1 -1.8
v -0.1 1.5 -1.8
v -0.1 1.6 -1.8
v -0.1 1.9 -1.8
v 0 1 -1.8
v 0 2 -1.8
v 0.1 1 -1.8
v 0.1 2 -1.8
v 0.2 1.1 -1.8
v 0.2 2 -1.8
v 0.5 1 -1.8
v 0.5 1.1 -1.8
v 0.6 1 -1.8
v 0.6 2 -1.8
v 0.7 1 -1.8
v 0.7 2 -1.8
v 0.8 1 -1.8
v 0.8 2 -1.8
v 0.9 1 -1.8
v 0.9 1.5 -1.8
v 0.9 1.6 -1.8
v 0.9 1.9 -1.8
v 1.2 1 -1.8
v 1.2 1.5 -1.8
v 1.2 1.6 -1.8
v 1.2 1.9 -1.8
v 1.3 1 -1.8
v 1.3 2 -1.8
v 1.5 0.8 -1.8
v 1.5 2.2 -1.8
v -1.5 0.8 -1.9
v -1.5 2.2 -1.9
v -1.4 1 -1.9
v -1.4 2 -1.9
v 1.4 1 -1.9
v 1.4 2 -1.9
v 1.5 0.8 -1.9
v 1.5 2.2 -1.9
v -1.4 1 -2
v -1.4 2 -2
v 1.4 1 -2
v 1.4 2 -2
v -1.5 0.8 -1.8
v 1.5 0.8 -1.8
v -1.5 0.8 -1.9
v 1.5 0.8 -1.9
v -1.4 1 -1.9
v 1.4 1 -1.9
v -1.4 1 -2
v 1.4 1 -2
v -1.4 2 -1.9
v 1.4 2 -1.9
v -1.4 2 -2
v 1.4 2 -2
v -1.5 2.2 -1.8
v 1.5 2.2 -1.8
v -1.5 2.2 -1.9
v 1.5 2.2 -1.9

# faces
f 3/3/1 2/3/1 1/3/1
f 4/3/1 2/3/1 3/3/1
f 7/5/1 6/5/1 5/5/1
f 8/5/1 6/5/1 7/5/1
f 9/5/2 10/5/2 11/5/2
f 11/5/2 10/5/2 12/5/2
f 13/3/2 14/3/2 15/3/2
f 15/3/2 14/3/2 16/3/2
f 19/3/3 18/3/3 17/3/3
f 20/3/3 18/3/3 19/3/3
f 21/3/3 19/3/3 17/3/3
f 21/2/3 20/2/3 19/2/3
f 22/3/3 18/3/3 20/3/3
f 22/2/3 20/2/3 21/2/3
f 23/3/3 22/3/3 21/3/3
f 24/3/3 18/3/3 22/3/3
f 24/3/3 22/3/3 23/3/3
f 25/3/3 21/3/3 17/3/3
f 25/3/3 23/3/3 21/3/3
f 26/2/3 24/2/3 23/2/3
f 26/3/3 23/3/3 25/3/3
f 27/3/3 25/3/3 17/3/3
f 27/2/3 26/2/3 25/2/3
f 28/2/3 24/2/3 26/2/3
f 28/2/3 26/2/3 27/2/3
f 29/3/3 28/3/3 27/3/3
f 29/2/3 24/2/3 28/2/3
f 30/3/3 18/3/3 24/3/3
f 30/2/3 24/2/3 29/2/3
f 31/3/3 29/3/3 27/3/3
f 31/3/3 27/3/3 17/3/3
f 31/3/3 30/3/3 29/3/3
f 32/3/3 18/3/3 30/3/3
f 32/3/3 30/3/3 31/3/3
f 33/3/3 31/3/3 17/3/3
f 33/4/3 32/4/3 31/4/3
f 34/4/3 32/4/3 33/4/3
f 35/4/3 32/4/3 34/4/3
f 36/4/3 32/4/3 35/4/3
f 37/3/3 33/3/3 17/3/3
f 37/3/3 34/3/3 33/3/3
f 38/4/3 35/4/3 34/4/3
f 38/3/3 34/3/3 37/3/3
f 39/3/3 36/3/3 35/3/3
f 39/4/3 35/4/3 38/4/3
f 40/4/3 32/4/3 36/4/3
f 40/3/3 36/3/3 39/3/3
f 41/4/3 39/4/3 38/4/3
f 41/4/3 38/4/3 37/4/3
f 41/4/3 40/4/3 39/4/3
f 41/3/3 37/3/3 17/3/3
f 42/3/3 18/3/3 32/3/3
f 42/4/3 40/4/3 41/4/3
f 42/4/3 32/4/3 40/4/3
f 43/3/3 41/3/3 17/3/3
f 43/3/3 42/3/3 41/3/3
f 44/3/3 18/3/3 42/3/3
f 44/3/3 42/3/3 43/3/3
f 45/4/3 44/4/3 43/4/3
f 46/3/3 18/3/3 44/3/3
f 46/4/3 44/4/3 45/4/3
f 47/3/3 43/3/3 17/3/3
f 47/4/3 45/4/3 43/4/3
f 48/3/3 46/3/3 45/3/3
f 48/4/3 45/4/3 47/4/3
f 49/3/3 47/3/3 17/3/3
f 49/3/3 48/3/3 47/3/3
f 50/3/3 18/3/3 46/3/3
f 50/3/3 48/3/3 49/3/3
f 50/3/3 46/3/3 48/3/3
f 51/3/3 49/3/3 17/3/3
f 51/1/3 50/1/3 49/1/3
f 52/3/3 18/3/3 50/3/3
f 52/1/3 50/1/3 51/1/3
f 53/3/3 51/3/3 17/3/3
f 53/3/3 52/3/3 51/3/3
f 54/3/3 18/3/3 52/3/3
f 54/3/3 52/3/3 53/3/3
f 55/3/3 53/3/3 17/3/3
f 55/1/3 54/1/3 53/1/3
f 56/1/3 54/1/3 55/1/3
f 57/1/3 54/1/3 56/1/3
f 58/1/3 54/1/3 57/1/3
f 59/3/3 55/3/3 17/3/3
f 59/3/3 56/3/3 55/3/3
f 60/1/3 57/1/3 56/1/3
f 60/3/3 56/3/3 59/3/3
f 61/3/3 58/3/3 57/3/3
f 61/1/3 57/1/3 60/1/3
f 62/1/3 54/1/3 58/1/3
f 62/3/3 58/3/3 61/3/3
f 63/1/3 61/1/3 60/1/3
f 63/1/3 60/1/3 59/1/3
f 63/1/3 62/1/3 61/1/3
f 63/3/3 59/3/3 17/3/3
f 64/3/3 18/3/3 54/3/3
f 64/1/3 62/1/3 63/1/3
f 64/1/3 54/1/3 62/1/3
f 65/3/3 63/3/3 17/3/3
f 65/3/3 64/3/3 63/3/3
f 66/3/3 18/3/3 64/3/3
f 66/3/3 64/3/3 65/3/3
f 67/3/4 68/3/4 69/3/4
f 69/3/4 68/3/4 70/3/4
f 67/3/4 69/3/4 71/3/4
f 70/3/4 68/3/4 72/3/4
f 67/3/4 71/3/4 73/3/4
f 71/3/4 72/3/4 73/3/4
f 72/3/4 68/3/4 74/3/4
f 73/3/4 72/3/4 74/3/4
f 75/5/4 76/5/4 77/5/4
f 77/5/4 76/5/4 78/5/4
f 81/3/5 80/3/5 79/3/5
f 82/3/5 80/3/5 81/3/5
f 85/5/5 84/5/5 83/5/5
f 86/5/5 84/5/5 85/5/5
f 87/5/6 88/5/6 89/5/6
f 89/5/6 88/5/6 90/5/6
f 91/3/6 92/3/6 93/3/6
f 93/3/6 92/3/6 94/3/6
