# MagicaVoxel @ Ephtracy

# group
o 

# material
mtllib MoleMagnet.mtl
usemtl palette

# normals
vn -1 0 0
vn 1 0 0
vn 0 0 1
vn 0 0 -1
vn 0 -1 0
vn 0 1 0

# texcoords
vt 0.537109 0.5
vt 0.955078 0.5
vt 0.986328 0.5
vt 0.990234 0.5
vt 0.994141 0.5

# verts
v -1 0 -1.7
v -1 0 -1.8
v -1 0.1 -1.7
v -1 0.1 -1.8
v -1 0.5 -1.7
v -1 0.5 -1.8
v -1 0.7 -1.7
v -1 0.7 -1.8
v -1 0.9 -1.7
v -1 0.9 -1.8
v -1 1 -1.7
v -1 1 -1.8
v -0.9 1 -1.7
v -0.9 1 -1.8
v -0.9 1.3 -1.7
v -0.9 1.3 -1.8
v -0.8 1 -1.6
v -0.8 1 -1.7
v -0.8 1.3 -1.7
v -0.8 1.3 -1.8
v -0.8 1.5 -1.6
v -0.8 1.5 -1.7
v -0.8 1.6 -1.7
v -0.8 1.6 -1.8
v -0.7 1.6 -1.7
v -0.7 1.6 -1.8
v -0.7 1.8 -1.7
v -0.7 1.8 -1.8
v -0.6 1.2 -1.6
v -0.6 1.2 -1.7
v -0.6 1.3 -1.6
v -0.6 1.3 -1.7
v -0.5 0.3 -1.8
v -0.5 0.3 -1.9
v -0.5 0.5 -1.8
v -0.5 0.7 -1.8
v -0.5 0.9 -1.8
v -0.5 1 -1.8
v -0.5 1.3 -1.6
v -0.5 1.3 -1.7
v -0.5 1.4 -1.6
v -0.5 1.4 -1.7
v -0.5 1.8 -1.7
v -0.5 1.8 -1.8
v -0.5 1.9 -1.8
v -0.5 1.9 -1.9
v -0.5 2 -1.7
v -0.5 2 -1.8
v -0.4 1 -1.6
v -0.4 1 -1.7
v -0.4 1.3 -1.6
v -0.4 1.3 -1.7
v -0.4 1.4 -1.6
v -0.4 1.4 -1.7
v -0.4 1.5 -1.6
v -0.4 1.5 -1.7
v -0.4 2 -1.7
v -0.4 2 -1.8
v -0.4 2.8 -1.7
v -0.4 2.8 -1.8
v -0.2 1 -1.6
v -0.2 1 -1.7
v -0.2 1.5 -1.6
v -0.2 1.5 -1.7
v -0.2 2.1 -1.7
v -0.2 2.1 -1.8
v -0.2 2.6 -1.7
v -0.2 2.6 -1.8
v -0.0999999 2.8 -1.7
v -0.0999999 2.8 -1.8
v -0.0999999 4 -1.7
v -0.0999999 4 -1.8
v 1.19209e-007 1.1 -1.6
v 1.19209e-007 1.1 -1.7
v 1.19209e-007 1.4 -1.6
v 1.19209e-007 1.4 -1.7
v 0.2 1 -1.6
v 0.2 1 -1.7
v 0.2 1.5 -1.6
v 0.2 1.5 -1.7
v 0.3 2.1 -1.7
v 0.3 2.1 -1.8
v 0.3 2.6 -1.7
v 0.3 2.6 -1.8
v 0.5 1 -1.6
v 0.5 1 -1.7
v 0.5 1.5 -1.6
v 0.5 1.5 -1.7
v -0.7 1 -1.6
v -0.7 1 -1.7
v -0.7 1.3 -1.6
v -0.7 1.3 -1.7
v -0.7 1.4 -1.6
v -0.7 1.4 -1.7
v -0.7 1.5 -1.6
v -0.7 1.5 -1.7
v -0.6 1.3 -1.6
v -0.6 1.3 -1.7
v -0.6 1.4 -1.6
v -0.6 1.4 -1.7
v -0.5 1.2 -1.6
v -0.5 1.2 -1.7
v -0.5 1.3 -1.6
v -0.5 1.3 -1.7
v -0.3 1 -1.6
v -0.3 1 -1.7
v -0.3 1.5 -1.6
v -0.3 1.5 -1.7
v -0.3 2.1 -1.7
v -0.3 2.1 -1.8
v -0.3 2.6 -1.7
v -0.3 2.6 -1.8
v -0.0999999 1.1 -1.6
v -0.0999999 1.1 -1.7
v -0.0999999 1.4 -1.6
v -0.0999999 1.4 -1.7
v 0.1 1 -1.6
v 0.1 1 -1.7
v 0.1 1.5 -1.6
v 0.1 1.5 -1.7
v 0.1 2.8 -1.7
v 0.1 2.8 -1.8
v 0.1 4 -1.7
v 0.1 4 -1.8
v 0.2 2.1 -1.7
v 0.2 2.1 -1.8
v 0.2 2.6 -1.7
v 0.2 2.6 -1.8
v 0.3 1.1 -1.6
v 0.3 1.1 -1.7
v 0.3 1.5 -1.6
v 0.3 1.5 -1.7
v 0.4 1 -1.6
v 0.4 1 -1.7
v 0.4 1.1 -1.6
v 0.4 1.1 -1.7
v 0.4 2 -1.7
v 0.4 2 -1.8
v 0.4 2.8 -1.7
v 0.4 2.8 -1.8
v 0.5 0.3 -1.8
v 0.5 0.3 -1.9
v 0.5 0.5 -1.8
v 0.5 0.7 -1.8
v 0.5 0.9 -1.8
v 0.5 1 -1.8
v 0.5 1.8 -1.7
v 0.5 1.8 -1.8
v 0.5 1.9 -1.8
v 0.5 1.9 -1.9
v 0.5 2 -1.7
v 0.5 2 -1.8
v 0.6 1.1 -1.6
v 0.6 1.1 -1.7
v 0.6 1.2 -1.6
v 0.6 1.2 -1.7
v 0.6 1.3 -1.6
v 0.6 1.3 -1.7
v 0.6 1.4 -1.6
v 0.6 1.4 -1.7
v 0.7 1 -1.6
v 0.7 1 -1.7
v 0.7 1.1 -1.6
v 0.7 1.1 -1.7
v 0.7 1.2 -1.6
v 0.7 1.2 -1.7
v 0.7 1.3 -1.6
v 0.7 1.3 -1.7
v 0.7 1.4 -1.6
v 0.7 1.4 -1.7
v 0.7 1.5 -1.6
v 0.7 1.5 -1.7
v 0.7 1.6 -1.7
v 0.7 1.6 -1.8
v 0.7 1.8 -1.7
v 0.7 1.8 -1.8
v 0.8 1.3 -1.7
v 0.8 1.3 -1.8
v 0.8 1.6 -1.7
v 0.8 1.6 -1.8
v 0.9 1 -1.7
v 0.9 1 -1.8
v 0.9 1.3 -1.7
v 0.9 1.3 -1.8
v 1 0 -1.7
v 1 0 -1.8
v 1 0.1 -1.7
v 1 0.1 -1.8
v 1 0.5 -1.7
v 1 0.5 -1.8
v 1 0.7 -1.7
v 1 0.7 -1.8
v 1 0.9 -1.7
v 1 0.9 -1.8
v 1 1 -1.7
v 1 1 -1.8
v -0.8 1 -1.6
v -0.8 1.5 -1.6
v -0.7 1 -1.6
v -0.7 1.3 -1.6
v -0.7 1.4 -1.6
v -0.7 1.5 -1.6
v -0.6 1.2 -1.6
v -0.6 1.3 -1.6
v -0.6 1.4 -1.6
v -0.5 1.2 -1.6
v -0.5 1.3 -1.6
v -0.5 1.4 -1.6
v -0.4 1 -1.6
v -0.4 1.3 -1.6
v -0.4 1.4 -1.6
v -0.4 1.5 -1.6
v -0.3 1 -1.6
v -0.3 1.5 -1.6
v -0.2 1 -1.6
v -0.2 1.5 -1.6
v -0.0999999 1.1 -1.6
v -0.0999999 1.4 -1.6
v 1.19209e-007 1.1 -1.6
v 1.19209e-007 1.4 -1.6
v 0.1 1 -1.6
v 0.1 1.5 -1.6
v 0.2 1 -1.6
v 0.2 1.5 -1.6
v 0.3 1.1 -1.6
v 0.3 1.5 -1.6
v 0.4 1 -1.6
v 0.4 1.1 -1.6
v 0.5 1 -1.6
v 0.5 1.5 -1.6
v 0.6 1.1 -1.6
v 0.6 1.2 -1.6
v 0.6 1.3 -1.6
v 0.6 1.4 -1.6
v 0.7 1 -1.6
v 0.7 1.1 -1.6
v 0.7 1.2 -1.6
v 0.7 1.3 -1.6
v 0.7 1.4 -1.6
v 0.7 1.5 -1.6
v -1 0 -1.7
v -1 0.1 -1.7
v -1 0.5 -1.7
v -1 0.7 -1.7
v -1 0.9 -1.7
v -1 1 -1.7
v -0.9 0.1 -1.7
v -0.9 0.5 -1.7
v -0.9 1 -1.7
v -0.9 1.3 -1.7
v -0.8 0.1 -1.7
v -0.8 0.5 -1.7
v -0.8 1 -1.7
v -0.8 1.3 -1.7
v -0.8 1.5 -1.7
v -0.8 1.6 -1.7
v -0.7 1 -1.7
v -0.7 1.3 -1.7
v -0.7 1.4 -1.7
v -0.7 1.5 -1.7
v -0.7 1.6 -1.7
v -0.7 1.8 -1.7
v -0.6 0.1 -1.7
v -0.6 0.5 -1.7
v -0.6 1.2 -1.7
v -0.6 1.3 -1.7
v -0.6 1.4 -1.7
v -0.5 0.1 -1.7
v -0.5 0.5 -1.7
v -0.5 1.2 -1.7
v -0.5 1.3 -1.7
v -0.5 1.4 -1.7
v -0.5 1.8 -1.7
v -0.5 2 -1.7
v -0.4 1 -1.7
v -0.4 1.3 -1.7
v -0.4 1.4 -1.7
v -0.4 1.5 -1.7
v -0.4 2 -1.7
v -0.4 2.8 -1.7
v -0.3 0.1 -1.7
v -0.3 0.5 -1.7
v -0.3 1 -1.7
v -0.3 1.5 -1.7
v -0.3 2.1 -1.7
v -0.3 2.6 -1.7
v -0.2 0.1 -1.7
v -0.2 0.5 -1.7
v -0.2 1 -1.7
v -0.2 1.5 -1.7
v -0.2 2.1 -1.7
v -0.2 2.6 -1.7
v -0.0999999 1.1 -1.7
v -0.0999999 1.4 -1.7
v -0.0999999 2.8 -1.7
v -0.0999999 4 -1.7
v 1.19209e-007 0.1 -1.7
v 1.19209e-007 0.5 -1.7
v 1.19209e-007 1.1 -1.7
v 1.19209e-007 1.4 -1.7
v 0.1 0.1 -1.7
v 0.1 0.5 -1.7
v 0.1 1 -1.7
v 0.1 1.5 -1.7
v 0.1 2.8 -1.7
v 0.1 4 -1.7
v 0.2 1 -1.7
v 0.2 1.5 -1.7
v 0.2 2.1 -1.7
v 0.2 2.6 -1.7
v 0.3 0.1 -1.7
v 0.3 0.5 -1.7
v 0.3 1.1 -1.7
v 0.3 1.5 -1.7
v 0.3 2.1 -1.7
v 0.3 2.6 -1.7
v 0.4 0.1 -1.7
v 0.4 0.5 -1.7
v 0.4 1 -1.7
v 0.4 1.1 -1.7
v 0.4 2 -1.7
v 0.4 2.8 -1.7
v 0.5 1 -1.7
v 0.5 1.5 -1.7
v 0.5 1.8 -1.7
v 0.5 2 -1.7
v 0.6 0.1 -1.7
v 0.6 0.5 -1.7
v 0.6 1.1 -1.7
v 0.6 1.2 -1.7
v 0.6 1.3 -1.7
v 0.6 1.4 -1.7
v 0.7 0.1 -1.7
v 0.7 0.5 -1.7
v 0.7 1 -1.7
v 0.7 1.1 -1.7
v 0.7 1.2 -1.7
v 0.7 1.3 -1.7
v 0.7 1.4 -1.7
v 0.7 1.5 -1.7
v 0.7 1.6 -1.7
v 0.7 1.8 -1.7
v 0.8 1.3 -1.7
v 0.8 1.6 -1.7
v 0.9 0.1 -1.7
v 0.9 0.5 -1.7
v 0.9 1 -1.7
v 0.9 1.3 -1.7
v 1 0 -1.7
v 1 0.1 -1.7
v 1 0.5 -1.7
v 1 0.7 -1.7
v 1 0.9 -1.7
v 1 1 -1.7
v -1 0 -1.8
v -1 0.1 -1.8
v -1 0.5 -1.8
v -1 0.7 -1.8
v -1 0.9 -1.8
v -1 1 -1.8
v -0.9 0.1 -1.8
v -0.9 0.5 -1.8
v -0.9 1 -1.8
v -0.9 1.3 -1.8
v -0.8 0.1 -1.8
v -0.8 0.5 -1.8
v -0.8 1.3 -1.8
v -0.8 1.6 -1.8
v -0.7 1.6 -1.8
v -0.7 1.8 -1.8
v -0.6 0.1 -1.8
v -0.6 0.5 -1.8
v -0.5 0.1 -1.8
v -0.5 0.3 -1.8
v -0.5 0.5 -1.8
v -0.5 0.7 -1.8
v -0.5 0.9 -1.8
v -0.5 1 -1.8
v -0.5 1.8 -1.8
v -0.5 1.9 -1.8
v -0.5 2 -1.8
v -0.4 2 -1.8
v -0.4 2.8 -1.8
v -0.3 0.1 -1.8
v -0.3 0.3 -1.8
v -0.3 2.1 -1.8
v -0.3 2.6 -1.8
v -0.2 0.1 -1.8
v -0.2 0.3 -1.8
v -0.2 2.1 -1.8
v -0.2 2.6 -1.8
v -0.0999999 2.8 -1.8
v -0.0999999 4 -1.8
v 1.19209e-007 0.1 -1.8
v 1.19209e-007 0.3 -1.8
v 0.1 0.1 -1.8
v 0.1 0.3 -1.8
v 0.1 2.8 -1.8
v 0.1 4 -1.8
v 0.2 2.1 -1.8
v 0.2 2.6 -1.8
v 0.3 0.1 -1.8
v 0.3 0.3 -1.8
v 0.3 2.1 -1.8
v 0.3 2.6 -1.8
v 0.4 0.1 -1.8
v 0.4 0.3 -1.8
v 0.4 2 -1.8
v 0.4 2.8 -1.8
v 0.5 0.3 -1.8
v 0.5 0.5 -1.8
v 0.5 0.7 -1.8
v 0.5 0.9 -1.8
v 0.5 1 -1.8
v 0.5 1.8 -1.8
v 0.5 1.9 -1.8
v 0.5 2 -1.8
v 0.6 0.1 -1.8
v 0.6 0.5 -1.8
v 0.7 0.1 -1.8
v 0.7 0.5 -1.8
v 0.7 1.6 -1.8
v 0.7 1.8 -1.8
v 0.8 1.3 -1.8
v 0.8 1.6 -1.8
v 0.9 0.1 -1.8
v 0.9 0.5 -1.8
v 0.9 1 -1.8
v 0.9 1.3 -1.8
v 1 0 -1.8
v 1 0.1 -1.8
v 1 0.5 -1.8
v 1 0.7 -1.8
v 1 0.9 -1.8
v 1 1 -1.8
v -0.5 0.3 -1.9
v -0.5 1.9 -1.9
v 0.5 0.3 -1.9
v 0.5 1.9 -1.9
v -1 0 -1.7
v 1 0 -1.7
v -1 0 -1.8
v 1 0 -1.8
v -0.5 0.3 -1.8
v -0.3 0.3 -1.8
v -0.2 0.3 -1.8
v 1.19209e-007 0.3 -1.8
v 0.1 0.3 -1.8
v 0.3 0.3 -1.8
v 0.4 0.3 -1.8
v 0.5 0.3 -1.8
v -0.5 0.3 -1.9
v 0.5 0.3 -1.9
v -0.8 1 -1.6
v -0.7 1 -1.6
v -0.4 1 -1.6
v -0.3 1 -1.6
v -0.2 1 -1.6
v 0.1 1 -1.6
v 0.2 1 -1.6
v 0.4 1 -1.6
v 0.5 1 -1.6
v 0.7 1 -1.6
v -0.8 1 -1.7
v -0.7 1 -1.7
v -0.4 1 -1.7
v -0.3 1 -1.7
v -0.2 1 -1.7
v 0.1 1 -1.7
v 0.2 1 -1.7
v 0.4 1 -1.7
v 0.5 1 -1.7
v 0.7 1 -1.7
v -0.6 1.2 -1.6
v -0.5 1.2 -1.6
v 0.6 1.2 -1.6
v 0.7 1.2 -1.6
v -0.6 1.2 -1.7
v -0.5 1.2 -1.7
v 0.6 1.2 -1.7
v 0.7 1.2 -1.7
v -0.7 1.3 -1.6
v -0.6 1.3 -1.6
v -0.5 1.3 -1.6
v -0.4 1.3 -1.6
v -0.7 1.3 -1.7
v -0.6 1.3 -1.7
v -0.5 1.3 -1.7
v -0.4 1.3 -1.7
v -0.0999999 1.4 -1.6
v 1.19209e-007 1.4 -1.6
v 0.6 1.4 -1.6
v 0.7 1.4 -1.6
v -0.0999999 1.4 -1.7
v 1.19209e-007 1.4 -1.7
v 0.6 1.4 -1.7
v 0.7 1.4 -1.7
v -0.3 2.6 -1.7
v -0.2 2.6 -1.7
v 0.2 2.6 -1.7
v 0.3 2.6 -1.7
v -0.3 2.6 -1.8
v -0.2 2.6 -1.8
v 0.2 2.6 -1.8
v 0.3 2.6 -1.8
v -1 1 -1.7
v -0.9 1 -1.7
v 0.9 1 -1.7
v 1 1 -1.7
v -1 1 -1.8
v -0.9 1 -1.8
v 0.9 1 -1.8
v 1 1 -1.8
v -0.0999999 1.1 -1.6
v 1.19209e-007 1.1 -1.6
v 0.3 1.1 -1.6
v 0.4 1.1 -1.6
v 0.6 1.1 -1.6
v 0.7 1.1 -1.6
v -0.0999999 1.1 -1.7
v 1.19209e-007 1.1 -1.7
v 0.3 1.1 -1.7
v 0.4 1.1 -1.7
v 0.6 1.1 -1.7
v 0.7 1.1 -1.7
v -0.6 1.3 -1.6
v -0.5 1.3 -1.6
v 0.6 1.3 -1.6
v 0.7 1.3 -1.6
v -0.9 1.3 -1.7
v -0.8 1.3 -1.7
v -0.6 1.3 -1.7
v -0.5 1.3 -1.7
v 0.6 1.3 -1.7
v 0.7 1.3 -1.7
v 0.8 1.3 -1.7
v 0.9 1.3 -1.7
v -0.9 1.3 -1.8
v -0.8 1.3 -1.8
v 0.8 1.3 -1.8
v 0.9 1.3 -1.8
v -0.7 1.4 -1.6
v -0.6 1.4 -1.6
v -0.5 1.4 -1.6
v -0.4 1.4 -1.6
v -0.7 1.4 -1.7
v -0.6 1.4 -1.7
v -0.5 1.4 -1.7
v -0.4 1.4 -1.7
v -0.8 1.5 -1.6
v -0.7 1.5 -1.6
v -0.4 1.5 -1.6
v -0.3 1.5 -1.6
v -0.2 1.5 -1.6
v 0.1 1.5 -1.6
v 0.2 1.5 -1.6
v 0.3 1.5 -1.6
v 0.5 1.5 -1.6
v 0.7 1.5 -1.6
v -0.8 1.5 -1.7
v -0.7 1.5 -1.7
v -0.4 1.5 -1.7
v -0.3 1.5 -1.7
v -0.2 1.5 -1.7
v 0.1 1.5 -1.7
v 0.2 1.5 -1.7
v 0.3 1.5 -1.7
v 0.5 1.5 -1.7
v 0.7 1.5 -1.7
v -0.8 1.6 -1.7
v -0.7 1.6 -1.7
v 0.7 1.6 -1.7
v 0.8 1.6 -1.7
v -0.8 1.6 -1.8
v -0.7 1.6 -1.8
v 0.7 1.6 -1.8
v 0.8 1.6 -1.8
v -0.7 1.8 -1.7
v -0.5 1.8 -1.7
v 0.5 1.8 -1.7
v 0.7 1.8 -1.7
v -0.7 1.8 -1.8
v -0.5 1.8 -1.8
v 0.5 1.8 -1.8
v 0.7 1.8 -1.8
v -0.5 1.9 -1.8
v 0.5 1.9 -1.8
v -0.5 1.9 -1.9
v 0.5 1.9 -1.9
v -0.5 2 -1.7
v -0.4 2 -1.7
v 0.4 2 -1.7
v 0.5 2 -1.7
v -0.5 2 -1.8
v -0.4 2 -1.8
v 0.4 2 -1.8
v 0.5 2 -1.8
v -0.3 2.1 -1.7
v -0.2 2.1 -1.7
v 0.2 2.1 -1.7
v 0.3 2.1 -1.7
v -0.3 2.1 -1.8
v -0.2 2.1 -1.8
v 0.2 2.1 -1.8
v 0.3 2.1 -1.8
v -0.4 2.8 -1.7
v -0.0999999 2.8 -1.7
v 0.1 2.8 -1.7
v 0.4 2.8 -1.7
v -0.4 2.8 -1.8
v -0.0999999 2.8 -1.8
v 0.1 2.8 -1.8
v 0.4 2.8 -1.8
v -0.0999999 4 -1.7
v 0.1 4 -1.7
v -0.0999999 4 -1.8
v 0.1 4 -1.8

# faces
f 3/5/1 2/5/1 1/5/1
f 4/5/1 2/5/1 3/5/1
f 5/1/1 4/1/1 3/1/1
f 6/1/1 4/1/1 5/1/1
f 7/5/1 6/5/1 5/5/1
f 8/5/1 6/5/1 7/5/1
f 9/1/1 8/1/1 7/1/1
f 10/1/1 8/1/1 9/1/1
f 11/5/1 10/5/1 9/5/1
f 12/5/1 10/5/1 11/5/1
f 15/3/1 14/3/1 13/3/1
f 16/3/1 14/3/1 15/3/1
f 19/2/1 18/2/1 17/2/1
f 21/2/1 19/2/1 17/2/1
f 22/3/1 20/3/1 19/3/1
f 22/2/1 19/2/1 21/2/1
f 23/3/1 20/3/1 22/3/1
f 24/3/1 20/3/1 23/3/1
f 27/3/1 26/3/1 25/3/1
f 28/3/1 26/3/1 27/3/1
f 31/2/1 30/2/1 29/2/1
f 32/2/1 30/2/1 31/2/1
f 35/5/1 34/5/1 33/5/1
f 36/5/1 34/5/1 35/5/1
f 37/5/1 34/5/1 36/5/1
f 38/5/1 34/5/1 37/5/1
f 41/2/1 40/2/1 39/2/1
f 42/2/1 40/2/1 41/2/1
f 44/5/1 34/5/1 38/5/1
f 45/5/1 34/5/1 44/5/1
f 45/3/1 44/3/1 43/3/1
f 46/5/1 34/5/1 45/5/1
f 47/3/1 45/3/1 43/3/1
f 48/3/1 45/3/1 47/3/1
f 51/2/1 50/2/1 49/2/1
f 52/2/1 50/2/1 51/2/1
f 55/2/1 54/2/1 53/2/1
f 56/2/1 54/2/1 55/2/1
f 59/3/1 58/3/1 57/3/1
f 60/3/1 58/3/1 59/3/1
f 63/2/1 62/2/1 61/2/1
f 64/2/1 62/2/1 63/2/1
f 67/3/1 66/3/1 65/3/1
f 68/3/1 66/3/1 67/3/1
f 71/3/1 70/3/1 69/3/1
f 72/3/1 70/3/1 71/3/1
f 75/2/1 74/2/1 73/2/1
f 76/2/1 74/2/1 75/2/1
f 79/2/1 78/2/1 77/2/1
f 80/2/1 78/2/1 79/2/1
f 83/3/1 82/3/1 81/3/1
f 84/3/1 82/3/1 83/3/1
f 87/2/1 86/2/1 85/2/1
f 88/2/1 86/2/1 87/2/1
f 89/2/2 90/2/2 91/2/2
f 91/2/2 90/2/2 92/2/2
f 93/2/2 94/2/2 95/2/2
f 95/2/2 94/2/2 96/2/2
f 97/2/2 98/2/2 99/2/2
f 99/2/2 98/2/2 100/2/2
f 101/2/2 102/2/2 103/2/2
f 103/2/2 102/2/2 104/2/2
f 105/2/2 106/2/2 107/2/2
f 107/2/2 106/2/2 108/2/2
f 109/3/2 110/3/2 111/3/2
f 111/3/2 110/3/2 112/3/2
f 113/2/2 114/2/2 115/2/2
f 115/2/2 114/2/2 116/2/2
f 117/2/2 118/2/2 119/2/2
f 119/2/2 118/2/2 120/2/2
f 121/3/2 122/3/2 123/3/2
f 123/3/2 122/3/2 124/3/2
f 125/3/2 126/3/2 127/3/2
f 127/3/2 126/3/2 128/3/2
f 129/2/2 130/2/2 131/2/2
f 131/2/2 130/2/2 132/2/2
f 133/2/2 134/2/2 135/2/2
f 135/2/2 134/2/2 136/2/2
f 137/3/2 138/3/2 139/3/2
f 139/3/2 138/3/2 140/3/2
f 141/5/2 142/5/2 143/5/2
f 143/5/2 142/5/2 144/5/2
f 144/5/2 142/5/2 145/5/2
f 145/5/2 142/5/2 146/5/2
f 146/5/2 142/5/2 148/5/2
f 148/5/2 142/5/2 149/5/2
f 147/3/2 148/3/2 149/3/2
f 149/5/2 142/5/2 150/5/2
f 147/3/2 149/3/2 151/3/2
f 151/3/2 149/3/2 152/3/2
f 153/2/2 154/2/2 155/2/2
f 155/2/2 154/2/2 156/2/2
f 157/2/2 158/2/2 159/2/2
f 159/2/2 158/2/2 160/2/2
f 161/2/2 162/2/2 163/2/2
f 163/2/2 162/2/2 164/2/2
f 165/2/2 166/2/2 167/2/2
f 167/2/2 166/2/2 168/2/2
f 169/2/2 170/2/2 171/2/2
f 171/2/2 170/2/2 172/2/2
f 173/3/2 174/3/2 175/3/2
f 175/3/2 174/3/2 176/3/2
f 177/3/2 178/3/2 179/3/2
f 179/3/2 178/3/2 180/3/2
f 181/3/2 182/3/2 183/3/2
f 183/3/2 182/3/2 184/3/2
f 185/5/2 186/5/2 187/5/2
f 187/5/2 186/5/2 188/5/2
f 187/4/2 188/4/2 189/4/2
f 189/4/2 188/4/2 190/4/2
f 189/5/2 190/5/2 191/5/2
f 191/5/2 190/5/2 192/5/2
f 191/1/2 192/1/2 193/1/2
f 193/1/2 192/1/2 194/1/2
f 193/5/2 194/5/2 195/5/2
f 195/5/2 194/5/2 196/5/2
f 199/2/3 198/2/3 197/2/3
f 200/2/3 198/2/3 199/2/3
f 201/2/3 198/2/3 200/2/3
f 202/2/3 198/2/3 201/2/3
f 204/2/3 201/2/3 200/2/3
f 205/2/3 201/2/3 204/2/3
f 206/2/3 204/2/3 203/2/3
f 207/2/3 204/2/3 206/2/3
f 210/2/3 208/2/3 207/2/3
f 211/2/3 208/2/3 210/2/3
f 213/2/3 211/2/3 210/2/3
f 213/2/3 212/2/3 211/2/3
f 213/2/3 210/2/3 209/2/3
f 214/2/3 212/2/3 213/2/3
f 217/2/3 216/2/3 215/2/3
f 218/2/3 216/2/3 217/2/3
f 219/2/3 217/2/3 215/2/3
f 220/2/3 216/2/3 218/2/3
f 221/2/3 219/2/3 215/2/3
f 221/2/3 220/2/3 219/2/3
f 222/2/3 216/2/3 220/2/3
f 222/2/3 220/2/3 221/2/3
f 225/2/3 224/2/3 223/2/3
f 226/2/3 224/2/3 225/2/3
f 227/2/3 225/2/3 223/2/3
f 228/2/3 225/2/3 227/2/3
f 231/2/3 230/2/3 229/2/3
f 232/2/3 230/2/3 231/2/3
f 233/2/3 230/2/3 232/2/3
f 234/2/3 230/2/3 233/2/3
f 235/2/3 231/2/3 229/2/3
f 236/2/3 231/2/3 235/2/3
f 237/2/3 233/2/3 232/2/3
f 238/2/3 233/2/3 237/2/3
f 239/2/3 230/2/3 234/2/3
f 240/2/3 230/2/3 239/2/3
f 247/5/3 242/5/3 241/5/3
f 247/1/3 243/1/3 242/1/3
f 248/5/3 244/5/3 243/5/3
f 248/1/3 243/1/3 247/1/3
f 249/5/3 246/5/3 245/5/3
f 251/5/3 247/5/3 241/5/3
f 251/4/3 248/4/3 247/4/3
f 252/5/3 244/5/3 248/5/3
f 252/4/3 248/4/3 251/4/3
f 253/3/3 250/3/3 249/3/3
f 253/5/3 249/5/3 245/5/3
f 254/3/3 250/3/3 253/3/3
f 257/5/3 253/5/3 245/5/3
f 260/3/3 256/3/3 255/3/3
f 261/3/3 256/3/3 260/3/3
f 263/5/3 251/5/3 241/5/3
f 263/1/3 252/1/3 251/1/3
f 264/5/3 244/5/3 252/5/3
f 264/1/3 252/1/3 263/1/3
f 265/3/3 258/3/3 257/3/3
f 266/3/3 258/3/3 265/3/3
f 267/3/3 262/3/3 261/3/3
f 267/3/3 261/3/3 260/3/3
f 267/3/3 260/3/3 259/3/3
f 268/5/3 263/5/3 241/5/3
f 268/4/3 264/4/3 263/4/3
f 269/5/3 244/5/3 264/5/3
f 269/4/3 264/4/3 268/4/3
f 270/3/3 265/3/3 257/3/3
f 271/3/3 267/3/3 266/3/3
f 272/3/3 262/3/3 267/3/3
f 272/3/3 267/3/3 271/3/3
f 273/3/3 262/3/3 272/3/3
f 275/3/3 270/3/3 257/3/3
f 275/3/3 271/3/3 270/3/3
f 275/5/3 257/5/3 245/5/3
f 276/3/3 271/3/3 275/3/3
f 277/3/3 274/3/3 273/3/3
f 277/3/3 273/3/3 272/3/3
f 278/3/3 274/3/3 277/3/3
f 279/3/3 274/3/3 278/3/3
f 281/5/3 268/5/3 241/5/3
f 281/1/3 269/1/3 268/1/3
f 282/5/3 244/5/3 269/5/3
f 282/1/3 269/1/3 281/1/3
f 283/5/3 275/5/3 245/5/3
f 284/3/3 280/3/3 279/3/3
f 284/3/3 279/3/3 278/3/3
f 285/3/3 280/3/3 284/3/3
f 286/3/3 280/3/3 285/3/3
f 287/5/3 281/5/3 241/5/3
f 287/4/3 282/4/3 281/4/3
f 288/5/3 244/5/3 282/5/3
f 288/4/3 282/4/3 287/4/3
f 289/5/3 283/5/3 245/5/3
f 289/3/3 285/3/3 284/3/3
f 289/3/3 284/3/3 283/3/3
f 290/3/3 285/3/3 289/3/3
f 291/3/3 285/3/3 290/3/3
f 292/3/3 280/3/3 286/3/3
f 295/3/3 291/3/3 290/3/3
f 295/3/3 292/3/3 291/3/3
f 295/3/3 280/3/3 292/3/3
f 297/5/3 287/5/3 241/5/3
f 297/1/3 288/1/3 287/1/3
f 298/5/3 244/5/3 288/5/3
f 298/1/3 288/1/3 297/1/3
f 299/3/3 294/3/3 293/3/3
f 300/3/3 294/3/3 299/3/3
f 301/5/3 297/5/3 241/5/3
f 301/4/3 298/4/3 297/4/3
f 302/5/3 244/5/3 298/5/3
f 302/4/3 298/4/3 301/4/3
f 303/5/3 289/5/3 245/5/3
f 304/3/3 296/3/3 295/3/3
f 304/3/3 295/3/3 290/3/3
f 305/3/3 296/3/3 304/3/3
f 306/3/3 296/3/3 305/3/3
f 307/5/3 303/5/3 245/5/3
f 307/3/3 304/3/3 303/3/3
f 307/3/3 305/3/3 304/3/3
f 308/3/3 305/3/3 307/3/3
f 309/3/3 305/3/3 308/3/3
f 310/3/3 305/3/3 309/3/3
f 311/1/3 302/1/3 301/1/3
f 311/5/3 301/5/3 241/5/3
f 312/5/3 244/5/3 302/5/3
f 312/1/3 302/1/3 311/1/3
f 314/3/3 309/3/3 308/3/3
f 315/3/3 309/3/3 314/3/3
f 316/3/3 305/3/3 310/3/3
f 317/5/3 311/5/3 241/5/3
f 317/4/3 312/4/3 311/4/3
f 318/5/3 244/5/3 312/5/3
f 318/4/3 312/4/3 317/4/3
f 319/5/3 307/5/3 245/5/3
f 320/3/3 315/3/3 314/3/3
f 320/3/3 316/3/3 315/3/3
f 320/3/3 314/3/3 313/3/3
f 321/3/3 316/3/3 320/3/3
f 322/3/3 305/3/3 316/3/3
f 322/3/3 316/3/3 321/3/3
f 323/5/3 319/5/3 245/5/3
f 323/3/3 321/3/3 320/3/3
f 323/3/3 320/3/3 319/3/3
f 324/3/3 321/3/3 323/3/3
f 325/3/3 321/3/3 324/3/3
f 326/3/3 321/3/3 325/3/3
f 327/5/3 317/5/3 241/5/3
f 327/1/3 318/1/3 317/1/3
f 328/5/3 244/5/3 318/5/3
f 328/1/3 318/1/3 327/1/3
f 333/5/3 327/5/3 241/5/3
f 333/4/3 328/4/3 327/4/3
f 334/5/3 244/5/3 328/5/3
f 334/4/3 328/4/3 333/4/3
f 335/5/3 323/5/3 245/5/3
f 336/3/3 330/3/3 329/3/3
f 337/3/3 330/3/3 336/3/3
f 338/3/3 332/3/3 331/3/3
f 339/3/3 332/3/3 338/3/3
f 340/3/3 325/3/3 324/3/3
f 341/3/3 325/3/3 340/3/3
f 342/3/3 325/3/3 341/3/3
f 343/3/3 339/3/3 338/3/3
f 343/3/3 337/3/3 336/3/3
f 343/3/3 341/3/3 340/3/3
f 343/3/3 340/3/3 339/3/3
f 343/3/3 336/3/3 335/3/3
f 343/3/3 338/3/3 337/3/3
f 344/3/3 341/3/3 343/3/3
f 345/5/3 333/5/3 241/5/3
f 345/1/3 334/1/3 333/1/3
f 346/5/3 244/5/3 334/5/3
f 346/1/3 334/1/3 345/1/3
f 347/5/3 335/5/3 245/5/3
f 347/3/3 343/3/3 335/3/3
f 348/3/3 343/3/3 347/3/3
f 349/5/3 345/5/3 241/5/3
f 350/4/3 346/4/3 345/4/3
f 350/5/3 345/5/3 349/5/3
f 351/5/3 244/5/3 346/5/3
f 351/4/3 346/4/3 350/4/3
f 352/1/3 245/1/3 244/1/3
f 352/5/3 244/5/3 351/5/3
f 353/5/3 347/5/3 245/5/3
f 353/1/3 245/1/3 352/1/3
f 354/5/3 347/5/3 353/5/3
f 355/5/4 356/5/4 361/5/4
f 356/1/4 357/1/4 361/1/4
f 357/5/4 358/5/4 362/5/4
f 361/1/4 357/1/4 362/1/4
f 359/5/4 360/5/4 363/5/4
f 355/5/4 361/5/4 365/5/4
f 361/4/4 362/4/4 365/4/4
f 362/5/4 358/5/4 366/5/4
f 365/4/4 362/4/4 366/4/4
f 363/3/4 364/3/4 367/3/4
f 367/3/4 368/3/4 369/3/4
f 355/5/4 365/5/4 371/5/4
f 365/1/4 366/1/4 371/1/4
f 366/5/4 358/5/4 372/5/4
f 371/1/4 366/1/4 372/1/4
f 355/5/4 371/5/4 373/5/4
f 371/4/4 372/4/4 373/4/4
f 373/4/4 372/4/4 374/4/4
f 372/5/4 358/5/4 375/5/4
f 374/4/4 372/4/4 375/4/4
f 358/1/4 359/1/4 376/1/4
f 375/5/4 358/5/4 376/5/4
f 359/5/4 363/5/4 377/5/4
f 376/1/4 359/1/4 377/1/4
f 369/3/4 370/3/4 378/3/4
f 377/5/4 363/5/4 378/5/4
f 367/3/4 369/3/4 378/3/4
f 363/3/4 367/3/4 378/3/4
f 378/3/4 370/3/4 379/3/4
f 380/3/4 381/3/4 382/3/4
f 355/5/4 373/5/4 384/5/4
f 373/1/4 374/1/4 384/1/4
f 384/1/4 374/1/4 385/1/4
f 382/3/4 383/3/4 386/3/4
f 386/3/4 383/3/4 387/3/4
f 384/4/4 385/4/4 388/4/4
f 355/5/4 384/5/4 388/5/4
f 388/4/4 385/4/4 389/4/4
f 382/3/4 386/3/4 390/3/4
f 387/3/4 383/3/4 391/3/4
f 391/3/4 383/3/4 392/3/4
f 390/3/4 391/3/4 392/3/4
f 388/1/4 389/1/4 394/1/4
f 355/5/4 388/5/4 394/5/4
f 394/1/4 389/1/4 395/1/4
f 355/5/4 394/5/4 396/5/4
f 394/4/4 395/4/4 396/4/4
f 396/4/4 395/4/4 397/4/4
f 392/3/4 393/3/4 398/3/4
f 390/3/4 392/3/4 398/3/4
f 398/3/4 393/3/4 399/3/4
f 382/3/4 390/3/4 400/3/4
f 390/3/4 398/3/4 400/3/4
f 400/3/4 398/3/4 401/3/4
f 396/1/4 397/1/4 402/1/4
f 355/5/4 396/5/4 402/5/4
f 402/1/4 397/1/4 403/1/4
f 382/3/4 400/3/4 404/3/4
f 401/3/4 398/3/4 405/3/4
f 402/4/4 403/4/4 406/4/4
f 355/5/4 402/5/4 406/5/4
f 406/4/4 403/4/4 407/4/4
f 380/3/4 382/3/4 408/3/4
f 382/3/4 404/3/4 408/3/4
f 404/3/4 405/3/4 408/3/4
f 405/3/4 398/3/4 409/3/4
f 408/3/4 405/3/4 409/3/4
f 406/1/4 407/1/4 410/1/4
f 380/3/4 408/3/4 416/3/4
f 416/3/4 408/3/4 417/3/4
f 355/5/4 406/5/4 418/5/4
f 406/1/4 410/1/4 418/1/4
f 410/1/4 411/1/4 418/1/4
f 411/5/4 412/5/4 419/5/4
f 418/1/4 411/1/4 419/1/4
f 355/5/4 418/5/4 420/5/4
f 418/4/4 419/4/4 420/4/4
f 419/5/4 412/5/4 421/5/4
f 420/4/4 419/4/4 421/4/4
f 414/3/4 415/3/4 422/3/4
f 422/3/4 415/3/4 423/3/4
f 414/3/4 422/3/4 424/3/4
f 424/3/4 422/3/4 425/3/4
f 355/5/4 420/5/4 426/5/4
f 420/1/4 421/1/4 426/1/4
f 421/5/4 412/5/4 427/5/4
f 426/1/4 421/1/4 427/1/4
f 413/5/4 414/5/4 428/5/4
f 414/3/4 424/3/4 428/3/4
f 428/3/4 424/3/4 429/3/4
f 355/5/4 426/5/4 430/5/4
f 426/4/4 427/4/4 431/4/4
f 430/5/4 426/5/4 431/5/4
f 427/5/4 412/5/4 432/5/4
f 431/4/4 427/4/4 432/4/4
f 412/1/4 413/1/4 433/1/4
f 432/5/4 412/5/4 433/5/4
f 413/5/4 428/5/4 434/5/4
f 433/1/4 413/1/4 434/1/4
f 434/5/4 428/5/4 435/5/4
f 436/5/4 437/5/4 438/5/4
f 438/5/4 437/5/4 439/5/4
f 442/5/5 441/5/5 440/5/5
f 443/5/5 441/5/5 442/5/5
f 452/5/5 445/5/5 444/5/5
f 452/5/5 451/5/5 450/5/5
f 452/5/5 450/5/5 449/5/5
f 452/5/5 449/5/5 448/5/5
f 452/5/5 448/5/5 447/5/5
f 452/5/5 447/5/5 446/5/5
f 452/5/5 446/5/5 445/5/5
f 453/5/5 451/5/5 452/5/5
f 464/2/5 455/2/5 454/2/5
f 465/2/5 455/2/5 464/2/5
f 466/2/5 457/2/5 456/2/5
f 467/2/5 457/2/5 466/2/5
f 468/2/5 459/2/5 458/2/5
f 469/2/5 459/2/5 468/2/5
f 470/2/5 461/2/5 460/2/5
f 471/2/5 461/2/5 470/2/5
f 472/2/5 463/2/5 462/2/5
f 473/2/5 463/2/5 472/2/5
f 478/2/5 475/2/5 474/2/5
f 479/2/5 475/2/5 478/2/5
f 480/2/5 477/2/5 476/2/5
f 481/2/5 477/2/5 480/2/5
f 486/2/5 483/2/5 482/2/5
f 487/2/5 483/2/5 486/2/5
f 488/2/5 485/2/5 484/2/5
f 489/2/5 485/2/5 488/2/5
f 494/2/5 491/2/5 490/2/5
f 495/2/5 491/2/5 494/2/5
f 496/2/5 493/2/5 492/2/5
f 497/2/5 493/2/5 496/2/5
f 502/3/5 499/3/5 498/3/5
f 503/3/5 499/3/5 502/3/5
f 504/3/5 501/3/5 500/3/5
f 505/3/5 501/3/5 504/3/5
f 506/5/6 507/5/6 510/5/6
f 510/5/6 507/5/6 511/5/6
f 508/5/6 509/5/6 512/5/6
f 512/5/6 509/5/6 513/5/6
f 514/2/6 515/2/6 520/2/6
f 520/2/6 515/2/6 521/2/6
f 516/2/6 517/2/6 522/2/6
f 522/2/6 517/2/6 523/2/6
f 518/2/6 519/2/6 524/2/6
f 524/2/6 519/2/6 525/2/6
f 526/2/6 527/2/6 532/2/6
f 532/2/6 527/2/6 533/2/6
f 528/2/6 529/2/6 534/2/6
f 534/2/6 529/2/6 535/2/6
f 530/3/6 531/3/6 538/3/6
f 538/3/6 531/3/6 539/3/6
f 536/3/6 537/3/6 540/3/6
f 540/3/6 537/3/6 541/3/6
f 542/2/6 543/2/6 546/2/6
f 546/2/6 543/2/6 547/2/6
f 544/2/6 545/2/6 548/2/6
f 548/2/6 545/2/6 549/2/6
f 550/2/6 551/2/6 560/2/6
f 560/2/6 551/2/6 561/2/6
f 552/2/6 553/2/6 562/2/6
f 562/2/6 553/2/6 563/2/6
f 554/2/6 555/2/6 564/2/6
f 564/2/6 555/2/6 565/2/6
f 556/2/6 557/2/6 566/2/6
f 566/2/6 557/2/6 567/2/6
f 558/2/6 559/2/6 568/2/6
f 568/2/6 559/2/6 569/2/6
f 570/3/6 571/3/6 574/3/6
f 574/3/6 571/3/6 575/3/6
f 572/3/6 573/3/6 576/3/6
f 576/3/6 573/3/6 577/3/6
f 578/3/6 579/3/6 582/3/6
f 582/3/6 579/3/6 583/3/6
f 580/3/6 581/3/6 584/3/6
f 584/3/6 581/3/6 585/3/6
f 586/5/6 587/5/6 588/5/6
f 588/5/6 587/5/6 589/5/6
f 590/3/6 591/3/6 594/3/6
f 594/3/6 591/3/6 595/3/6
f 592/3/6 593/3/6 596/3/6
f 596/3/6 593/3/6 597/3/6
f 598/3/6 599/3/6 602/3/6
f 602/3/6 599/3/6 603/3/6
f 600/3/6 601/3/6 604/3/6
f 604/3/6 601/3/6 605/3/6
f 606/3/6 607/3/6 610/3/6
f 610/3/6 607/3/6 611/3/6
f 608/3/6 609/3/6 612/3/6
f 612/3/6 609/3/6 613/3/6
f 614/3/6 615/3/6 616/3/6
f 616/3/6 615/3/6 617/3/6
