# MagicaVoxel @ Ephtracy

# group
o 

# material
mtllib fence.mtl
usemtl palette

# normals
vn -1 0 0
vn 1 0 0
vn 0 0 1
vn 0 0 -1
vn 0 -1 0
vn 0 1 0

# texcoords
vt 0.396484 0.5
vt 0.560547 0.5

# verts
v -0.0999999 0 0.0999999
v -0.0999999 0 -7.45058e-008
v -0.0999999 0 -0.1
v -0.0999999 0.3 0.0999999
v -0.0999999 0.3 -7.45058e-008
v -0.0999999 0.6 0.0999999
v -0.0999999 0.6 -7.45058e-008
v -0.0999999 0.7 0.0999999
v -0.0999999 0.7 -7.45058e-008
v -0.0999999 1.2 0.0999999
v -0.0999999 1.2 -0.1
v 0.8 0 0.0999999
v 0.8 0 -0.1
v 0.8 0.1 0.0999999
v 0.8 0.1 -7.45058e-008
v 0.8 0.2 0.0999999
v 0.8 0.2 -7.45058e-008
v 0.8 0.4 0.0999999
v 0.8 0.4 -7.45058e-008
v 0.8 0.4 -0.1
v 0.8 0.5 0.0999999
v 0.8 0.5 -7.45058e-008
v 0.8 0.6 -7.45058e-008
v 0.8 0.6 -0.1
v 0.8 0.8 -7.45058e-008
v 0.8 0.8 -0.1
v 0.8 1 -7.45058e-008
v 0.8 1 -0.1
v 0.8 1.2 0.0999999
v 0.8 1.2 -0.1
v 0.1 0 0.0999999
v 0.1 0 -0.1
v 0.1 0.4 -7.45058e-008
v 0.1 0.4 -0.1
v 0.1 0.6 -7.45058e-008
v 0.1 0.6 -0.1
v 0.1 0.8 -7.45058e-008
v 0.1 0.8 -0.1
v 0.1 1 0.0999999
v 0.1 1 -7.45058e-008
v 0.1 1 -0.1
v 0.1 1.1 0.0999999
v 0.1 1.1 -7.45058e-008
v 0.1 1.2 0.0999999
v 0.1 1.2 -0.1
v 1 0 0.0999999
v 1 0 -0.1
v 1 0.4 0.0999999
v 1 0.4 -7.45058e-008
v 1 0.7 0.0999999
v 1 0.7 -7.45058e-008
v 1 1 0.0999999
v 1 1 -7.45058e-008
v 1 1.1 0.0999999
v 1 1.1 -7.45058e-008
v 1 1.2 0.0999999
v 1 1.2 -0.1
v -0.0999999 0 0.0999999
v -0.0999999 0.3 0.0999999
v -0.0999999 0.6 0.0999999
v -0.0999999 0.7 0.0999999
v -0.0999999 1.2 0.0999999
v 7.45058e-008 0 0.0999999
v 7.45058e-008 0.3 0.0999999
v 7.45058e-008 0.6 0.0999999
v 7.45058e-008 0.7 0.0999999
v 7.45058e-008 1 0.0999999
v 7.45058e-008 1.1 0.0999999
v 0.1 0 0.0999999
v 0.1 1 0.0999999
v 0.1 1.1 0.0999999
v 0.1 1.2 0.0999999
v 0.8 0 0.0999999
v 0.8 0.1 0.0999999
v 0.8 0.2 0.0999999
v 0.8 0.4 0.0999999
v 0.8 0.5 0.0999999
v 0.8 1.2 0.0999999
v 0.9 0.1 0.0999999
v 0.9 0.2 0.0999999
v 0.9 0.5 0.0999999
v 0.9 0.7 0.0999999
v 0.9 1 0.0999999
v 0.9 1.1 0.0999999
v 1 0 0.0999999
v 1 0.4 0.0999999
v 1 0.7 0.0999999
v 1 1 0.0999999
v 1 1.1 0.0999999
v 1 1.2 0.0999999
v 0.1 0.4 -7.45058e-008
v 0.1 0.6 -7.45058e-008
v 0.1 0.8 -7.45058e-008
v 0.1 1 -7.45058e-008
v 0.2 0.4 -7.45058e-008
v 0.2 0.5 -7.45058e-008
v 0.3 0.4 -7.45058e-008
v 0.3 0.5 -7.45058e-008
v 0.3 0.8 -7.45058e-008
v 0.3 1 -7.45058e-008
v 0.4 0.8 -7.45058e-008
v 0.4 1 -7.45058e-008
v 0.5 0.8 -7.45058e-008
v 0.5 0.9 -7.45058e-008
v 0.6 0.8 -7.45058e-008
v 0.6 0.9 -7.45058e-008
v 0.8 0.4 -7.45058e-008
v 0.8 0.5 -7.45058e-008
v 0.8 0.6 -7.45058e-008
v 0.8 0.8 -7.45058e-008
v 0.8 1 -7.45058e-008
v -0.0999999 0 -0.1
v -0.0999999 1.2 -0.1
v 0.1 0 -0.1
v 0.1 0.4 -0.1
v 0.1 0.6 -0.1
v 0.1 0.8 -0.1
v 0.1 1 -0.1
v 0.1 1.2 -0.1
v 0.2 0.4 -0.1
v 0.2 0.5 -0.1
v 0.3 0.4 -0.1
v 0.3 0.5 -0.1
v 0.3 0.8 -0.1
v 0.3 1 -0.1
v 0.4 0.8 -0.1
v 0.4 1 -0.1
v 0.5 0.8 -0.1
v 0.5 0.9 -0.1
v 0.6 0.8 -0.1
v 0.6 0.9 -0.1
v 0.8 0 -0.1
v 0.8 0.4 -0.1
v 0.8 0.6 -0.1
v 0.8 0.8 -0.1
v 0.8 1 -0.1
v 0.8 1.2 -0.1
v 1 0 -0.1
v 1 1.2 -0.1
v -0.0999999 0 0.0999999
v 7.45058e-008 0 0.0999999
v 0.1 0 0.0999999
v 0.8 0 0.0999999
v 1 0 0.0999999
v -0.0999999 0 -7.45058e-008
v 7.45058e-008 0 -7.45058e-008
v -0.0999999 0 -0.1
v 0.1 0 -0.1
v 0.8 0 -0.1
v 1 0 -0.1
v 0.1 0.4 -7.45058e-008
v 0.2 0.4 -7.45058e-008
v 0.3 0.4 -7.45058e-008
v 0.8 0.4 -7.45058e-008
v 0.1 0.4 -0.1
v 0.2 0.4 -0.1
v 0.3 0.4 -0.1
v 0.8 0.4 -0.1
v 0.1 0.8 -7.45058e-008
v 0.3 0.8 -7.45058e-008
v 0.4 0.8 -7.45058e-008
v 0.5 0.8 -7.45058e-008
v 0.6 0.8 -7.45058e-008
v 0.8 0.8 -7.45058e-008
v 0.1 0.8 -0.1
v 0.3 0.8 -0.1
v 0.4 0.8 -0.1
v 0.5 0.8 -0.1
v 0.6 0.8 -0.1
v 0.8 0.8 -0.1
v 0.1 0.6 -7.45058e-008
v 0.8 0.6 -7.45058e-008
v 0.1 0.6 -0.1
v 0.8 0.6 -0.1
v 0.1 1 -7.45058e-008
v 0.3 1 -7.45058e-008
v 0.4 1 -7.45058e-008
v 0.8 1 -7.45058e-008
v 0.1 1 -0.1
v 0.3 1 -0.1
v 0.4 1 -0.1
v 0.8 1 -0.1
v -0.0999999 1.2 0.0999999
v 0.1 1.2 0.0999999
v 0.8 1.2 0.0999999
v 1 1.2 0.0999999
v -0.0999999 1.2 -0.1
v 0.1 1.2 -0.1
v 0.8 1.2 -0.1
v 1 1.2 -0.1

# faces
f 4/2/1 2/2/1 1/2/1
f 5/1/1 3/1/1 2/1/1
f 5/2/1 2/2/1 4/2/1
f 6/1/1 5/1/1 4/1/1
f 7/1/1 3/1/1 5/1/1
f 7/1/1 5/1/1 6/1/1
f 8/2/1 7/2/1 6/2/1
f 9/1/1 3/1/1 7/1/1
f 9/2/1 7/2/1 8/2/1
f 10/1/1 9/1/1 8/1/1
f 11/1/1 3/1/1 9/1/1
f 11/1/1 9/1/1 10/1/1
f 14/1/1 13/1/1 12/1/1
f 15/1/1 13/1/1 14/1/1
f 16/2/1 15/2/1 14/2/1
f 17/1/1 13/1/1 15/1/1
f 17/2/1 15/2/1 16/2/1
f 18/1/1 17/1/1 16/1/1
f 19/1/1 13/1/1 17/1/1
f 19/1/1 17/1/1 18/1/1
f 20/1/1 13/1/1 19/1/1
f 21/2/1 19/2/1 18/2/1
f 22/2/1 19/2/1 21/2/1
f 23/1/1 22/1/1 21/1/1
f 25/1/1 23/1/1 21/1/1
f 25/1/1 24/1/1 23/1/1
f 26/1/1 24/1/1 25/1/1
f 27/1/1 25/1/1 21/1/1
f 29/1/1 27/1/1 21/1/1
f 29/1/1 28/1/1 27/1/1
f 30/1/1 28/1/1 29/1/1
f 31/1/2 32/1/2 33/1/2
f 33/1/2 32/1/2 34/1/2
f 31/1/2 33/1/2 35/1/2
f 31/1/2 35/1/2 37/1/2
f 35/1/2 36/1/2 37/1/2
f 37/1/2 36/1/2 38/1/2
f 31/1/2 37/1/2 39/1/2
f 39/1/2 37/1/2 40/1/2
f 39/2/2 40/2/2 42/2/2
f 40/1/2 41/1/2 43/1/2
f 42/2/2 40/2/2 43/2/2
f 42/1/2 43/1/2 44/1/2
f 43/1/2 41/1/2 45/1/2
f 44/1/2 43/1/2 45/1/2
f 46/1/2 47/1/2 48/1/2
f 48/1/2 47/1/2 49/1/2
f 48/2/2 49/2/2 50/2/2
f 49/1/2 47/1/2 51/1/2
f 50/2/2 49/2/2 51/2/2
f 50/1/2 51/1/2 52/1/2
f 51/1/2 47/1/2 53/1/2
f 52/1/2 51/1/2 53/1/2
f 52/2/2 53/2/2 54/2/2
f 53/1/2 47/1/2 55/1/2
f 54/2/2 53/2/2 55/2/2
f 54/1/2 55/1/2 56/1/2
f 55/1/2 47/1/2 57/1/2
f 56/1/2 55/1/2 57/1/2
f 63/2/3 59/2/3 58/2/3
f 64/1/3 60/1/3 59/1/3
f 64/2/3 59/2/3 63/2/3
f 65/2/3 61/2/3 60/2/3
f 65/1/3 60/1/3 64/1/3
f 66/1/3 62/1/3 61/1/3
f 66/2/3 61/2/3 65/2/3
f 67/1/3 62/1/3 66/1/3
f 68/1/3 62/1/3 67/1/3
f 69/1/3 65/1/3 64/1/3
f 69/1/3 64/1/3 63/1/3
f 69/1/3 66/1/3 65/1/3
f 69/1/3 67/1/3 66/1/3
f 70/2/3 68/2/3 67/2/3
f 70/1/3 67/1/3 69/1/3
f 71/1/3 62/1/3 68/1/3
f 71/2/3 68/2/3 70/2/3
f 72/1/3 62/1/3 71/1/3
f 79/1/3 74/1/3 73/1/3
f 79/2/3 75/2/3 74/2/3
f 80/1/3 76/1/3 75/1/3
f 80/2/3 75/2/3 79/2/3
f 81/1/3 78/1/3 77/1/3
f 81/2/3 77/2/3 76/2/3
f 82/1/3 78/1/3 81/1/3
f 83/1/3 78/1/3 82/1/3
f 84/1/3 78/1/3 83/1/3
f 85/1/3 80/1/3 79/1/3
f 85/1/3 79/1/3 73/1/3
f 86/1/3 76/1/3 80/1/3
f 86/1/3 80/1/3 85/1/3
f 86/2/3 81/2/3 76/2/3
f 86/2/3 82/2/3 81/2/3
f 87/1/3 83/1/3 82/1/3
f 87/2/3 82/2/3 86/2/3
f 88/2/3 84/2/3 83/2/3
f 88/1/3 83/1/3 87/1/3
f 89/1/3 78/1/3 84/1/3
f 89/2/3 84/2/3 88/2/3
f 90/1/3 78/1/3 89/1/3
f 95/1/3 92/1/3 91/1/3
f 96/1/3 92/1/3 95/1/3
f 97/2/3 96/2/3 95/2/3
f 98/1/3 92/1/3 96/1/3
f 98/2/3 96/2/3 97/2/3
f 99/1/3 94/1/3 93/1/3
f 100/1/3 94/1/3 99/1/3
f 101/2/3 100/2/3 99/2/3
f 102/2/3 100/2/3 101/2/3
f 103/1/3 102/1/3 101/1/3
f 104/1/3 102/1/3 103/1/3
f 105/2/3 104/2/3 103/2/3
f 106/1/3 102/1/3 104/1/3
f 106/2/3 104/2/3 105/2/3
f 107/1/3 98/1/3 97/1/3
f 108/1/3 92/1/3 98/1/3
f 108/1/3 98/1/3 107/1/3
f 109/1/3 92/1/3 108/1/3
f 110/1/3 106/1/3 105/1/3
f 111/1/3 102/1/3 106/1/3
f 111/1/3 106/1/3 110/1/3
f 112/1/4 113/1/4 114/1/4
f 114/1/4 113/1/4 115/1/4
f 115/1/4 113/1/4 116/1/4
f 116/1/4 113/1/4 117/1/4
f 117/1/4 113/1/4 118/1/4
f 118/1/4 113/1/4 119/1/4
f 115/1/4 116/1/4 120/1/4
f 120/1/4 116/1/4 121/1/4
f 120/2/4 121/2/4 122/2/4
f 121/1/4 116/1/4 123/1/4
f 122/2/4 121/2/4 123/2/4
f 117/1/4 118/1/4 124/1/4
f 124/1/4 118/1/4 125/1/4
f 124/2/4 125/2/4 126/2/4
f 126/2/4 125/2/4 127/2/4
f 126/1/4 127/1/4 128/1/4
f 128/1/4 127/1/4 129/1/4
f 128/2/4 129/2/4 130/2/4
f 129/1/4 127/1/4 131/1/4
f 130/2/4 129/2/4 131/2/4
f 122/1/4 123/1/4 133/1/4
f 123/1/4 116/1/4 134/1/4
f 133/1/4 123/1/4 134/1/4
f 130/1/4 131/1/4 135/1/4
f 131/1/4 127/1/4 136/1/4
f 135/1/4 131/1/4 136/1/4
f 132/1/4 133/1/4 138/1/4
f 136/1/4 137/1/4 138/1/4
f 134/1/4 135/1/4 138/1/4
f 133/1/4 134/1/4 138/1/4
f 135/1/4 136/1/4 138/1/4
f 138/1/4 137/1/4 139/1/4
f 145/2/5 141/2/5 140/2/5
f 146/1/5 142/1/5 141/1/5
f 146/2/5 141/2/5 145/2/5
f 147/1/5 146/1/5 145/1/5
f 148/1/5 142/1/5 146/1/5
f 148/1/5 146/1/5 147/1/5
f 149/1/5 144/1/5 143/1/5
f 150/1/5 144/1/5 149/1/5
f 155/1/5 152/1/5 151/1/5
f 156/2/5 153/2/5 152/2/5
f 156/1/5 152/1/5 155/1/5
f 157/1/5 154/1/5 153/1/5
f 157/2/5 153/2/5 156/2/5
f 158/1/5 154/1/5 157/1/5
f 165/1/5 160/1/5 159/1/5
f 166/2/5 161/2/5 160/2/5
f 166/1/5 160/1/5 165/1/5
f 167/1/5 162/1/5 161/1/5
f 167/2/5 161/2/5 166/2/5
f 168/2/5 163/2/5 162/2/5
f 168/1/5 162/1/5 167/1/5
f 169/1/5 164/1/5 163/1/5
f 169/2/5 163/2/5 168/2/5
f 170/1/5 164/1/5 169/1/5
f 171/1/6 172/1/6 173/1/6
f 173/1/6 172/1/6 174/1/6
f 175/1/6 176/1/6 179/1/6
f 176/2/6 177/2/6 180/2/6
f 179/1/6 176/1/6 180/1/6
f 177/1/6 178/1/6 181/1/6
f 180/2/6 177/2/6 181/2/6
f 181/1/6 178/1/6 182/1/6
f 183/1/6 184/1/6 187/1/6
f 187/1/6 184/1/6 188/1/6
f 185/1/6 186/1/6 189/1/6
f 189/1/6 186/1/6 190/1/6
