# MagicaVoxel @ Ephtracy

# group
o 

# material
mtllib FishingRod.mtl
usemtl palette

# normals
vn -1 0 0
vn 1 0 0
vn 0 0 1
vn 0 0 -1
vn 0 -1 0
vn 0 1 0

# texcoords
vt 0.396484 0.5
vt 0.958984 0.5
vt 0.974609 0.5
vt 0.982422 0.5

# verts
v -0.7 0 1
v -0.7 0 0.9
v -0.7 0 0.8
v -0.7 0 0.6
v -0.7 0 0.5
v -0.7 0 0.3
v -0.7 0 0.2
v -0.7 0 -1.19209e-007
v -0.7 0 -0.1
v -0.7 0 -0.3
v -0.7 0 -0.4
v -0.7 0 -0.6
v -0.7 0 -0.7
v -0.7 0.1 0.6
v -0.7 0.1 0.5
v -0.7 0.2 0.3
v -0.7 0.2 0.2
v -0.7 0.2 -1.19209e-007
v -0.7 0.2 -0.1
v -0.7 0.2 -0.3
v -0.7 0.2 -0.4
v -0.7 0.2 -0.6
v -0.7 0.2 -0.7
v -0.7 0.3 1
v -0.7 0.3 0.9
v -0.7 0.3 0.8
v -0.7 0.3 0.6
v -0.7 0.3 0.5
v -0.6 0 -0.8
v -0.6 0 -0.9
v -0.6 0.1 0.8
v -0.6 0.1 0.6
v -0.6 0.1 0.5
v -0.6 0.1 0.3
v -0.6 0.1 0.2
v -0.6 0.1 -1.19209e-007
v -0.6 0.1 -0.1
v -0.6 0.1 -0.3
v -0.6 0.1 -0.4
v -0.6 0.1 -0.6
v -0.6 0.1 -0.7
v -0.6 0.1 -0.8
v -0.6 0.2 0.8
v -0.6 0.2 0.6
v -0.6 0.2 0.5
v -0.6 0.2 0.3
v -0.6 0.2 0.2
v -0.6 0.2 -1.19209e-007
v -0.6 0.2 -0.1
v -0.6 0.2 -0.3
v -0.6 0.2 -0.4
v -0.6 0.2 -0.6
v -0.6 0.2 -0.7
v -0.6 0.2 -0.9
v -0.6 0.3 0.5
v -0.6 0.3 0.3
v -0.6 0.3 0.2
v -0.6 0.3 -1.19209e-007
v -0.6 0.3 -0.1
v -0.6 0.3 -0.3
v -0.6 0.3 -0.4
v -0.6 0.3 -0.6
v -0.6 0.3 -0.7
v -0.6 0.3 -0.9
v -0.3 0.1 0.6
v -0.3 0.1 0.5
v -0.3 0.2 0.6
v -0.3 0.2 0.5
v -0.5 0 -0.8
v -0.5 0 -0.9
v -0.5 0.1 0.8
v -0.5 0.1 0.6
v -0.5 0.1 0.5
v -0.5 0.1 0.3
v -0.5 0.1 0.2
v -0.5 0.1 -1.19209e-007
v -0.5 0.1 -0.1
v -0.5 0.1 -0.3
v -0.5 0.1 -0.4
v -0.5 0.1 -0.6
v -0.5 0.1 -0.7
v -0.5 0.1 -0.8
v -0.5 0.2 0.8
v -0.5 0.2 0.6
v -0.5 0.2 0.5
v -0.5 0.2 0.3
v -0.5 0.2 0.2
v -0.5 0.2 -1.19209e-007
v -0.5 0.2 -0.1
v -0.5 0.2 -0.3
v -0.5 0.2 -0.4
v -0.5 0.2 -0.6
v -0.5 0.2 -0.7
v -0.5 0.2 -0.9
v -0.5 0.3 0.5
v -0.5 0.3 0.3
v -0.5 0.3 0.2
v -0.5 0.3 -1.19209e-007
v -0.5 0.3 -0.1
v -0.5 0.3 -0.3
v -0.5 0.3 -0.4
v -0.5 0.3 -0.6
v -0.5 0.3 -0.7
v -0.5 0.3 -0.9
v -0.4 0 1
v -0.4 0 0.9
v -0.4 0 0.8
v -0.4 0 0.3
v -0.4 0 0.2
v -0.4 0 -1.19209e-007
v -0.4 0 -0.1
v -0.4 0 -0.3
v -0.4 0 -0.4
v -0.4 0 -0.6
v -0.4 0 -0.7
v -0.4 0.1 0.6
v -0.4 0.1 0.5
v -0.4 0.2 0.3
v -0.4 0.2 0.2
v -0.4 0.2 -1.19209e-007
v -0.4 0.2 -0.1
v -0.4 0.2 -0.3
v -0.4 0.2 -0.4
v -0.4 0.2 -0.6
v -0.4 0.2 -0.7
v -0.4 0.3 1
v -0.4 0.3 0.9
v -0.4 0.3 0.8
v -0.4 0.3 0.6
v -0.4 0.3 0.5
v -0.2 0 0.6
v -0.2 0 0.5
v -0.2 0.1 0.6
v -0.2 0.1 0.5
v -0.1 0.1 0.6
v -0.1 0.1 0.5
v -0.1 0.2 0.6
v -0.1 0.2 0.5
v -0.7 0 1
v -0.7 0.3 1
v -0.4 0 1
v -0.4 0.3 1
v -0.7 0 0.6
v -0.7 0.1 0.6
v -0.7 0.3 0.6
v -0.6 0.1 0.6
v -0.6 0.2 0.6
v -0.5 0.1 0.6
v -0.5 0.2 0.6
v -0.4 0.1 0.6
v -0.4 0.3 0.6
v -0.3 0.1 0.6
v -0.3 0.2 0.6
v -0.2 0 0.6
v -0.2 0.1 0.6
v -0.1 0.1 0.6
v -0.1 0.2 0.6
v -0.7 0 0.3
v -0.7 0.2 0.3
v -0.6 0.1 0.3
v -0.6 0.2 0.3
v -0.5 0.1 0.3
v -0.5 0.2 0.3
v -0.4 0 0.3
v -0.4 0.2 0.3
v -0.7 0 -1.19209e-007
v -0.7 0.2 -1.19209e-007
v -0.6 0.1 -1.19209e-007
v -0.6 0.2 -1.19209e-007
v -0.5 0.1 -1.19209e-007
v -0.5 0.2 -1.19209e-007
v -0.4 0 -1.19209e-007
v -0.4 0.2 -1.19209e-007
v -0.7 0 -0.3
v -0.7 0.2 -0.3
v -0.6 0.1 -0.3
v -0.6 0.2 -0.3
v -0.5 0.1 -0.3
v -0.5 0.2 -0.3
v -0.4 0 -0.3
v -0.4 0.2 -0.3
v -0.7 0 -0.6
v -0.7 0.2 -0.6
v -0.6 0.1 -0.6
v -0.6 0.2 -0.6
v -0.5 0.1 -0.6
v -0.5 0.2 -0.6
v -0.4 0 -0.6
v -0.4 0.2 -0.6
v -0.6 0 -0.8
v -0.6 0.1 -0.8
v -0.5 0 -0.8
v -0.5 0.1 -0.8
v -0.7 0 0.8
v -0.7 0.3 0.8
v -0.6 0.1 0.8
v -0.6 0.2 0.8
v -0.5 0.1 0.8
v -0.5 0.2 0.8
v -0.4 0 0.8
v -0.4 0.3 0.8
v -0.7 0 0.5
v -0.7 0.1 0.5
v -0.7 0.3 0.5
v -0.6 0.1 0.5
v -0.6 0.2 0.5
v -0.6 0.3 0.5
v -0.5 0.1 0.5
v -0.5 0.2 0.5
v -0.5 0.3 0.5
v -0.4 0.1 0.5
v -0.4 0.3 0.5
v -0.3 0.1 0.5
v -0.3 0.2 0.5
v -0.2 0 0.5
v -0.2 0.1 0.5
v -0.1 0.1 0.5
v -0.1 0.2 0.5
v -0.7 0 0.2
v -0.7 0.2 0.2
v -0.6 0.1 0.2
v -0.6 0.2 0.2
v -0.5 0.1 0.2
v -0.5 0.2 0.2
v -0.4 0 0.2
v -0.4 0.2 0.2
v -0.7 0 -0.1
v -0.7 0.2 -0.1
v -0.6 0.1 -0.1
v -0.6 0.2 -0.1
v -0.5 0.1 -0.1
v -0.5 0.2 -0.1
v -0.4 0 -0.1
v -0.4 0.2 -0.1
v -0.7 0 -0.4
v -0.7 0.2 -0.4
v -0.6 0.1 -0.4
v -0.6 0.2 -0.4
v -0.5 0.1 -0.4
v -0.5 0.2 -0.4
v -0.4 0 -0.4
v -0.4 0.2 -0.4
v -0.7 0 -0.7
v -0.7 0.2 -0.7
v -0.6 0.1 -0.7
v -0.6 0.2 -0.7
v -0.5 0.1 -0.7
v -0.5 0.2 -0.7
v -0.4 0 -0.7
v -0.4 0.2 -0.7
v -0.6 0 -0.9
v -0.6 0.2 -0.9
v -0.6 0.3 -0.9
v -0.5 0 -0.9
v -0.5 0.2 -0.9
v -0.5 0.3 -0.9
v -0.7 0 1
v -0.4 0 1
v -0.7 0 0.9
v -0.4 0 0.9
v -0.7 0 0.8
v -0.4 0 0.8
v -0.7 0 0.6
v -0.2 0 0.6
v -0.7 0 0.5
v -0.2 0 0.5
v -0.7 0 0.3
v -0.4 0 0.3
v -0.7 0 0.2
v -0.4 0 0.2
v -0.7 0 -1.19209e-007
v -0.4 0 -1.19209e-007
v -0.7 0 -0.1
v -0.4 0 -0.1
v -0.7 0 -0.3
v -0.4 0 -0.3
v -0.7 0 -0.4
v -0.4 0 -0.4
v -0.7 0 -0.6
v -0.4 0 -0.6
v -0.7 0 -0.7
v -0.4 0 -0.7
v -0.6 0 -0.8
v -0.5 0 -0.8
v -0.6 0 -0.9
v -0.5 0 -0.9
v -0.6 0.1 0.8
v -0.5 0.1 0.8
v -0.6 0.1 0.6
v -0.5 0.1 0.6
v -0.2 0.1 0.6
v -0.1 0.1 0.6
v -0.6 0.1 0.5
v -0.5 0.1 0.5
v -0.2 0.1 0.5
v -0.1 0.1 0.5
v -0.6 0.1 0.3
v -0.5 0.1 0.3
v -0.6 0.1 0.2
v -0.5 0.1 0.2
v -0.6 0.1 -1.19209e-007
v -0.5 0.1 -1.19209e-007
v -0.6 0.1 -0.1
v -0.5 0.1 -0.1
v -0.6 0.1 -0.3
v -0.5 0.1 -0.3
v -0.6 0.1 -0.4
v -0.5 0.1 -0.4
v -0.6 0.1 -0.6
v -0.5 0.1 -0.6
v -0.6 0.1 -0.7
v -0.5 0.1 -0.7
v -0.6 0.1 -0.8
v -0.5 0.1 -0.8
v -0.4 0.1 0.6
v -0.3 0.1 0.6
v -0.4 0.1 0.5
v -0.3 0.1 0.5
v -0.6 0.2 0.8
v -0.5 0.2 0.8
v -0.6 0.2 0.6
v -0.5 0.2 0.6
v -0.3 0.2 0.6
v -0.1 0.2 0.6
v -0.3 0.2 0.5
v -0.1 0.2 0.5
v -0.7 0.2 0.3
v -0.6 0.2 0.3
v -0.5 0.2 0.3
v -0.4 0.2 0.3
v -0.7 0.2 0.2
v -0.6 0.2 0.2
v -0.5 0.2 0.2
v -0.4 0.2 0.2
v -0.7 0.2 -1.19209e-007
v -0.6 0.2 -1.19209e-007
v -0.5 0.2 -1.19209e-007
v -0.4 0.2 -1.19209e-007
v -0.7 0.2 -0.1
v -0.6 0.2 -0.1
v -0.5 0.2 -0.1
v -0.4 0.2 -0.1
v -0.7 0.2 -0.3
v -0.6 0.2 -0.3
v -0.5 0.2 -0.3
v -0.4 0.2 -0.3
v -0.7 0.2 -0.4
v -0.6 0.2 -0.4
v -0.5 0.2 -0.4
v -0.4 0.2 -0.4
v -0.7 0.2 -0.6
v -0.6 0.2 -0.6
v -0.5 0.2 -0.6
v -0.4 0.2 -0.6
v -0.7 0.2 -0.7
v -0.6 0.2 -0.7
v -0.5 0.2 -0.7
v -0.4 0.2 -0.7
v -0.7 0.3 1
v -0.4 0.3 1
v -0.7 0.3 0.9
v -0.4 0.3 0.9
v -0.7 0.3 0.8
v -0.4 0.3 0.8
v -0.7 0.3 0.6
v -0.4 0.3 0.6
v -0.7 0.3 0.5
v -0.6 0.3 0.5
v -0.5 0.3 0.5
v -0.4 0.3 0.5
v -0.6 0.3 0.3
v -0.5 0.3 0.3
v -0.6 0.3 0.2
v -0.5 0.3 0.2
v -0.6 0.3 -1.19209e-007
v -0.5 0.3 -1.19209e-007
v -0.6 0.3 -0.1
v -0.5 0.3 -0.1
v -0.6 0.3 -0.3
v -0.5 0.3 -0.3
v -0.6 0.3 -0.4
v -0.5 0.3 -0.4
v -0.6 0.3 -0.6
v -0.5 0.3 -0.6
v -0.6 0.3 -0.7
v -0.5 0.3 -0.7
v -0.6 0.3 -0.9
v -0.5 0.3 -0.9

# faces
f 14/3/1 5/3/1 4/3/1
f 15/3/1 5/3/1 14/3/1
f 16/4/1 7/4/1 6/4/1
f 17/4/1 7/4/1 16/4/1
f 18/4/1 9/4/1 8/4/1
f 19/4/1 9/4/1 18/4/1
f 20/4/1 11/4/1 10/4/1
f 21/4/1 11/4/1 20/4/1
f 22/4/1 13/4/1 12/4/1
f 23/4/1 13/4/1 22/4/1
f 24/4/1 2/4/1 1/4/1
f 25/1/1 3/1/1 2/1/1
f 25/4/1 2/4/1 24/4/1
f 26/1/1 3/1/1 25/1/1
f 27/1/1 15/1/1 14/1/1
f 28/1/1 15/1/1 27/1/1
f 42/2/1 30/2/1 29/2/1
f 43/1/1 32/1/1 31/1/1
f 44/1/1 32/1/1 43/1/1
f 45/2/1 34/2/1 33/2/1
f 46/2/1 34/2/1 45/2/1
f 47/2/1 36/2/1 35/2/1
f 48/2/1 36/2/1 47/2/1
f 49/2/1 38/2/1 37/2/1
f 50/2/1 38/2/1 49/2/1
f 51/2/1 40/2/1 39/2/1
f 52/2/1 40/2/1 51/2/1
f 53/2/1 42/2/1 41/2/1
f 54/2/1 30/2/1 42/2/1
f 54/2/1 42/2/1 53/2/1
f 55/1/1 46/1/1 45/1/1
f 56/4/1 47/4/1 46/4/1
f 56/1/1 46/1/1 55/1/1
f 57/1/1 48/1/1 47/1/1
f 57/4/1 47/4/1 56/4/1
f 58/4/1 49/4/1 48/4/1
f 58/1/1 48/1/1 57/1/1
f 59/1/1 50/1/1 49/1/1
f 59/4/1 49/4/1 58/4/1
f 60/4/1 51/4/1 50/4/1
f 60/1/1 50/1/1 59/1/1
f 61/1/1 52/1/1 51/1/1
f 61/4/1 51/4/1 60/4/1
f 62/4/1 53/4/1 52/4/1
f 62/1/1 52/1/1 61/1/1
f 63/1/1 54/1/1 53/1/1
f 63/4/1 53/4/1 62/4/1
f 64/1/1 54/1/1 63/1/1
f 67/3/1 66/3/1 65/3/1
f 68/3/1 66/3/1 67/3/1
f 69/2/2 70/2/2 82/2/2
f 71/1/2 72/1/2 83/1/2
f 83/1/2 72/1/2 84/1/2
f 73/2/2 74/2/2 85/2/2
f 85/2/2 74/2/2 86/2/2
f 75/2/2 76/2/2 87/2/2
f 87/2/2 76/2/2 88/2/2
f 77/2/2 78/2/2 89/2/2
f 89/2/2 78/2/2 90/2/2
f 79/2/2 80/2/2 91/2/2
f 91/2/2 80/2/2 92/2/2
f 81/2/2 82/2/2 93/2/2
f 82/2/2 70/2/2 94/2/2
f 93/2/2 82/2/2 94/2/2
f 85/1/2 86/1/2 95/1/2
f 86/4/2 87/4/2 96/4/2
f 95/1/2 86/1/2 96/1/2
f 87/1/2 88/1/2 97/1/2
f 96/4/2 87/4/2 97/4/2
f 88/4/2 89/4/2 98/4/2
f 97/1/2 88/1/2 98/1/2
f 89/1/2 90/1/2 99/1/2
f 98/4/2 89/4/2 99/4/2
f 90/4/2 91/4/2 100/4/2
f 99/1/2 90/1/2 100/1/2
f 91/1/2 92/1/2 101/1/2
f 100/4/2 91/4/2 101/4/2
f 92/4/2 93/4/2 102/4/2
f 101/1/2 92/1/2 102/1/2
f 93/1/2 94/1/2 103/1/2
f 102/4/2 93/4/2 103/4/2
f 103/1/2 94/1/2 104/1/2
f 108/4/2 109/4/2 118/4/2
f 118/4/2 109/4/2 119/4/2
f 110/4/2 111/4/2 120/4/2
f 120/4/2 111/4/2 121/4/2
f 112/4/2 113/4/2 122/4/2
f 122/4/2 113/4/2 123/4/2
f 114/4/2 115/4/2 124/4/2
f 124/4/2 115/4/2 125/4/2
f 105/4/2 106/4/2 126/4/2
f 106/1/2 107/1/2 127/1/2
f 126/4/2 106/4/2 127/4/2
f 127/1/2 107/1/2 128/1/2
f 116/1/2 117/1/2 129/1/2
f 129/1/2 117/1/2 130/1/2
f 131/3/2 132/3/2 133/3/2
f 133/3/2 132/3/2 134/3/2
f 135/3/2 136/3/2 137/3/2
f 137/3/2 136/3/2 138/3/2
f 141/4/3 140/4/3 139/4/3
f 142/4/3 140/4/3 141/4/3
f 146/3/3 144/3/3 143/3/3
f 146/1/3 145/1/3 144/1/3
f 147/1/3 145/1/3 146/1/3
f 148/3/3 146/3/3 143/3/3
f 149/1/3 145/1/3 147/1/3
f 150/3/3 148/3/3 143/3/3
f 150/1/3 149/1/3 148/1/3
f 151/1/3 145/1/3 149/1/3
f 151/1/3 149/1/3 150/1/3
f 152/3/3 150/3/3 143/3/3
f 154/3/3 152/3/3 143/3/3
f 154/3/3 153/3/3 152/3/3
f 155/3/3 153/3/3 154/3/3
f 156/3/3 153/3/3 155/3/3
f 157/3/3 153/3/3 156/3/3
f 160/4/3 159/4/3 158/4/3
f 161/4/3 159/4/3 160/4/3
f 162/4/3 160/4/3 158/4/3
f 164/4/3 162/4/3 158/4/3
f 164/4/3 163/4/3 162/4/3
f 165/4/3 163/4/3 164/4/3
f 168/4/3 167/4/3 166/4/3
f 169/4/3 167/4/3 168/4/3
f 170/4/3 168/4/3 166/4/3
f 172/4/3 170/4/3 166/4/3
f 172/4/3 171/4/3 170/4/3
f 173/4/3 171/4/3 172/4/3
f 176/4/3 175/4/3 174/4/3
f 177/4/3 175/4/3 176/4/3
f 178/4/3 176/4/3 174/4/3
f 180/4/3 178/4/3 174/4/3
f 180/4/3 179/4/3 178/4/3
f 181/4/3 179/4/3 180/4/3
f 184/4/3 183/4/3 182/4/3
f 185/4/3 183/4/3 184/4/3
f 186/4/3 184/4/3 182/4/3
f 188/4/3 186/4/3 182/4/3
f 188/4/3 187/4/3 186/4/3
f 189/4/3 187/4/3 188/4/3
f 192/2/3 191/2/3 190/2/3
f 193/2/3 191/2/3 192/2/3
f 194/1/4 195/1/4 196/1/4
f 196/1/4 195/1/4 197/1/4
f 194/1/4 196/1/4 198/1/4
f 197/1/4 195/1/4 199/1/4
f 194/1/4 198/1/4 200/1/4
f 198/1/4 199/1/4 200/1/4
f 199/1/4 195/1/4 201/1/4
f 200/1/4 199/1/4 201/1/4
f 202/3/4 203/3/4 205/3/4
f 203/1/4 204/1/4 205/1/4
f 205/1/4 204/1/4 206/1/4
f 206/1/4 204/1/4 207/1/4
f 202/3/4 205/3/4 208/3/4
f 202/3/4 208/3/4 211/3/4
f 209/1/4 210/1/4 211/1/4
f 208/1/4 209/1/4 211/1/4
f 211/1/4 210/1/4 212/1/4
f 202/3/4 211/3/4 213/3/4
f 202/3/4 213/3/4 215/3/4
f 213/3/4 214/3/4 215/3/4
f 215/3/4 214/3/4 216/3/4
f 216/3/4 214/3/4 217/3/4
f 217/3/4 214/3/4 218/3/4
f 219/4/4 220/4/4 221/4/4
f 221/4/4 220/4/4 222/4/4
f 219/4/4 221/4/4 223/4/4
f 219/4/4 223/4/4 225/4/4
f 223/4/4 224/4/4 225/4/4
f 225/4/4 224/4/4 226/4/4
f 227/4/4 228/4/4 229/4/4
f 229/4/4 228/4/4 230/4/4
f 227/4/4 229/4/4 231/4/4
f 227/4/4 231/4/4 233/4/4
f 231/4/4 232/4/4 233/4/4
f 233/4/4 232/4/4 234/4/4
f 235/4/4 236/4/4 237/4/4
f 237/4/4 236/4/4 238/4/4
f 235/4/4 237/4/4 239/4/4
f 235/4/4 239/4/4 241/4/4
f 239/4/4 240/4/4 241/4/4
f 241/4/4 240/4/4 242/4/4
f 243/4/4 244/4/4 245/4/4
f 245/4/4 244/4/4 246/4/4
f 243/4/4 245/4/4 247/4/4
f 243/4/4 247/4/4 249/4/4
f 247/4/4 248/4/4 249/4/4
f 249/4/4 248/4/4 250/4/4
f 251/2/4 252/2/4 254/2/4
f 252/1/4 253/1/4 255/1/4
f 254/2/4 252/2/4 255/2/4
f 255/1/4 253/1/4 256/1/4
f 259/4/5 258/4/5 257/4/5
f 260/4/5 258/4/5 259/4/5
f 261/1/5 260/1/5 259/1/5
f 262/1/5 260/1/5 261/1/5
f 265/3/5 264/3/5 263/3/5
f 266/3/5 264/3/5 265/3/5
f 269/4/5 268/4/5 267/4/5
f 270/4/5 268/4/5 269/4/5
f 273/4/5 272/4/5 271/4/5
f 274/4/5 272/4/5 273/4/5
f 277/4/5 276/4/5 275/4/5
f 278/4/5 276/4/5 277/4/5
f 281/4/5 280/4/5 279/4/5
f 282/4/5 280/4/5 281/4/5
f 285/2/5 284/2/5 283/2/5
f 286/2/5 284/2/5 285/2/5
f 289/1/5 288/1/5 287/1/5
f 290/1/5 288/1/5 289/1/5
f 295/3/5 292/3/5 291/3/5
f 296/3/5 292/3/5 295/3/5
f 297/2/5 294/2/5 293/2/5
f 298/2/5 294/2/5 297/2/5
f 301/2/5 300/2/5 299/2/5
f 302/2/5 300/2/5 301/2/5
f 305/2/5 304/2/5 303/2/5
f 306/2/5 304/2/5 305/2/5
f 309/2/5 308/2/5 307/2/5
f 310/2/5 308/2/5 309/2/5
f 313/2/5 312/2/5 311/2/5
f 314/2/5 312/2/5 313/2/5
f 315/3/6 316/3/6 317/3/6
f 317/3/6 316/3/6 318/3/6
f 319/1/6 320/1/6 321/1/6
f 321/1/6 320/1/6 322/1/6
f 323/3/6 324/3/6 325/3/6
f 325/3/6 324/3/6 326/3/6
f 327/4/6 328/4/6 331/4/6
f 331/4/6 328/4/6 332/4/6
f 329/4/6 330/4/6 333/4/6
f 333/4/6 330/4/6 334/4/6
f 335/4/6 336/4/6 339/4/6
f 339/4/6 336/4/6 340/4/6
f 337/4/6 338/4/6 341/4/6
f 341/4/6 338/4/6 342/4/6
f 343/4/6 344/4/6 347/4/6
f 347/4/6 344/4/6 348/4/6
f 345/4/6 346/4/6 349/4/6
f 349/4/6 346/4/6 350/4/6
f 351/4/6 352/4/6 355/4/6
f 355/4/6 352/4/6 356/4/6
f 353/4/6 354/4/6 357/4/6
f 357/4/6 354/4/6 358/4/6
f 359/4/6 360/4/6 361/4/6
f 361/4/6 360/4/6 362/4/6
f 361/1/6 362/1/6 363/1/6
f 363/1/6 362/1/6 364/1/6
f 365/1/6 366/1/6 367/1/6
f 367/1/6 366/1/6 368/1/6
f 368/1/6 366/1/6 369/1/6
f 369/1/6 366/1/6 370/1/6
f 368/1/6 369/1/6 371/1/6
f 371/1/6 369/1/6 372/1/6
f 371/4/6 372/4/6 373/4/6
f 373/4/6 372/4/6 374/4/6
f 373/1/6 374/1/6 375/1/6
f 375/1/6 374/1/6 376/1/6
f 375/4/6 376/4/6 377/4/6
f 377/4/6 376/4/6 378/4/6
f 377/1/6 378/1/6 379/1/6
f 379/1/6 378/1/6 380/1/6
f 379/4/6 380/4/6 381/4/6
f 381/4/6 380/4/6 382/4/6
f 381/1/6 382/1/6 383/1/6
f 383/1/6 382/1/6 384/1/6
f 383/4/6 384/4/6 385/4/6
f 385/4/6 384/4/6 386/4/6
f 385/1/6 386/1/6 387/1/6
f 387/1/6 386/1/6 388/1/6
