# MagicaVoxel @ Ephtracy

# group
o 

# material
mtllib FishAndchipsShop.mtl
usemtl palette

# normals
vn -1 0 0
vn 1 0 0
vn 0 0 1
vn 0 0 -1
vn 0 -1 0
vn 0 1 0

# texcoords
vt 0.158203 0.5
vt 0.728516 0.5
vt 0.755859 0.5
vt 0.939453 0.5
vt 0.955078 0.5
vt 0.970703 0.5
vt 0.986328 0.5
vt 0.990234 0.5

# verts
v -2 0 2.23517e-008
v -2 0 -0.4
v -2 0 -0.5
v -2 0 -2
v -2 0.2 2.23517e-008
v -2 0.2 -0.4
v -2 0.4 -0.5
v -2 0.4 -2
v -1.9 0 -0.4
v -1.9 0 -0.5
v -1.9 0.2 -0.4
v -1.9 0.2 -0.5
v -1.9 0.4 -0.4
v -1.9 0.4 -0.5
v -1.9 0.4 -2
v -1.9 0.6 -0.5
v -1.9 0.6 -0.6
v -1.9 2.3 -0.4
v -1.9 2.3 -0.5
v -1.9 3 -0.3
v -1.9 3 -0.4
v -1.9 3 -0.5
v -1.9 3 -0.6
v -1.9 3 -2
v -1.9 3.8 -0.3
v -1.9 3.8 -0.4
v -1.9 3.8 -2
v -1.8 0.2 -0.2
v -1.8 0.2 -0.4
v -1.8 0.4 -0.2
v -1.8 0.4 -0.4
v -1.7 0.2 -0.4
v -1.7 0.2 -0.5
v -1.7 0.4 -0.4
v -1.7 0.4 -0.5
v -1 0 2.23517e-008
v -1 0 -0.1
v -1 0.2 -0.1
v -1 0.2 -0.3
v -1 0.4 2.23517e-008
v -1 0.4 -0.3
v -1 0.4 -0.4
v -1 0.4 -0.5
v -1 2.2 -0.4
v -1 2.2 -0.5
v -1 2.3 -0.4
v -1 2.3 -0.5
v -1 3 -0.4
v -1 3 -0.5
v -1.8 0.4 -0.4
v -1.8 0.4 -0.5
v -1.8 2.2 -0.4
v -1.8 2.2 -0.5
v -1.1 0 2.23517e-008
v -1.1 0 -0.1
v -1.1 0.2 2.23517e-008
v -1.1 0.2 -0.1
v -1.1 0.2 -0.2
v -1.1 0.2 -0.3
v -1.1 0.4 -0.2
v -1.1 0.4 -0.3
v -0.9 0.5 -0.4
v -0.9 0.5 -0.5
v -0.9 1.1 -0.5
v -0.9 2.2 -0.5
v -0.9 2.3 -0.5
v -0.9 3 -0.4
v -0.9 3 -0.5
v 2 0 2.23517e-008
v 2 0 -2
v 2 0.4 2.23517e-008
v 2 0.4 -0.4
v 2 0.4 -0.5
v 2 0.4 -0.6
v 2 0.4 -2
v 2 0.5 -0.4
v 2 0.5 -0.5
v 2 0.6 -0.5
v 2 0.6 -0.6
v 2 0.7 -0.5
v 2 0.7 -0.6
v 2 0.8 -0.5
v 2 0.8 -0.6
v 2 0.9 -0.5
v 2 0.9 -0.6
v 2 1.1 -0.5
v 2 1.1 -0.6
v 2 2.2 -0.5
v 2 2.2 -0.6
v 2 2.3 -0.5
v 2 2.3 -0.6
v 2 3 -0.3
v 2 3 -0.4
v 2 3 -0.5
v 2 3 -0.6
v 2 3 -2
v 2 3.8 -0.3
v 2 3.8 -0.4
v 2 3.8 -2
v -2 0 2.23517e-008
v -2 0.2 2.23517e-008
v -1.1 0 2.23517e-008
v -1.1 0.2 2.23517e-008
v -1 0 2.23517e-008
v -1 0.4 2.23517e-008
v 2 0 2.23517e-008
v 2 0.4 2.23517e-008
v -1.1 0 -0.1
v -1.1 0.2 -0.1
v -1 0 -0.1
v -1 0.2 -0.1
v -1.8 0.2 -0.2
v -1.8 0.4 -0.2
v -1.1 0.2 -0.2
v -1.1 0.4 -0.2
v -1.9 3 -0.3
v -1.9 3.8 -0.3
v -1.8 3.1 -0.3
v -1.8 3.7 -0.3
v -1.7 3.1 -0.3
v -1.7 3.4 -0.3
v -1.7 3.5 -0.3
v -1.7 3.6 -0.3
v -1.6 3.4 -0.3
v -1.6 3.5 -0.3
v -1.5 3.6 -0.3
v -1.5 3.7 -0.3
v -1.4 3.1 -0.3
v -1.4 3.5 -0.3
v -1.4 3.6 -0.3
v -1.4 3.7 -0.3
v -1.3 3.1 -0.3
v -1.3 3.5 -0.3
v -1.3 3.6 -0.3
v -1.3 3.7 -0.3
v -1.2 3.1 -0.3
v -1.2 3.2 -0.3
v -1.2 3.4 -0.3
v -1.2 3.6 -0.3
v -1.1 0.2 -0.3
v -1.1 0.4 -0.3
v -1.1 3.3 -0.3
v -1.1 3.4 -0.3
v -1.1 3.6 -0.3
v -1.1 3.7 -0.3
v -1 0.2 -0.3
v -1 0.4 -0.3
v -1 3.1 -0.3
v -1 3.2 -0.3
v -1 3.3 -0.3
v -1 3.4 -0.3
v -0.9 3.2 -0.3
v -0.9 3.3 -0.3
v -0.9 3.6 -0.3
v -0.9 3.7 -0.3
v -0.8 3.1 -0.3
v -0.8 3.7 -0.3
v -0.7 3.1 -0.3
v -0.7 3.4 -0.3
v -0.7 3.5 -0.3
v -0.7 3.7 -0.3
v -0.6 3.1 -0.3
v -0.6 3.4 -0.3
v -0.6 3.5 -0.3
v -0.6 3.7 -0.3
v -0.5 3.1 -0.3
v -0.5 3.7 -0.3
v -0.4 3.2 -0.3
v -0.4 3.4 -0.3
v -0.4 3.5 -0.3
v -0.4 3.6 -0.3
v -0.3 3.1 -0.3
v -0.3 3.2 -0.3
v -0.3 3.4 -0.3
v -0.3 3.5 -0.3
v -0.3 3.6 -0.3
v -0.3 3.7 -0.3
v -0.2 3.3 -0.3
v -0.2 3.4 -0.3
v -0.0999999 3.1 -0.3
v -0.0999999 3.2 -0.3
v -0.0999999 3.3 -0.3
v -0.0999999 3.5 -0.3
v -0.0999999 3.6 -0.3
v -0.0999999 3.7 -0.3
v 2.38419e-007 3.1 -0.3
v 2.38419e-007 3.2 -0.3
v 2.38419e-007 3.3 -0.3
v 2.38419e-007 3.4 -0.3
v 2.38419e-007 3.5 -0.3
v 2.38419e-007 3.6 -0.3
v 0.1 3.1 -0.3
v 0.1 3.2 -0.3
v 0.1 3.3 -0.3
v 0.1 3.4 -0.3
v 0.2 3.2 -0.3
v 0.2 3.6 -0.3
v 0.3 3.1 -0.3
v 0.3 3.2 -0.3
v 0.3 3.6 -0.3
v 0.3 3.7 -0.3
v 0.5 3.1 -0.3
v 0.5 3.2 -0.3
v 0.5 3.6 -0.3
v 0.5 3.7 -0.3
v 0.6 3.1 -0.3
v 0.6 3.7 -0.3
v 0.7 3.1 -0.3
v 0.7 3.4 -0.3
v 0.7 3.5 -0.3
v 0.7 3.7 -0.3
v 0.8 3.1 -0.3
v 0.8 3.4 -0.3
v 0.8 3.5 -0.3
v 0.8 3.7 -0.3
v 0.9 3.1 -0.3
v 0.9 3.7 -0.3
v 1 3.1 -0.3
v 1 3.7 -0.3
v 1.1 3.1 -0.3
v 1.1 3.7 -0.3
v 1.2 3.1 -0.3
v 1.2 3.7 -0.3
v 1.3 3.1 -0.3
v 1.3 3.3 -0.3
v 1.3 3.4 -0.3
v 1.3 3.6 -0.3
v 1.4 3.3 -0.3
v 1.4 3.4 -0.3
v 1.4 3.6 -0.3
v 1.4 3.7 -0.3
v 1.5 3.4 -0.3
v 1.5 3.6 -0.3
v 1.6 3.1 -0.3
v 1.6 3.2 -0.3
v 1.6 3.4 -0.3
v 1.6 3.6 -0.3
v 1.7 3.3 -0.3
v 1.7 3.4 -0.3
v 1.7 3.6 -0.3
v 1.7 3.7 -0.3
v 1.8 3.1 -0.3
v 1.8 3.2 -0.3
v 1.8 3.3 -0.3
v 1.8 3.4 -0.3
v 1.9 3.2 -0.3
v 1.9 3.3 -0.3
v 1.9 3.6 -0.3
v 1.9 3.7 -0.3
v 2 3 -0.3
v 2 3.8 -0.3
v -1.9 0.4 -0.4
v -1.9 2.3 -0.4
v -1.8 0.4 -0.4
v -1.8 2.2 -0.4
v -1 0.4 -0.4
v -1 2.2 -0.4
v -1 2.3 -0.4
v -1 3 -0.4
v -0.9 0.5 -0.4
v -0.9 3 -0.4
v 2 0.4 -0.4
v 2 0.5 -0.4
v -2 0 -0.5
v -2 0.4 -0.5
v -1.9 0 -0.5
v -1.9 0.2 -0.5
v -1.9 0.4 -0.5
v -1.9 2.3 -0.5
v -1.9 3 -0.5
v -1.8 0.4 -0.5
v -1.8 2.2 -0.5
v -1.7 0.2 -0.5
v -1.7 0.4 -0.5
v -1 0.4 -0.5
v -1 2.2 -0.5
v -1 2.3 -0.5
v -1 3 -0.5
v -0.9 0.5 -0.5
v -0.9 1.1 -0.5
v -0.9 2.2 -0.5
v -0.9 2.3 -0.5
v -0.9 3 -0.5
v -0.8 0.7 -0.5
v -0.8 0.8 -0.5
v -0.7 0.6 -0.5
v -0.7 0.7 -0.5
v -0.7 0.8 -0.5
v -0.7 0.9 -0.5
v -0.2 0.6 -0.5
v -0.2 0.7 -0.5
v -0.2 0.8 -0.5
v -0.2 0.9 -0.5
v -0.0999999 0.6 -0.5
v -0.0999999 0.7 -0.5
v -0.0999999 0.8 -0.5
v -0.0999999 0.9 -0.5
v 2.38419e-007 0.6 -0.5
v 2.38419e-007 0.7 -0.5
v 2.38419e-007 0.8 -0.5
v 2.38419e-007 0.9 -0.5
v 0.2 0.7 -0.5
v 0.2 0.8 -0.5
v 0.3 0.6 -0.5
v 0.3 0.7 -0.5
v 0.3 0.8 -0.5
v 0.3 0.9 -0.5
v 0.8 0.6 -0.5
v 0.8 0.7 -0.5
v 0.8 0.8 -0.5
v 0.8 0.9 -0.5
v 0.9 0.6 -0.5
v 0.9 0.7 -0.5
v 0.9 0.8 -0.5
v 0.9 0.9 -0.5
v 1 0.6 -0.5
v 1 0.7 -0.5
v 1 0.8 -0.5
v 1 0.9 -0.5
v 1.2 0.7 -0.5
v 1.2 0.8 -0.5
v 1.3 0.6 -0.5
v 1.3 0.7 -0.5
v 1.3 0.8 -0.5
v 1.3 0.9 -0.5
v 1.8 0.6 -0.5
v 1.8 0.7 -0.5
v 1.8 0.8 -0.5
v 1.8 0.9 -0.5
v 1.9 0.6 -0.5
v 1.9 0.7 -0.5
v 1.9 0.8 -0.5
v 1.9 0.9 -0.5
v 2 0.5 -0.5
v 2 0.6 -0.5
v 2 0.7 -0.5
v 2 0.8 -0.5
v 2 0.9 -0.5
v 2 1.1 -0.5
v 2 2.2 -0.5
v 2 2.3 -0.5
v 2 3 -0.5
v -2 0 -0.4
v -2 0.2 -0.4
v -1.9 0 -0.4
v -1.9 0.2 -0.4
v -1.8 0.2 -0.4
v -1.8 0.4 -0.4
v -1.7 0.2 -0.4
v -1.7 0.4 -0.4
v -2 0 -2
v -2 0.4 -2
v -1.9 0.4 -2
v -1.9 3 -2
v -1.9 3.8 -2
v 2 0 -2
v 2 0.4 -2
v 2 3 -2
v 2 3.8 -2
v -2 0 2.23517e-008
v -1.1 0 2.23517e-008
v -1 0 2.23517e-008
v 2 0 2.23517e-008
v -1.1 0 -0.1
v -1 0 -0.1
v -2 0 -0.4
v -1.9 0 -0.4
v -2 0 -0.5
v -1.9 0 -0.5
v -2 0 -2
v 2 0 -2
v -1.9 0.4 -0.4
v -1.8 0.4 -0.4
v -1.9 0.4 -0.5
v -1.8 0.4 -0.5
v -1.8 2.2 -0.4
v -1 2.2 -0.4
v -1.8 2.2 -0.5
v -1 2.2 -0.5
v -1.9 3 -0.3
v 2 3 -0.3
v -1.9 3 -0.4
v -1 3 -0.4
v -0.9 3 -0.4
v 2 3 -0.4
v -1.9 3 -0.5
v -1 3 -0.5
v -0.9 3 -0.5
v 2 3 -0.5
v -2 0.2 2.23517e-008
v -1.1 0.2 2.23517e-008
v -1.1 0.2 -0.1
v -1 0.2 -0.1
v -1.8 0.2 -0.2
v -1.1 0.2 -0.2
v -1.1 0.2 -0.3
v -1 0.2 -0.3
v -2 0.2 -0.4
v -1.9 0.2 -0.4
v -1.8 0.2 -0.4
v -1.7 0.2 -0.4
v -1.9 0.2 -0.5
v -1.7 0.2 -0.5
v -1 0.4 2.23517e-008
v 2 0.4 2.23517e-008
v -1.8 0.4 -0.2
v -1.1 0.4 -0.2
v -1.1 0.4 -0.3
v -1 0.4 -0.3
v -1.8 0.4 -0.4
v -1.7 0.4 -0.4
v -1 0.4 -0.4
v 2 0.4 -0.4
v -2 0.4 -0.5
v -1.9 0.4 -0.5
v -1.7 0.4 -0.5
v -1 0.4 -0.5
v -2 0.4 -2
v -1.9 0.4 -2
v -0.9 0.5 -0.4
v 2 0.5 -0.4
v -0.9 0.5 -0.5
v 2 0.5 -0.5
v -1.9 2.3 -0.4
v -1 2.3 -0.4
v -1.9 2.3 -0.5
v -1 2.3 -0.5
v -1.9 3.8 -0.3
v 2 3.8 -0.3
v -1.9 3.8 -0.4
v 2 3.8 -0.4
v -1.9 3.8 -2
v 2 3.8 -2

# faces
f 5/7/1 2/7/1 1/7/1
f 6/7/1 2/7/1 5/7/1
f 7/7/1 4/7/1 3/7/1
f 8/7/1 4/7/1 7/7/1
f 11/7/1 10/7/1 9/7/1
f 12/7/1 10/7/1 11/7/1
f 16/8/1 14/8/1 13/8/1
f 16/6/1 15/6/1 14/6/1
f 17/6/1 15/6/1 16/6/1
f 18/8/1 16/8/1 13/8/1
f 19/2/1 17/2/1 16/2/1
f 19/8/1 16/8/1 18/8/1
f 22/2/1 17/2/1 19/2/1
f 23/6/1 15/6/1 17/6/1
f 23/2/1 17/2/1 22/2/1
f 24/6/1 15/6/1 23/6/1
f 25/4/1 21/4/1 20/4/1
f 26/5/1 22/5/1 21/5/1
f 26/4/1 21/4/1 25/4/1
f 26/5/1 23/5/1 22/5/1
f 26/5/1 24/5/1 23/5/1
f 27/5/1 24/5/1 26/5/1
f 30/7/1 29/7/1 28/7/1
f 31/7/1 29/7/1 30/7/1
f 34/7/1 33/7/1 32/7/1
f 35/7/1 33/7/1 34/7/1
f 38/7/1 37/7/1 36/7/1
f 40/7/1 38/7/1 36/7/1
f 40/7/1 39/7/1 38/7/1
f 41/7/1 39/7/1 40/7/1
f 44/8/1 43/8/1 42/8/1
f 45/8/1 43/8/1 44/8/1
f 48/8/1 47/8/1 46/8/1
f 49/8/1 47/8/1 48/8/1
f 50/8/2 51/8/2 52/8/2
f 52/8/2 51/8/2 53/8/2
f 54/7/2 55/7/2 56/7/2
f 56/7/2 55/7/2 57/7/2
f 58/7/2 59/7/2 60/7/2
f 60/7/2 59/7/2 61/7/2
f 62/8/2 63/8/2 64/8/2
f 62/8/2 64/8/2 65/8/2
f 62/8/2 65/8/2 66/8/2
f 62/8/2 66/8/2 67/8/2
f 67/8/2 66/8/2 68/8/2
f 69/7/2 70/7/2 71/7/2
f 71/7/2 70/7/2 72/7/2
f 72/7/2 70/7/2 73/7/2
f 73/7/2 70/7/2 74/7/2
f 74/7/2 70/7/2 75/7/2
f 72/8/2 73/8/2 76/8/2
f 73/3/2 74/3/2 77/3/2
f 76/8/2 73/8/2 77/8/2
f 77/3/2 74/3/2 78/3/2
f 74/6/2 75/6/2 79/6/2
f 78/3/2 74/3/2 79/3/2
f 78/5/2 79/5/2 80/5/2
f 79/6/2 75/6/2 81/6/2
f 80/5/2 79/5/2 81/5/2
f 80/3/2 81/3/2 82/3/2
f 81/6/2 75/6/2 83/6/2
f 82/3/2 81/3/2 83/3/2
f 82/5/2 83/5/2 84/5/2
f 83/6/2 75/6/2 85/6/2
f 84/5/2 83/5/2 85/5/2
f 84/3/2 85/3/2 86/3/2
f 85/6/2 75/6/2 87/6/2
f 86/3/2 85/3/2 87/3/2
f 86/2/2 87/2/2 88/2/2
f 87/6/2 75/6/2 89/6/2
f 88/2/2 87/2/2 89/2/2
f 88/8/2 89/8/2 90/8/2
f 89/6/2 75/6/2 91/6/2
f 90/8/2 89/8/2 91/8/2
f 90/2/2 91/2/2 94/2/2
f 91/6/2 75/6/2 95/6/2
f 94/2/2 91/2/2 95/2/2
f 95/6/2 75/6/2 96/6/2
f 92/4/2 93/4/2 97/4/2
f 93/5/2 94/5/2 98/5/2
f 97/4/2 93/4/2 98/4/2
f 94/5/2 95/5/2 98/5/2
f 95/5/2 96/5/2 98/5/2
f 98/5/2 96/5/2 99/5/2
f 102/7/3 101/7/3 100/7/3
f 103/7/3 101/7/3 102/7/3
f 106/7/3 105/7/3 104/7/3
f 107/7/3 105/7/3 106/7/3
f 110/7/3 109/7/3 108/7/3
f 111/7/3 109/7/3 110/7/3
f 114/7/3 113/7/3 112/7/3
f 115/7/3 113/7/3 114/7/3
f 118/4/3 117/4/3 116/4/3
f 119/4/3 117/4/3 118/4/3
f 120/4/3 118/4/3 116/4/3
f 120/1/3 119/1/3 118/1/3
f 121/1/3 119/1/3 120/1/3
f 122/1/3 119/1/3 121/1/3
f 123/1/3 119/1/3 122/1/3
f 124/4/3 121/4/3 120/4/3
f 124/1/3 122/1/3 121/1/3
f 125/4/3 123/4/3 122/4/3
f 125/1/3 122/1/3 124/1/3
f 126/1/3 119/1/3 123/1/3
f 126/4/3 123/4/3 125/4/3
f 126/4/3 125/4/3 124/4/3
f 127/4/3 117/4/3 119/4/3
f 127/1/3 119/1/3 126/1/3
f 128/4/3 126/4/3 124/4/3
f 128/4/3 120/4/3 116/4/3
f 128/4/3 127/4/3 126/4/3
f 128/4/3 124/4/3 120/4/3
f 129/4/3 127/4/3 128/4/3
f 130/4/3 127/4/3 129/4/3
f 131/4/3 117/4/3 127/4/3
f 131/4/3 127/4/3 130/4/3
f 132/4/3 128/4/3 116/4/3
f 132/1/3 129/1/3 128/1/3
f 133/4/3 130/4/3 129/4/3
f 133/1/3 129/1/3 132/1/3
f 134/1/3 131/1/3 130/1/3
f 134/4/3 130/4/3 133/4/3
f 135/4/3 117/4/3 131/4/3
f 135/1/3 131/1/3 134/1/3
f 136/4/3 132/4/3 116/4/3
f 136/4/3 134/4/3 133/4/3
f 136/4/3 135/4/3 134/4/3
f 136/4/3 133/4/3 132/4/3
f 137/4/3 135/4/3 136/4/3
f 138/4/3 135/4/3 137/4/3
f 139/4/3 135/4/3 138/4/3
f 142/4/3 138/4/3 137/4/3
f 143/1/3 139/1/3 138/1/3
f 143/4/3 138/4/3 142/4/3
f 144/4/3 135/4/3 139/4/3
f 144/1/3 139/1/3 143/1/3
f 145/4/3 117/4/3 135/4/3
f 145/4/3 135/4/3 144/4/3
f 146/7/3 141/7/3 140/7/3
f 147/7/3 141/7/3 146/7/3
f 148/4/3 136/4/3 116/4/3
f 148/1/3 137/1/3 136/1/3
f 149/4/3 142/4/3 137/4/3
f 149/1/3 137/1/3 148/1/3
f 150/1/3 143/1/3 142/1/3
f 150/4/3 142/4/3 149/4/3
f 151/4/3 144/4/3 143/4/3
f 151/1/3 143/1/3 150/1/3
f 152/1/3 150/1/3 149/1/3
f 152/4/3 149/4/3 148/4/3
f 153/4/3 151/4/3 150/4/3
f 153/1/3 150/1/3 152/1/3
f 154/4/3 144/4/3 151/4/3
f 154/4/3 151/4/3 153/4/3
f 154/1/3 145/1/3 144/1/3
f 155/4/3 117/4/3 145/4/3
f 155/1/3 145/1/3 154/1/3
f 156/4/3 153/4/3 152/4/3
f 156/4/3 152/4/3 148/4/3
f 156/4/3 155/4/3 154/4/3
f 156/4/3 148/4/3 116/4/3
f 156/4/3 154/4/3 153/4/3
f 157/4/3 117/4/3 155/4/3
f 157/4/3 155/4/3 156/4/3
f 158/4/3 156/4/3 116/4/3
f 158/1/3 157/1/3 156/1/3
f 159/1/3 157/1/3 158/1/3
f 160/1/3 157/1/3 159/1/3
f 161/4/3 117/4/3 157/4/3
f 161/1/3 157/1/3 160/1/3
f 162/4/3 158/4/3 116/4/3
f 162/4/3 159/4/3 158/4/3
f 163/1/3 160/1/3 159/1/3
f 163/4/3 159/4/3 162/4/3
f 164/4/3 161/4/3 160/4/3
f 164/1/3 160/1/3 163/1/3
f 165/4/3 117/4/3 161/4/3
f 165/4/3 161/4/3 164/4/3
f 166/4/3 162/4/3 116/4/3
f 166/1/3 164/1/3 163/1/3
f 166/1/3 165/1/3 164/1/3
f 166/1/3 163/1/3 162/1/3
f 167/4/3 117/4/3 165/4/3
f 167/1/3 165/1/3 166/1/3
f 168/4/3 167/4/3 166/4/3
f 169/4/3 167/4/3 168/4/3
f 170/4/3 167/4/3 169/4/3
f 171/4/3 167/4/3 170/4/3
f 172/4/3 166/4/3 116/4/3
f 172/4/3 168/4/3 166/4/3
f 173/1/3 169/1/3 168/1/3
f 173/4/3 168/4/3 172/4/3
f 174/4/3 170/4/3 169/4/3
f 174/1/3 169/1/3 173/1/3
f 175/1/3 171/1/3 170/1/3
f 175/4/3 170/4/3 174/4/3
f 176/4/3 167/4/3 171/4/3
f 176/1/3 171/1/3 175/1/3
f 177/4/3 117/4/3 167/4/3
f 177/4/3 167/4/3 176/4/3
f 178/4/3 174/4/3 173/4/3
f 179/1/3 175/1/3 174/1/3
f 179/4/3 174/4/3 178/4/3
f 180/4/3 172/4/3 116/4/3
f 180/1/3 173/1/3 172/1/3
f 181/4/3 178/4/3 173/4/3
f 181/1/3 173/1/3 180/1/3
f 182/1/3 179/1/3 178/1/3
f 182/4/3 178/4/3 181/4/3
f 183/4/3 176/4/3 175/4/3
f 183/1/3 179/1/3 182/1/3
f 183/1/3 175/1/3 179/1/3
f 184/1/3 177/1/3 176/1/3
f 184/4/3 176/4/3 183/4/3
f 185/4/3 117/4/3 177/4/3
f 185/1/3 177/1/3 184/1/3
f 186/4/3 180/4/3 116/4/3
f 186/4/3 181/4/3 180/4/3
f 187/1/3 182/1/3 181/1/3
f 187/4/3 181/4/3 186/4/3
f 188/4/3 183/4/3 182/4/3
f 188/1/3 182/1/3 187/1/3
f 189/4/3 183/4/3 188/4/3
f 190/1/3 184/1/3 183/1/3
f 190/4/3 183/4/3 189/4/3
f 191/4/3 185/4/3 184/4/3
f 191/1/3 184/1/3 190/1/3
f 192/4/3 186/4/3 116/4/3
f 192/1/3 187/1/3 186/1/3
f 193/4/3 188/4/3 187/4/3
f 193/1/3 187/1/3 192/1/3
f 194/1/3 189/1/3 188/1/3
f 194/4/3 188/4/3 193/4/3
f 195/4/3 191/4/3 190/4/3
f 195/1/3 189/1/3 194/1/3
f 195/4/3 190/4/3 189/4/3
f 196/4/3 193/4/3 192/4/3
f 196/4/3 194/4/3 193/4/3
f 196/4/3 195/4/3 194/4/3
f 197/4/3 185/4/3 191/4/3
f 197/4/3 195/4/3 196/4/3
f 197/4/3 191/4/3 195/4/3
f 198/4/3 196/4/3 192/4/3
f 198/4/3 192/4/3 116/4/3
f 199/1/3 197/1/3 196/1/3
f 199/4/3 196/4/3 198/4/3
f 200/4/3 185/4/3 197/4/3
f 200/1/3 197/1/3 199/1/3
f 201/4/3 117/4/3 185/4/3
f 201/4/3 185/4/3 200/4/3
f 202/1/3 199/1/3 198/1/3
f 202/4/3 198/4/3 116/4/3
f 203/4/3 200/4/3 199/4/3
f 203/1/3 199/1/3 202/1/3
f 204/1/3 201/1/3 200/1/3
f 204/4/3 200/4/3 203/4/3
f 205/4/3 117/4/3 201/4/3
f 205/1/3 201/1/3 204/1/3
f 206/4/3 202/4/3 116/4/3
f 206/4/3 204/4/3 203/4/3
f 206/4/3 205/4/3 204/4/3
f 206/4/3 203/4/3 202/4/3
f 207/4/3 117/4/3 205/4/3
f 207/4/3 205/4/3 206/4/3
f 208/4/3 206/4/3 116/4/3
f 208/1/3 207/1/3 206/1/3
f 209/1/3 207/1/3 208/1/3
f 210/1/3 207/1/3 209/1/3
f 211/4/3 117/4/3 207/4/3
f 211/1/3 207/1/3 210/1/3
f 212/4/3 208/4/3 116/4/3
f 212/4/3 209/4/3 208/4/3
f 213/1/3 210/1/3 209/1/3
f 213/4/3 209/4/3 212/4/3
f 214/4/3 211/4/3 210/4/3
f 214/1/3 210/1/3 213/1/3
f 215/4/3 117/4/3 211/4/3
f 215/4/3 211/4/3 214/4/3
f 216/4/3 212/4/3 116/4/3
f 216/1/3 214/1/3 213/1/3
f 216/1/3 215/1/3 214/1/3
f 216/1/3 213/1/3 212/1/3
f 217/4/3 117/4/3 215/4/3
f 217/1/3 215/1/3 216/1/3
f 218/4/3 216/4/3 116/4/3
f 218/4/3 217/4/3 216/4/3
f 219/4/3 117/4/3 217/4/3
f 219/4/3 217/4/3 218/4/3
f 220/4/3 218/4/3 116/4/3
f 220/1/3 219/1/3 218/1/3
f 221/4/3 117/4/3 219/4/3
f 221/1/3 219/1/3 220/1/3
f 222/4/3 220/4/3 116/4/3
f 222/4/3 221/4/3 220/4/3
f 223/4/3 117/4/3 221/4/3
f 223/4/3 221/4/3 222/4/3
f 224/4/3 222/4/3 116/4/3
f 224/1/3 223/1/3 222/1/3
f 225/1/3 223/1/3 224/1/3
f 226/1/3 223/1/3 225/1/3
f 227/1/3 223/1/3 226/1/3
f 228/4/3 225/4/3 224/4/3
f 228/1/3 226/1/3 225/1/3
f 229/4/3 227/4/3 226/4/3
f 229/1/3 226/1/3 228/1/3
f 230/1/3 223/1/3 227/1/3
f 230/4/3 227/4/3 229/4/3
f 231/4/3 117/4/3 223/4/3
f 231/1/3 223/1/3 230/1/3
f 232/1/3 230/1/3 229/1/3
f 232/4/3 229/4/3 228/4/3
f 233/4/3 231/4/3 230/4/3
f 233/1/3 230/1/3 232/1/3
f 234/4/3 224/4/3 116/4/3
f 234/4/3 232/4/3 228/4/3
f 234/4/3 233/4/3 232/4/3
f 234/4/3 228/4/3 224/4/3
f 235/4/3 233/4/3 234/4/3
f 236/4/3 233/4/3 235/4/3
f 237/4/3 231/4/3 233/4/3
f 237/4/3 233/4/3 236/4/3
f 238/4/3 236/4/3 235/4/3
f 239/1/3 237/1/3 236/1/3
f 239/4/3 236/4/3 238/4/3
f 240/4/3 231/4/3 237/4/3
f 240/1/3 237/1/3 239/1/3
f 241/4/3 117/4/3 231/4/3
f 241/4/3 231/4/3 240/4/3
f 242/4/3 234/4/3 116/4/3
f 242/1/3 235/1/3 234/1/3
f 243/4/3 238/4/3 235/4/3
f 243/1/3 235/1/3 242/1/3
f 244/1/3 239/1/3 238/1/3
f 244/4/3 238/4/3 243/4/3
f 245/4/3 240/4/3 239/4/3
f 245/1/3 239/1/3 244/1/3
f 246/1/3 244/1/3 243/1/3
f 246/4/3 243/4/3 242/4/3
f 247/4/3 245/4/3 244/4/3
f 247/1/3 244/1/3 246/1/3
f 248/4/3 240/4/3 245/4/3
f 248/4/3 245/4/3 247/4/3
f 248/1/3 241/1/3 240/1/3
f 249/4/3 117/4/3 241/4/3
f 249/1/3 241/1/3 248/1/3
f 250/4/3 247/4/3 246/4/3
f 250/4/3 246/4/3 242/4/3
f 250/4/3 249/4/3 248/4/3
f 250/4/3 242/4/3 116/4/3
f 250/4/3 248/4/3 247/4/3
f 251/4/3 117/4/3 249/4/3
f 251/4/3 249/4/3 250/4/3
f 254/8/3 253/8/3 252/8/3
f 255/8/3 253/8/3 254/8/3
f 257/8/3 253/8/3 255/8/3
f 258/8/3 253/8/3 257/8/3
f 260/8/3 257/8/3 256/8/3
f 260/8/3 259/8/3 258/8/3
f 260/8/3 258/8/3 257/8/3
f 261/8/3 259/8/3 260/8/3
f 262/8/3 260/8/3 256/8/3
f 263/8/3 260/8/3 262/8/3
f 266/7/3 265/7/3 264/7/3
f 267/7/3 265/7/3 266/7/3
f 268/7/3 265/7/3 267/7/3
f 271/7/3 268/7/3 267/7/3
f 273/7/3 271/7/3 267/7/3
f 274/2/3 272/2/3 271/2/3
f 274/7/3 271/7/3 273/7/3
f 275/2/3 272/2/3 274/2/3
f 276/2/3 272/2/3 275/2/3
f 277/2/3 270/2/3 269/2/3
f 278/2/3 270/2/3 277/2/3
f 284/3/3 280/3/3 279/3/3
f 285/3/3 280/3/3 284/3/3
f 286/3/3 284/3/3 279/3/3
f 287/5/3 285/5/3 284/5/3
f 287/3/3 284/3/3 286/3/3
f 288/3/3 280/3/3 285/3/3
f 288/5/3 285/5/3 287/5/3
f 289/3/3 280/3/3 288/3/3
f 290/5/3 287/5/3 286/5/3
f 290/3/3 286/3/3 279/3/3
f 290/5/3 289/5/3 288/5/3
f 290/5/3 288/5/3 287/5/3
f 291/5/3 289/5/3 290/5/3
f 292/5/3 289/5/3 291/5/3
f 293/3/3 280/3/3 289/3/3
f 293/5/3 289/5/3 292/5/3
f 294/3/3 290/3/3 279/3/3
f 294/3/3 291/3/3 290/3/3
f 295/5/3 292/5/3 291/5/3
f 295/3/3 291/3/3 294/3/3
f 296/3/3 293/3/3 292/3/3
f 296/5/3 292/5/3 295/5/3
f 297/3/3 280/3/3 293/3/3
f 297/3/3 293/3/3 296/3/3
f 298/3/3 294/3/3 279/3/3
f 298/5/3 295/5/3 294/5/3
f 299/3/3 296/3/3 295/3/3
f 299/5/3 295/5/3 298/5/3
f 300/5/3 297/5/3 296/5/3
f 300/3/3 296/3/3 299/3/3
f 301/3/3 280/3/3 297/3/3
f 301/5/3 297/5/3 300/5/3
f 302/3/3 300/3/3 299/3/3
f 302/3/3 299/3/3 298/3/3
f 302/3/3 301/3/3 300/3/3
f 303/3/3 301/3/3 302/3/3
f 304/3/3 298/3/3 279/3/3
f 304/3/3 302/3/3 298/3/3
f 305/5/3 303/5/3 302/5/3
f 305/3/3 302/3/3 304/3/3
f 306/3/3 301/3/3 303/3/3
f 306/5/3 303/5/3 305/5/3
f 307/3/3 280/3/3 301/3/3
f 307/3/3 301/3/3 306/3/3
f 308/5/3 306/5/3 305/5/3
f 308/5/3 305/5/3 304/5/3
f 308/5/3 307/5/3 306/5/3
f 308/3/3 304/3/3 279/3/3
f 309/5/3 307/5/3 308/5/3
f 310/5/3 307/5/3 309/5/3
f 311/3/3 280/3/3 307/3/3
f 311/5/3 307/5/3 310/5/3
f 312/3/3 308/3/3 279/3/3
f 312/3/3 309/3/3 308/3/3
f 313/5/3 310/5/3 309/5/3
f 313/3/3 309/3/3 312/3/3
f 314/3/3 311/3/3 310/3/3
f 314/5/3 310/5/3 313/5/3
f 315/3/3 280/3/3 311/3/3
f 315/3/3 311/3/3 314/3/3
f 316/3/3 312/3/3 279/3/3
f 316/5/3 313/5/3 312/5/3
f 317/3/3 314/3/3 313/3/3
f 317/5/3 313/5/3 316/5/3
f 318/5/3 315/5/3 314/5/3
f 318/3/3 314/3/3 317/3/3
f 319/3/3 280/3/3 315/3/3
f 319/5/3 315/5/3 318/5/3
f 320/3/3 318/3/3 317/3/3
f 320/3/3 317/3/3 316/3/3
f 320/3/3 319/3/3 318/3/3
f 321/3/3 319/3/3 320/3/3
f 322/3/3 316/3/3 279/3/3
f 322/3/3 320/3/3 316/3/3
f 323/5/3 321/5/3 320/5/3
f 323/3/3 320/3/3 322/3/3
f 324/3/3 319/3/3 321/3/3
f 324/5/3 321/5/3 323/5/3
f 325/3/3 280/3/3 319/3/3
f 325/3/3 319/3/3 324/3/3
f 326/5/3 324/5/3 323/5/3
f 326/5/3 323/5/3 322/5/3
f 326/5/3 325/5/3 324/5/3
f 326/3/3 322/3/3 279/3/3
f 327/5/3 325/5/3 326/5/3
f 328/5/3 325/5/3 327/5/3
f 329/3/3 280/3/3 325/3/3
f 329/5/3 325/5/3 328/5/3
f 330/3/3 326/3/3 279/3/3
f 330/3/3 327/3/3 326/3/3
f 331/5/3 328/5/3 327/5/3
f 331/3/3 327/3/3 330/3/3
f 332/3/3 329/3/3 328/3/3
f 332/5/3 328/5/3 331/5/3
f 333/3/3 280/3/3 329/3/3
f 333/3/3 329/3/3 332/3/3
f 334/3/3 330/3/3 279/3/3
f 335/5/3 331/5/3 330/5/3
f 335/3/3 330/3/3 334/3/3
f 336/3/3 332/3/3 331/3/3
f 336/5/3 331/5/3 335/5/3
f 337/5/3 333/5/3 332/5/3
f 337/3/3 332/3/3 336/3/3
f 338/3/3 280/3/3 333/3/3
f 338/5/3 333/5/3 337/5/3
f 339/2/3 281/2/3 280/2/3
f 339/3/3 280/3/3 338/3/3
f 340/8/3 282/8/3 281/8/3
f 340/2/3 281/2/3 339/2/3
f 341/2/3 283/2/3 282/2/3
f 341/8/3 282/8/3 340/8/3
f 342/2/3 283/2/3 341/2/3
f 343/7/4 344/7/4 345/7/4
f 345/7/4 344/7/4 346/7/4
f 347/7/4 348/7/4 349/7/4
f 349/7/4 348/7/4 350/7/4
f 351/7/4 352/7/4 353/7/4
f 351/7/4 353/7/4 356/7/4
f 353/6/4 354/6/4 357/6/4
f 356/7/4 353/7/4 357/7/4
f 354/5/4 355/5/4 358/5/4
f 357/6/4 354/6/4 358/6/4
f 358/5/4 355/5/4 359/5/4
f 364/7/5 361/7/5 360/7/5
f 365/7/5 363/7/5 362/7/5
f 366/7/5 364/7/5 360/7/5
f 366/7/5 365/7/5 364/7/5
f 367/7/5 365/7/5 366/7/5
f 369/7/5 365/7/5 367/7/5
f 370/7/5 369/7/5 368/7/5
f 371/7/5 363/7/5 365/7/5
f 371/7/5 369/7/5 370/7/5
f 371/7/5 365/7/5 369/7/5
f 374/8/5 373/8/5 372/8/5
f 375/8/5 373/8/5 374/8/5
f 378/8/5 377/8/5 376/8/5
f 379/8/5 377/8/5 378/8/5
f 382/4/5 381/4/5 380/4/5
f 383/4/5 381/4/5 382/4/5
f 384/4/5 381/4/5 383/4/5
f 385/4/5 381/4/5 384/4/5
f 386/5/5 383/5/5 382/5/5
f 387/5/5 383/5/5 386/5/5
f 388/5/5 385/5/5 384/5/5
f 389/5/5 385/5/5 388/5/5
f 390/7/6 391/7/6 392/7/6
f 390/7/6 392/7/6 394/7/6
f 392/7/6 393/7/6 394/7/6
f 394/7/6 393/7/6 395/7/6
f 395/7/6 393/7/6 396/7/6
f 396/7/6 393/7/6 397/7/6
f 390/7/6 394/7/6 398/7/6
f 398/7/6 394/7/6 399/7/6
f 399/7/6 394/7/6 400/7/6
f 400/7/6 401/7/6 402/7/6
f 399/7/6 400/7/6 402/7/6
f 402/7/6 401/7/6 403/7/6
f 406/7/6 407/7/6 408/7/6
f 404/7/6 405/7/6 409/7/6
f 406/7/6 408/7/6 410/7/6
f 408/7/6 409/7/6 410/7/6
f 410/7/6 409/7/6 411/7/6
f 409/7/6 405/7/6 412/7/6
f 411/7/6 409/7/6 412/7/6
f 412/7/6 405/7/6 413/7/6
f 411/7/6 412/7/6 416/7/6
f 416/7/6 412/7/6 417/7/6
f 414/7/6 415/7/6 418/7/6
f 418/7/6 415/7/6 419/7/6
f 420/8/6 421/8/6 422/8/6
f 422/8/6 421/8/6 423/8/6
f 424/8/6 425/8/6 426/8/6
f 426/8/6 425/8/6 427/8/6
f 428/4/6 429/4/6 430/4/6
f 430/4/6 429/4/6 431/4/6
f 430/5/6 431/5/6 432/5/6
f 432/5/6 431/5/6 433/5/6
