# MagicaVoxel @ Ephtracy

# group
o 

# material
mtllib Pizzeria.mtl
usemtl palette

# normals
vn -1 0 0
vn 1 0 0
vn 0 0 1
vn 0 0 -1
vn 0 -1 0
vn 0 1 0

# texcoords
vt 0.0371094 0.5
vt 0.232422 0.5
vt 0.728516 0.5
vt 0.845703 0.5
vt 0.896484 0.5
vt 0.955078 0.5
vt 0.958984 0.5
vt 0.970703 0.5
vt 0.986328 0.5
vt 0.990234 0.5

# verts
v -2 0 2.23517e-008
v -2 0 -0.4
v -2 0 -0.5
v -2 0 -2
v -2 0.2 2.23517e-008
v -2 0.2 -0.4
v -2 0.4 -0.5
v -2 0.4 -2
v -1.9 0 -0.4
v -1.9 0 -0.5
v -1.9 0.2 -0.4
v -1.9 0.2 -0.5
v -1.9 0.4 -0.4
v -1.9 0.4 -0.5
v -1.9 0.4 -2
v -1.9 2.3 -0.4
v -1.9 2.3 -0.5
v -1.9 3 -0.3
v -1.9 3 -0.5
v -1.9 3 -2
v -1.9 3.8 -0.3
v -1.9 3.8 -2
v -1.8 0.2 -0.2
v -1.8 0.2 -0.4
v -1.8 0.4 -0.2
v -1.8 0.4 -0.4
v -1.7 0.2 -0.4
v -1.7 0.2 -0.5
v -1.7 0.4 -0.4
v -1.7 0.4 -0.5
v -1 0 2.23517e-008
v -1 0 -0.1
v -1 0.2 -0.1
v -1 0.2 -0.3
v -1 0.4 2.23517e-008
v -1 0.4 -0.3
v -1 0.4 -0.4
v -1 0.4 -0.5
v -1 2.2 -0.4
v -1 2.2 -0.5
v -1.8 0.4 -0.4
v -1.8 0.4 -0.5
v -1.8 2.2 -0.4
v -1.8 2.2 -0.5
v -1.1 0 2.23517e-008
v -1.1 0 -0.1
v -1.1 0.2 2.23517e-008
v -1.1 0.2 -0.1
v -1.1 0.2 -0.2
v -1.1 0.2 -0.3
v -1.1 0.4 -0.2
v -1.1 0.4 -0.3
v -0.9 0.5 -0.4
v -0.9 0.5 -0.5
v -0.9 0.7 -0.5
v -0.9 0.9 -0.5
v -0.9 1.1 -0.5
v -0.9 1.3 -0.5
v -0.9 2.3 -0.4
v -0.9 2.3 -0.5
v 2 0 2.23517e-008
v 2 0 -2
v 2 0.4 2.23517e-008
v 2 0.4 -0.4
v 2 0.4 -0.5
v 2 0.4 -2
v 2 0.5 -0.4
v 2 0.5 -0.5
v 2 0.7 -0.5
v 2 0.7 -0.6
v 2 0.9 -0.5
v 2 0.9 -0.6
v 2 1.1 -0.5
v 2 1.1 -0.6
v 2 1.3 -0.5
v 2 1.3 -0.6
v 2 3 -0.3
v 2 3 -0.5
v 2 3 -2
v 2 3.8 -0.3
v 2 3.8 -2
v -2 0 2.23517e-008
v -2 0.2 2.23517e-008
v -1.1 0 2.23517e-008
v -1.1 0.2 2.23517e-008
v -1 0 2.23517e-008
v -1 0.4 2.23517e-008
v 2 0 2.23517e-008
v 2 0.4 2.23517e-008
v -1.1 0 -0.1
v -1.1 0.2 -0.1
v -1 0 -0.1
v -1 0.2 -0.1
v -1.8 0.2 -0.2
v -1.8 0.4 -0.2
v -1.1 0.2 -0.2
v -1.1 0.4 -0.2
v -1.9 3 -0.3
v -1.9 3.8 -0.3
v -1.8 3.1 -0.3
v -1.8 3.6 -0.3
v -1.7 3.1 -0.3
v -1.7 3.3 -0.3
v -1.7 3.4 -0.3
v -1.7 3.5 -0.3
v -1.6 3.4 -0.3
v -1.6 3.5 -0.3
v -1.5 3.3 -0.3
v -1.5 3.6 -0.3
v -1.4 3.1 -0.3
v -1.4 3.4 -0.3
v -1.4 3.5 -0.3
v -1.4 3.6 -0.3
v -1.3 3.1 -0.3
v -1.3 3.4 -0.3
v -1.3 3.5 -0.3
v -1.3 3.6 -0.3
v -1.2 3.1 -0.3
v -1.2 3.3 -0.3
v -1.2 3.5 -0.3
v -1.2 3.6 -0.3
v -1.1 0.2 -0.3
v -1.1 0.4 -0.3
v -1.1 3.2 -0.3
v -1.1 3.3 -0.3
v -1.1 3.4 -0.3
v -1 0.2 -0.3
v -1 0.4 -0.3
v -1 3.3 -0.3
v -1 3.4 -0.3
v -1 3.5 -0.3
v -0.9 3.1 -0.3
v -0.9 3.2 -0.3
v -0.9 3.4 -0.3
v -0.9 3.6 -0.3
v -0.8 3.1 -0.3
v -0.8 3.3 -0.3
v -0.8 3.5 -0.3
v -0.8 3.6 -0.3
v -0.7 3.2 -0.3
v -0.7 3.3 -0.3
v -0.7 3.4 -0.3
v -0.6 3.3 -0.3
v -0.6 3.4 -0.3
v -0.6 3.5 -0.3
v -0.5 3.1 -0.3
v -0.5 3.2 -0.3
v -0.5 3.4 -0.3
v -0.5 3.6 -0.3
v -0.4 3.1 -0.3
v -0.4 3.6 -0.3
v -0.3 3.2 -0.3
v -0.3 3.3 -0.3
v -0.3 3.4 -0.3
v -0.3 3.5 -0.3
v -0.2 3.3 -0.3
v -0.2 3.4 -0.3
v -0.0999999 3.1 -0.3
v -0.0999999 3.2 -0.3
v -0.0999999 3.5 -0.3
v -0.0999999 3.6 -0.3
v 2.38419e-007 3.1 -0.3
v 2.38419e-007 3.6 -0.3
v 0.1 3.1 -0.3
v 0.1 3.3 -0.3
v 0.1 3.4 -0.3
v 0.1 3.5 -0.3
v 0.2 3.1 -0.3
v 0.2 3.3 -0.3
v 0.2 3.4 -0.3
v 0.2 3.5 -0.3
v 0.2 3.6 -0.3
v 0.3 3.1 -0.3
v 0.3 3.3 -0.3
v 0.3 3.4 -0.3
v 0.3 3.5 -0.3
v 0.4 3.1 -0.3
v 0.4 3.4 -0.3
v 0.4 3.5 -0.3
v 0.4 3.6 -0.3
v 0.5 3.1 -0.3
v 0.5 3.4 -0.3
v 0.5 3.5 -0.3
v 0.5 3.6 -0.3
v 0.6 3.1 -0.3
v 0.6 3.5 -0.3
v 0.7 3.1 -0.3
v 0.7 3.3 -0.3
v 0.7 3.4 -0.3
v 0.7 3.5 -0.3
v 0.7 3.6 -0.3
v 0.9 3.1 -0.3
v 0.9 3.3 -0.3
v 0.9 3.4 -0.3
v 0.9 3.5 -0.3
v 0.9 3.6 -0.3
v 1 3.1 -0.3
v 1 3.5 -0.3
v 1.2 3.2 -0.3
v 1.2 3.6 -0.3
v 1.3 3.1 -0.3
v 1.3 3.2 -0.3
v 1.3 3.3 -0.3
v 1.3 3.6 -0.3
v 1.3 3.7 -0.3
v 1.4 3.2 -0.3
v 1.4 3.3 -0.3
v 1.4 3.5 -0.3
v 1.5 3.3 -0.3
v 1.5 3.5 -0.3
v 1.6 3.2 -0.3
v 1.6 3.3 -0.3
v 1.6 3.5 -0.3
v 1.6 3.6 -0.3
v 1.7 3.1 -0.3
v 1.7 3.2 -0.3
v 1.7 3.3 -0.3
v 1.7 3.5 -0.3
v 1.7 3.6 -0.3
v 1.7 3.7 -0.3
v 1.8 3.2 -0.3
v 1.8 3.6 -0.3
v 2 3 -0.3
v 2 3.8 -0.3
v -1.9 0.4 -0.4
v -1.9 2.3 -0.4
v -1.8 0.4 -0.4
v -1.8 2.2 -0.4
v -1 0.4 -0.4
v -1 2.2 -0.4
v -0.9 0.5 -0.4
v -0.9 2.3 -0.4
v 2 0.4 -0.4
v 2 0.5 -0.4
v -2 0 -0.5
v -2 0.4 -0.5
v -1.9 0 -0.5
v -1.9 0.2 -0.5
v -1.9 0.4 -0.5
v -1.9 2.3 -0.5
v -1.9 3 -0.5
v -1.8 0.4 -0.5
v -1.8 2.2 -0.5
v -1.7 0.2 -0.5
v -1.7 0.4 -0.5
v -1 0.4 -0.5
v -1 2.2 -0.5
v -0.9 0.5 -0.5
v -0.9 0.7 -0.5
v -0.9 0.9 -0.5
v -0.9 1.1 -0.5
v -0.9 1.3 -0.5
v -0.9 2.3 -0.5
v 2.38419e-007 1.3 -0.5
v 2.38419e-007 2.5 -0.5
v 0.1 1.4 -0.5
v 0.1 2.4 -0.5
v 0.9 1.4 -0.5
v 0.9 2.4 -0.5
v 1 1.3 -0.5
v 1 2.5 -0.5
v 2 0.5 -0.5
v 2 0.7 -0.5
v 2 0.9 -0.5
v 2 1.1 -0.5
v 2 1.3 -0.5
v 2 3 -0.5
v -2 0 -0.4
v -2 0.2 -0.4
v -1.9 0 -0.4
v -1.9 0.2 -0.4
v -1.8 0.2 -0.4
v -1.8 0.4 -0.4
v -1.7 0.2 -0.4
v -1.7 0.4 -0.4
v -2 0 -2
v -2 0.4 -2
v -1.9 0.4 -2
v -1.9 3 -2
v -1.9 3.8 -2
v 2 0 -2
v 2 0.4 -2
v 2 3 -2
v 2 3.8 -2
v -2 0 2.23517e-008
v -1.1 0 2.23517e-008
v -1 0 2.23517e-008
v 2 0 2.23517e-008
v -1.1 0 -0.1
v -1 0 -0.1
v -2 0 -0.4
v -1.9 0 -0.4
v -2 0 -0.5
v -1.9 0 -0.5
v -2 0 -2
v 2 0 -2
v -1.9 0.4 -0.4
v -1.8 0.4 -0.4
v -1.9 0.4 -0.5
v -1.8 0.4 -0.5
v -1.8 2.2 -0.4
v -1 2.2 -0.4
v -1.8 2.2 -0.5
v -1 2.2 -0.5
v -1.9 3 -0.3
v 2 3 -0.3
v -1.9 3 -0.5
v 2 3 -0.5
v -2 0.2 2.23517e-008
v -1.1 0.2 2.23517e-008
v -1.1 0.2 -0.1
v -1 0.2 -0.1
v -1.8 0.2 -0.2
v -1.1 0.2 -0.2
v -1.1 0.2 -0.3
v -1 0.2 -0.3
v -2 0.2 -0.4
v -1.9 0.2 -0.4
v -1.8 0.2 -0.4
v -1.7 0.2 -0.4
v -1.9 0.2 -0.5
v -1.7 0.2 -0.5
v -1 0.4 2.23517e-008
v 2 0.4 2.23517e-008
v -1.8 0.4 -0.2
v -1.1 0.4 -0.2
v -1.1 0.4 -0.3
v -1 0.4 -0.3
v -1.8 0.4 -0.4
v -1.7 0.4 -0.4
v -1 0.4 -0.4
v 2 0.4 -0.4
v -2 0.4 -0.5
v -1.9 0.4 -0.5
v -1.7 0.4 -0.5
v -1 0.4 -0.5
v -2 0.4 -2
v -1.9 0.4 -2
v -0.9 0.5 -0.4
v 2 0.5 -0.4
v -0.9 0.5 -0.5
v 2 0.5 -0.5
v -1.9 2.3 -0.4
v -0.9 2.3 -0.4
v -1.9 2.3 -0.5
v -0.9 2.3 -0.5
v -1.9 3.8 -0.3
v 2 3.8 -0.3
v -1.9 3.8 -2
v 2 3.8 -2

# faces
f 5/9/1 2/9/1 1/9/1
f 6/9/1 2/9/1 5/9/1
f 7/9/1 4/9/1 3/9/1
f 8/9/1 4/9/1 7/9/1
f 11/9/1 10/9/1 9/9/1
f 12/9/1 10/9/1 11/9/1
f 16/10/1 14/10/1 13/10/1
f 17/8/1 15/8/1 14/8/1
f 17/10/1 14/10/1 16/10/1
f 19/8/1 15/8/1 17/8/1
f 20/8/1 15/8/1 19/8/1
f 21/6/1 19/6/1 18/6/1
f 21/6/1 20/6/1 19/6/1
f 22/6/1 20/6/1 21/6/1
f 25/9/1 24/9/1 23/9/1
f 26/9/1 24/9/1 25/9/1
f 29/9/1 28/9/1 27/9/1
f 30/9/1 28/9/1 29/9/1
f 33/9/1 32/9/1 31/9/1
f 35/9/1 33/9/1 31/9/1
f 35/9/1 34/9/1 33/9/1
f 36/9/1 34/9/1 35/9/1
f 39/10/1 38/10/1 37/10/1
f 40/10/1 38/10/1 39/10/1
f 41/10/2 42/10/2 43/10/2
f 43/10/2 42/10/2 44/10/2
f 45/9/2 46/9/2 47/9/2
f 47/9/2 46/9/2 48/9/2
f 49/9/2 50/9/2 51/9/2
f 51/9/2 50/9/2 52/9/2
f 53/10/2 54/10/2 55/10/2
f 53/10/2 55/10/2 56/10/2
f 53/10/2 56/10/2 57/10/2
f 53/10/2 57/10/2 58/10/2
f 53/10/2 58/10/2 59/10/2
f 59/10/2 58/10/2 60/10/2
f 61/9/2 62/9/2 63/9/2
f 63/9/2 62/9/2 64/9/2
f 64/9/2 62/9/2 65/9/2
f 65/9/2 62/9/2 66/9/2
f 64/10/2 65/10/2 67/10/2
f 65/8/2 66/8/2 68/8/2
f 67/10/2 65/10/2 68/10/2
f 68/8/2 66/8/2 69/8/2
f 69/8/2 66/8/2 70/8/2
f 69/4/2 70/4/2 71/4/2
f 70/8/2 66/8/2 72/8/2
f 71/4/2 70/4/2 72/4/2
f 71/7/2 72/7/2 73/7/2
f 72/8/2 66/8/2 74/8/2
f 73/7/2 72/7/2 74/7/2
f 73/5/2 74/5/2 75/5/2
f 74/8/2 66/8/2 76/8/2
f 75/5/2 74/5/2 76/5/2
f 75/8/2 76/8/2 78/8/2
f 76/8/2 66/8/2 79/8/2
f 78/8/2 76/8/2 79/8/2
f 77/6/2 78/6/2 80/6/2
f 78/6/2 79/6/2 80/6/2
f 80/6/2 79/6/2 81/6/2
f 84/9/3 83/9/3 82/9/3
f 85/9/3 83/9/3 84/9/3
f 88/9/3 87/9/3 86/9/3
f 89/9/3 87/9/3 88/9/3
f 92/9/3 91/9/3 90/9/3
f 93/9/3 91/9/3 92/9/3
f 96/9/3 95/9/3 94/9/3
f 97/9/3 95/9/3 96/9/3
f 100/6/3 99/6/3 98/6/3
f 101/6/3 99/6/3 100/6/3
f 102/6/3 100/6/3 98/6/3
f 102/7/3 101/7/3 100/7/3
f 103/7/3 101/7/3 102/7/3
f 104/7/3 101/7/3 103/7/3
f 105/7/3 101/7/3 104/7/3
f 106/7/3 104/7/3 103/7/3
f 106/6/3 105/6/3 104/6/3
f 107/7/3 101/7/3 105/7/3
f 107/6/3 105/6/3 106/6/3
f 108/6/3 103/6/3 102/6/3
f 108/7/3 106/7/3 103/7/3
f 108/7/3 107/7/3 106/7/3
f 109/6/3 99/6/3 101/6/3
f 109/7/3 107/7/3 108/7/3
f 109/7/3 101/7/3 107/7/3
f 110/6/3 108/6/3 102/6/3
f 110/6/3 102/6/3 98/6/3
f 110/6/3 109/6/3 108/6/3
f 111/6/3 109/6/3 110/6/3
f 112/6/3 109/6/3 111/6/3
f 113/6/3 99/6/3 109/6/3
f 113/6/3 109/6/3 112/6/3
f 114/6/3 110/6/3 98/6/3
f 114/7/3 111/7/3 110/7/3
f 115/6/3 112/6/3 111/6/3
f 115/7/3 111/7/3 114/7/3
f 116/7/3 113/7/3 112/7/3
f 116/6/3 112/6/3 115/6/3
f 117/6/3 99/6/3 113/6/3
f 117/7/3 113/7/3 116/7/3
f 118/6/3 114/6/3 98/6/3
f 118/6/3 116/6/3 115/6/3
f 118/6/3 117/6/3 116/6/3
f 118/6/3 115/6/3 114/6/3
f 119/6/3 117/6/3 118/6/3
f 120/6/3 117/6/3 119/6/3
f 121/6/3 99/6/3 117/6/3
f 121/6/3 117/6/3 120/6/3
f 124/7/3 119/7/3 118/7/3
f 125/6/3 120/6/3 119/6/3
f 125/7/3 119/7/3 124/7/3
f 126/6/3 120/6/3 125/6/3
f 127/9/3 123/9/3 122/9/3
f 128/9/3 123/9/3 127/9/3
f 129/6/3 125/6/3 124/6/3
f 129/7/3 126/7/3 125/7/3
f 130/6/3 120/6/3 126/6/3
f 130/7/3 126/7/3 129/7/3
f 131/7/3 121/7/3 120/7/3
f 131/6/3 120/6/3 130/6/3
f 132/7/3 124/7/3 118/7/3
f 132/6/3 118/6/3 98/6/3
f 133/6/3 129/6/3 124/6/3
f 133/7/3 124/7/3 132/7/3
f 133/6/3 130/6/3 129/6/3
f 134/7/3 131/7/3 130/7/3
f 134/6/3 130/6/3 133/6/3
f 135/7/3 121/7/3 131/7/3
f 135/7/3 131/7/3 134/7/3
f 135/6/3 99/6/3 121/6/3
f 136/6/3 134/6/3 133/6/3
f 136/6/3 133/6/3 132/6/3
f 136/6/3 135/6/3 134/6/3
f 136/6/3 132/6/3 98/6/3
f 137/6/3 135/6/3 136/6/3
f 138/6/3 135/6/3 137/6/3
f 139/6/3 99/6/3 135/6/3
f 139/6/3 135/6/3 138/6/3
f 140/7/3 137/7/3 136/7/3
f 141/6/3 138/6/3 137/6/3
f 141/7/3 137/7/3 140/7/3
f 142/6/3 138/6/3 141/6/3
f 143/6/3 141/6/3 140/6/3
f 143/7/3 142/7/3 141/7/3
f 144/6/3 138/6/3 142/6/3
f 144/7/3 142/7/3 143/7/3
f 145/7/3 139/7/3 138/7/3
f 145/6/3 138/6/3 144/6/3
f 146/7/3 140/7/3 136/7/3
f 146/6/3 136/6/3 98/6/3
f 147/6/3 144/6/3 143/6/3
f 147/7/3 140/7/3 146/7/3
f 147/6/3 143/6/3 140/6/3
f 148/7/3 145/7/3 144/7/3
f 148/6/3 144/6/3 147/6/3
f 149/7/3 139/7/3 145/7/3
f 149/7/3 145/7/3 148/7/3
f 149/6/3 99/6/3 139/6/3
f 150/6/3 148/6/3 147/6/3
f 150/6/3 147/6/3 146/6/3
f 150/6/3 149/6/3 148/6/3
f 150/6/3 146/6/3 98/6/3
f 151/6/3 99/6/3 149/6/3
f 151/6/3 149/6/3 150/6/3
f 152/7/3 151/7/3 150/7/3
f 153/7/3 151/7/3 152/7/3
f 154/7/3 151/7/3 153/7/3
f 155/7/3 151/7/3 154/7/3
f 156/6/3 153/6/3 152/6/3
f 156/7/3 154/7/3 153/7/3
f 157/6/3 155/6/3 154/6/3
f 157/7/3 154/7/3 156/7/3
f 158/6/3 150/6/3 98/6/3
f 158/7/3 152/7/3 150/7/3
f 159/6/3 157/6/3 156/6/3
f 159/7/3 152/7/3 158/7/3
f 159/6/3 156/6/3 152/6/3
f 160/6/3 155/6/3 157/6/3
f 160/6/3 157/6/3 159/6/3
f 160/7/3 151/7/3 155/7/3
f 161/6/3 99/6/3 151/6/3
f 161/7/3 151/7/3 160/7/3
f 162/6/3 159/6/3 158/6/3
f 162/6/3 160/6/3 159/6/3
f 162/6/3 161/6/3 160/6/3
f 162/6/3 158/6/3 98/6/3
f 163/6/3 99/6/3 161/6/3
f 163/6/3 161/6/3 162/6/3
f 164/6/3 162/6/3 98/6/3
f 164/7/3 163/7/3 162/7/3
f 165/7/3 163/7/3 164/7/3
f 166/7/3 163/7/3 165/7/3
f 167/7/3 163/7/3 166/7/3
f 168/6/3 164/6/3 98/6/3
f 168/6/3 165/6/3 164/6/3
f 169/7/3 166/7/3 165/7/3
f 169/6/3 165/6/3 168/6/3
f 170/6/3 167/6/3 166/6/3
f 170/7/3 166/7/3 169/7/3
f 171/7/3 163/7/3 167/7/3
f 171/6/3 167/6/3 170/6/3
f 172/6/3 99/6/3 163/6/3
f 172/7/3 163/7/3 171/7/3
f 173/7/3 169/7/3 168/7/3
f 173/6/3 168/6/3 98/6/3
f 174/6/3 170/6/3 169/6/3
f 174/7/3 169/7/3 173/7/3
f 175/7/3 171/7/3 170/7/3
f 175/6/3 170/6/3 174/6/3
f 176/6/3 172/6/3 171/6/3
f 176/7/3 171/7/3 175/7/3
f 177/6/3 174/6/3 173/6/3
f 177/6/3 173/6/3 98/6/3
f 177/6/3 176/6/3 175/6/3
f 177/6/3 175/6/3 174/6/3
f 178/6/3 176/6/3 177/6/3
f 179/6/3 172/6/3 176/6/3
f 179/6/3 176/6/3 178/6/3
f 180/6/3 99/6/3 172/6/3
f 180/6/3 172/6/3 179/6/3
f 181/7/3 178/7/3 177/7/3
f 181/6/3 177/6/3 98/6/3
f 182/6/3 179/6/3 178/6/3
f 182/7/3 178/7/3 181/7/3
f 183/7/3 180/7/3 179/7/3
f 183/6/3 179/6/3 182/6/3
f 184/6/3 99/6/3 180/6/3
f 184/7/3 180/7/3 183/7/3
f 185/6/3 183/6/3 182/6/3
f 185/6/3 181/6/3 98/6/3
f 185/6/3 184/6/3 183/6/3
f 185/6/3 182/6/3 181/6/3
f 186/6/3 184/6/3 185/6/3
f 187/6/3 185/6/3 98/6/3
f 187/7/3 186/7/3 185/7/3
f 188/7/3 186/7/3 187/7/3
f 189/7/3 186/7/3 188/7/3
f 190/6/3 184/6/3 186/6/3
f 190/7/3 186/7/3 189/7/3
f 191/6/3 99/6/3 184/6/3
f 191/6/3 184/6/3 190/6/3
f 192/6/3 187/6/3 98/6/3
f 192/6/3 188/6/3 187/6/3
f 193/7/3 189/7/3 188/7/3
f 193/6/3 188/6/3 192/6/3
f 194/6/3 190/6/3 189/6/3
f 194/7/3 189/7/3 193/7/3
f 195/7/3 191/7/3 190/7/3
f 195/6/3 190/6/3 194/6/3
f 196/6/3 99/6/3 191/6/3
f 196/7/3 191/7/3 195/7/3
f 197/7/3 193/7/3 192/7/3
f 197/6/3 192/6/3 98/6/3
f 197/7/3 195/7/3 194/7/3
f 197/7/3 194/7/3 193/7/3
f 198/6/3 196/6/3 195/6/3
f 198/7/3 195/7/3 197/7/3
f 199/6/3 198/6/3 197/6/3
f 200/6/3 99/6/3 196/6/3
f 200/6/3 198/6/3 199/6/3
f 200/6/3 196/6/3 198/6/3
f 201/6/3 199/6/3 197/6/3
f 201/6/3 197/6/3 98/6/3
f 202/2/3 200/2/3 199/2/3
f 202/6/3 199/6/3 201/6/3
f 203/2/3 200/2/3 202/2/3
f 204/6/3 99/6/3 200/6/3
f 204/2/3 200/2/3 203/2/3
f 205/6/3 99/6/3 204/6/3
f 206/1/3 203/1/3 202/1/3
f 206/2/3 202/2/3 201/2/3
f 207/4/3 204/4/3 203/4/3
f 207/1/3 203/1/3 206/1/3
f 208/4/3 204/4/3 207/4/3
f 209/4/3 207/4/3 206/4/3
f 209/1/3 208/1/3 207/1/3
f 210/4/3 204/4/3 208/4/3
f 210/1/3 208/1/3 209/1/3
f 211/2/3 206/2/3 201/2/3
f 211/4/3 209/4/3 206/4/3
f 211/4/3 210/4/3 209/4/3
f 212/4/3 210/4/3 211/4/3
f 213/4/3 204/4/3 210/4/3
f 213/4/3 210/4/3 212/4/3
f 214/2/3 205/2/3 204/2/3
f 214/4/3 204/4/3 213/4/3
f 215/6/3 201/6/3 98/6/3
f 215/2/3 211/2/3 201/2/3
f 216/1/3 212/1/3 211/1/3
f 216/2/3 211/2/3 215/2/3
f 217/4/3 213/4/3 212/4/3
f 217/1/3 212/1/3 216/1/3
f 218/1/3 214/1/3 213/1/3
f 218/4/3 213/4/3 217/4/3
f 219/2/3 205/2/3 214/2/3
f 219/1/3 214/1/3 218/1/3
f 220/6/3 99/6/3 205/6/3
f 220/2/3 205/2/3 219/2/3
f 221/2/3 219/2/3 218/2/3
f 221/2/3 218/2/3 217/2/3
f 221/6/3 216/6/3 215/6/3
f 221/2/3 217/2/3 216/2/3
f 222/6/3 220/6/3 219/6/3
f 222/2/3 219/2/3 221/2/3
f 223/6/3 221/6/3 215/6/3
f 223/6/3 215/6/3 98/6/3
f 223/6/3 222/6/3 221/6/3
f 224/6/3 99/6/3 220/6/3
f 224/6/3 222/6/3 223/6/3
f 224/6/3 220/6/3 222/6/3
f 227/10/3 226/10/3 225/10/3
f 228/10/3 226/10/3 227/10/3
f 230/10/3 226/10/3 228/10/3
f 231/10/3 230/10/3 229/10/3
f 232/10/3 226/10/3 230/10/3
f 232/10/3 230/10/3 231/10/3
f 233/10/3 231/10/3 229/10/3
f 234/10/3 231/10/3 233/10/3
f 237/9/3 236/9/3 235/9/3
f 238/9/3 236/9/3 237/9/3
f 239/9/3 236/9/3 238/9/3
f 242/9/3 239/9/3 238/9/3
f 244/9/3 242/9/3 238/9/3
f 245/3/3 243/3/3 242/3/3
f 245/9/3 242/9/3 244/9/3
f 246/3/3 243/3/3 245/3/3
f 247/3/3 243/3/3 246/3/3
f 253/8/3 241/8/3 240/8/3
f 254/5/3 252/5/3 251/5/3
f 254/8/3 253/8/3 252/8/3
f 255/8/3 241/8/3 253/8/3
f 255/8/3 253/8/3 254/8/3
f 256/10/3 255/10/3 254/10/3
f 257/10/3 255/10/3 256/10/3
f 258/10/3 256/10/3 254/10/3
f 258/3/3 257/3/3 256/3/3
f 259/10/3 255/10/3 257/10/3
f 259/3/3 257/3/3 258/3/3
f 260/5/3 254/5/3 251/5/3
f 260/10/3 258/10/3 254/10/3
f 260/10/3 259/10/3 258/10/3
f 261/10/3 255/10/3 259/10/3
f 261/10/3 259/10/3 260/10/3
f 261/8/3 241/8/3 255/8/3
f 262/8/3 249/8/3 248/8/3
f 263/4/3 250/4/3 249/4/3
f 263/8/3 249/8/3 262/8/3
f 264/7/3 251/7/3 250/7/3
f 264/4/3 250/4/3 263/4/3
f 265/5/3 260/5/3 251/5/3
f 265/7/3 251/7/3 264/7/3
f 266/8/3 261/8/3 260/8/3
f 266/5/3 260/5/3 265/5/3
f 267/8/3 241/8/3 261/8/3
f 267/8/3 261/8/3 266/8/3
f 268/9/4 269/9/4 270/9/4
f 270/9/4 269/9/4 271/9/4
f 272/9/4 273/9/4 274/9/4
f 274/9/4 273/9/4 275/9/4
f 276/9/4 277/9/4 278/9/4
f 276/9/4 278/9/4 281/9/4
f 278/8/4 279/8/4 282/8/4
f 281/9/4 278/9/4 282/9/4
f 279/6/4 280/6/4 283/6/4
f 282/8/4 279/8/4 283/8/4
f 283/6/4 280/6/4 284/6/4
f 289/9/5 286/9/5 285/9/5
f 290/9/5 288/9/5 287/9/5
f 291/9/5 289/9/5 285/9/5
f 291/9/5 290/9/5 289/9/5
f 292/9/5 290/9/5 291/9/5
f 294/9/5 290/9/5 292/9/5
f 295/9/5 294/9/5 293/9/5
f 296/9/5 288/9/5 290/9/5
f 296/9/5 294/9/5 295/9/5
f 296/9/5 290/9/5 294/9/5
f 299/10/5 298/10/5 297/10/5
f 300/10/5 298/10/5 299/10/5
f 303/10/5 302/10/5 301/10/5
f 304/10/5 302/10/5 303/10/5
f 307/6/5 306/6/5 305/6/5
f 308/6/5 306/6/5 307/6/5
f 309/9/6 310/9/6 311/9/6
f 309/9/6 311/9/6 313/9/6
f 311/9/6 312/9/6 313/9/6
f 313/9/6 312/9/6 314/9/6
f 314/9/6 312/9/6 315/9/6
f 315/9/6 312/9/6 316/9/6
f 309/9/6 313/9/6 317/9/6
f 317/9/6 313/9/6 318/9/6
f 318/9/6 313/9/6 319/9/6
f 319/9/6 320/9/6 321/9/6
f 318/9/6 319/9/6 321/9/6
f 321/9/6 320/9/6 322/9/6
f 325/9/6 326/9/6 327/9/6
f 323/9/6 324/9/6 328/9/6
f 325/9/6 327/9/6 329/9/6
f 327/9/6 328/9/6 329/9/6
f 329/9/6 328/9/6 330/9/6
f 328/9/6 324/9/6 331/9/6
f 330/9/6 328/9/6 331/9/6
f 331/9/6 324/9/6 332/9/6
f 330/9/6 331/9/6 335/9/6
f 335/9/6 331/9/6 336/9/6
f 333/9/6 334/9/6 337/9/6
f 337/9/6 334/9/6 338/9/6
f 339/10/6 340/10/6 341/10/6
f 341/10/6 340/10/6 342/10/6
f 343/10/6 344/10/6 345/10/6
f 345/10/6 344/10/6 346/10/6
f 347/6/6 348/6/6 349/6/6
f 349/6/6 348/6/6 350/6/6
